<mxfile host="Electron" agent="Mozilla/5.0 (X11; Linux x86_64) AppleWebKit/537.36 (KHTML, like Gecko) draw.io/24.7.5 Chrome/126.0.6478.183 Electron/31.3.0 Safari/537.36" version="24.7.5">
  <diagram name="Page-1" id="53OiF1mZc2BWSO9pRIbf">
    <mxGraphModel dx="1698" dy="1221" grid="1" gridSize="10" guides="1" tooltips="1" connect="1" arrows="1" fold="1" page="1" pageScale="1" pageWidth="1169" pageHeight="827" math="0" shadow="0">
      <root>
        <mxCell id="0" />
        <mxCell id="1" parent="0" />
        <mxCell id="-9ZG5ofNiQgSZj17KKBb-1" value="" style="shape=image;verticalLabelPosition=bottom;labelBackgroundColor=default;verticalAlign=top;aspect=fixed;imageAspect=0;image=data:image/png,iVBORw0KGgoAAAANSUhEUgAAAWgAAAOOCAIAAACiBR80AAAAA3NCSVQICAjb4U/gAAAgAElEQVR4nOy9V3QcR5qo+UdmlrdAwRDeO4IWdKA3oKdIylJSS2q1m9me6Z47O2dnX/aenZk9956zd/Zh2mjUrZnWtKQ2YkuUKBpRJCWSEj1BBxKEIbwHCoVCeZ9uHwqmTFahCgBBFBHf4QMRFfFnRGbWnxmZWV+iqqoquUoDGAwGEzPE0+4ABoNJPHDiwGAwcYMTBwaDiRucODAYTNzgxIHBYOIGJw4MBhM3OHFgMJi4oWY33IYNm154/kWJROL/0zgy+u57vx41Gmd3KRgM5ukyy4nj0MHDv/zFL4yjY5li3br1P//Zf/vVr39hMZujNSPSNrz+0iq+7tint/SMvwglr37ljTWuix982eSJceFU7vY3D5cOf/PRucceHsbDrH311XVc7Z8/7y9/7aW1yQQA8BzjtY90Pbp19cGgC6VteH2sfAzO9ejUHy72saHhRcUHfrJTVfuXT+5b+NDPhBAVH/jJLvWdT/5y1xRT/bhA4kWlxeKB5l6nVLdI7jWMOsL6O82Ajtnv7NPpDKVM15FWg9UTPcbkmqTUqTqxc8TonFyVIlVqKmUfNMe6CwKAVJueDNZBS2ATSp2WInYYjG5SnZqiFiEA4HmWcTtMVifNASDRRLkfnrYbRux0eM+RLL7NHW/9mImYONRqNcPQLpc7sFAul1GUyGazRWoll8snsgYA1NbeFIupf/mn/0EQkyvFYrF+8umfGxsbA9qRUpUmWbf50MaeDy4P0QAAgMRyjRZECAHEuPcwQ93D1IbFy4q/a2lw+9uglPIVBRr35W4zL5GqNCqu616biQVKuahw1f7vZcn+8NEtMqAcAAB475CLE4ovUWi0Mir2XVmi0KhV0iczGSTVSQrPsJsHJE/NTrWOznjPmAg4H5iVzojUGVkSz8hUiWNyWeKkzNxsJGUedVuY8Ria9BwZM2SeIkYgNKnKzhHbHvZNJD0kTs7NSzbV6wFkSZlZOveI2QsISbWp2QWcoampz8aJJ8rH4Enh/SbezT1bu0cYERNHTU2NWq0+duzTidwhl8teeeWIzWb74osvYl/A1atXr169GliSn5f/xptv/tM///eQmjxHpq8/sLnjo0v9NADPcwHfXiRJzikoystIIh39jxsf612cUCHd29BkWb5ycZGsscHFAwBKLa9I4/u+bjTxkAEAnOHRha+bfACA1Kvf+N/2rViy6HZzUPkU8CwoC6qWFiVTTn3Lg8Yh19jOgeTpReVF2ckit779UdNAcOIhUyvXl1L9XZ600jyVb7j5Qb1RVrK8Mk/Nmzvq67qt09imhFqjcFpt7ORFKkRSJLAMy/v/EJHAjP1BkCKCZxhufD8mxVKK8/kmC4IDAiJFJE8zQEkkJOsNqQeIkkgo1udhuEiFiKQoYGl2fNUQFEVwNMP7wxJimRi8Lh8XW2cm+iyheNpLB69XsYRkfT425EuNRBIJwXrDt+YUy0IAwDOErjjP8rDDQoc1j3H4rHnElJ+fqux32MeWI0nWKZ3GVn+HeM423NvlP2cl5DlLFuemGhqHg8tjwL9I2sOE7DyCY/S3GNusIqkY0V4fywMQ/jXlZQSPk9GJmDjOnz/3yitHXnnliD93+LOGvzz+pQTR3dOt1WrDy51NVx+lb9xwYEvHhxd7vMBNjB3Jine/eWR1Mm0ZdZCa6vWr7336wVedqCi8sGPwUZNp7ZqKEnnjQycPRGplRQrXc77J5t8tAuCdViuDUsQSFNaPaJCZm199jXdbfdKkddUrM4++/3WPF5Bm6eEfPLdY4THbWHn1xvUrL358tNbATDQi0io3bS3m1nNeh4vSVK9evNKgWqR22ZFGV708+9j7J1vjOKD514hKo/Ra+wN3GkpXtCrFXNds8PIgzSivymE67rUMM4CUmcvKRN11XWYeCHlaaUmOlmQYkuIs/a2dw+MHooCARHLJijTawGt1EkSIKe/Q4+Z+CwMASJZaUJarFTE0LxIxxs6mHouPFyjktPlVWe5H9QMuAABCk7+0mO+43yMqWZHOjhJJyaRb397Q70SxdAYC+kxQYB943K53sEAq0otLcpJImiFEYB9sax+0MgAAlHJRSWm2BmgWcRaDY3ILxLYs4FlTbw/KyS9Ibmg1TW5Af80Yh+/j7CMmKElRddttPAAgiS5Fbhtu9/FhOyHndji5VHG8lwsIRUZ5VbIEkWIRbWxt7hr1RR+jv1FyyYo0ZgQ0WjEpFvkMXQN8em4SRYjEYO151DoSx2QMAKIkDpfLfezYp/7ccebMmQMHDgBA4AnIbMMjdujyqZt5b298bmv7+9/0cBNnHOIkndTRevH0qVt6H5W166/eWrUs7+t+u0BhR8tQQ5Ohen1lqaK+zoHSKyp0TMfNVuf4NkMiRVJSEg2kLL1yQ4nUNzho4CAfgMxYc/iFkrHl0f03vro3JJyEeWK09vd/vq5nZGUHf/Lq8qqiyz1NULpjZxnX8Nm/f9Vq42T5u958c8uWxY8+rw86ZvHc4OXfHb1jki577W8PFKHL//HvN0aI/P0/fX1ZZf6Z1scRjm8RQHKNirXovYHphrGYHXlaDWkwMKIkjZimxRo1OWxipRqN2DZo4wCQMrc0Cw013Rl2s4R0UWlFaZajrtfJhwcklEqu+eF9B0PKcyoW56YZLYMeIORaLRppqR9wMEBpS5flZhqt3S6hQuuoOT87VT7Y4+KBVKVoWWOrnYNkIOQy+vH9uw4GAJAyL5bOIGVuSTZpaL4z5GIJ6aLSxSWZ9gcDKLckixpuuj3k4ghJalFFaZ67rsPMkOrckgw00Hh72M2R8qzSijRkAohn4AA8be7q0qwoyE91tI8EnrTEPnwHZzea+RKdpsdm4QCkuhSpbdAssIURpUpWEZ4BHw9iACSWqzVjB0ue87rs3ghnooRCyT9+WGdnCMmisiX5i0ZMvQ4+yhgDGsp8TXUPXCDNWLK8MHOgqe6BkxfpypZlLVIau+O8nBQt203kju+/9daoyfQkswYAAEKI0d84da3wx1v272z/8Ao//t31Dtae/qIzv3j5xnJdclqBgqBkMomvRaAQAW1seqTfuK2iRPWgXlVRnuxt/7bVNbFKyMJdP/3ZLgAA4H2jzee+aXTwaQAAIqlKrR7baD4phQApV7z+N7sLSH87dvC7Dz68BwC8uavNQAOAZ3BglKuUKyRAJhcWyhkryly1OQMACBnDiDNy0lD9QODgOHNPj4kF3mOxeHjv8LCJBeAsZjtPScQiBOGXwUTanLKCFCltHeju0TtYaWpeKjPYa6YBAEnUGsLWE3yM4Gmb2ZWtVZMGm1ortfYMinK1SmT2aDUS67CdBUBKnQ6ZOy0sJRZTwFlG7XkZGlmv0xUekHeNjjgYAGDdZqs3QyomwMNxzqG2DgBEiiRSmRiBWCoBcAgWWkfMefk6ea/LidS6ZGa00ckDAuBcRoPDfxyPsTNIqUshRtv0LhYAOI++pc4APCjzdMjU5p+uct6RgZHsxclq0mxWJOvA1DLi5gCAdQ0NmbKK4ljWxOAZc297UmVpQYqtNeBuYBzDB84xamRLUtWExcLJdckSy4B54vQFkcm5ZUsyARAplct4a2/TKA0gBkQo07Lyksdq+YzdLXoXTykXZelk/vMU3m3sN9h5AN5lNNgZAOC8ZrMrXy0hwMFFHmPAEFymURcHAF6nk/ZxVhcHAIzD7hUpxaG735RMcZrkzx01O2ouXrr4RLMGAJAEAmCHb331XdH3aw7UDNwbK0eS3Jq3XtmQTrotplGz1es/FIlzd4YVAgDwpqZH/dtqKsq0I9pyrbv1Qrt3chHsQO2J632MJG/T/ipJ292GUdZ/jYDtvfqnY8HXOLyDDy5f7hq7gsA5ev2bgGfZ8YMC8AAIAYBULAFSm1NSPr5zWEfsXgiF5yfPYXg01tvISV6ekZvs62vp5lMKy5amWB2ERm5r7fN/RqnVUttw6BGC95gs3gytQsRr5E5Lm0Wclq5WisRJcofRygAAEokkYlVhuWqiHz6fi0AAfFhAnmXHKvEcz/tHCSBJzsnLS1NRjNft8SAAHx+pkLMYzWShTtnvESVrvKPN42d8HD8x+4ytM0gkEtHOyZXJ8xwAIRZRtGOy0Of1IJWYAERRFO3wTewIPp+PF8c38DEYS0+XcUlRcaqja7Iw9uED8M4RI7MkRU1afSnJlKnHOjnt4TmX2TDo4JE8tVDm7ekyuDkABMCzpp7m9pBrHBzH+Hy+scQxdskqYOsAN3kqHWGMIeEmNzE/sS14AD6+sw2AWG7Hulzu019+GXfguEGI8H+JR2rPXCn+0c49G7wE9AMAkbt8VTr96Ph7J5qdPErZ/KPCTAAiT6DQj/VxY8+O3Uu3V6s1zuaGnsBzRN4x1Nra6oNuJrfse1Xbqu79udYaoTu0oem2IahEJFyRt1rMHD188Q/HH3sBACkX5Sodg8PczO50e4fbW1i3h+F7H9lGdUkKpO81Ovx7BanRyO0mR/hcym2xMqXJ6aB0W3oZj8jKFerSpEqnpY0BAOBp2ucbba3vtYfuJREDBkJoMotTua6G+yNeHpAkq1KrjFAIALzdOMIX6TQOidYz0iAwfY6xMzxN02KJBMHYRSCCoBDP+mhGJJUAjMUVS6Q87eOAZ2haLJWOV0YSqQRx0xw4a+vpNC4rK8i0oGkMHwBco6OeypRktVdHmjtsgUvgPXazycKDxSXRLMnNVI322COuec5lHAo6aYj0wGbEMcZ3CS8O5tGTowiNTwxG7315qRsk0rFU63S6eFFyVl5+btGK7XvWLiIjFcJY/dZHXWz24lK1tflRHyOwJPB13KjtRTmbtpbI/Qk7qXDV6lVrxv5VFSXFsb45fUPdALF41+Hty4oKi5ftfvl7b39vV5lshluM9bo8DA8AwNNOo8EwMnEoRUqt0m2xC43LZbbwuhwdbbYyAB6zlczI1LjMY/cWeeeokUvJWSQnAQBRmtzypdlKInrAEHjGf6+EUqWnKlDUQqdxlEstyNG4Ro3hZ18xd4Z3jBrZ5JxFCgoACFlm+Yoli6S8Y9TIJ+dkKEgAIKRp2amkadTKAu8wmXhd9iIFCQCUIjNTS85g4Kx9oH2YTEuVBzxcEfPwAcA7OuJW5xakoFFjWMLyN/Tq+0YgLXuRdKwAoYDmce4+Ecf4xJjlB8BcLleKLiXwUY5wUnQpLpcrvBwRiABgAQA40/2zX5f84GABAAA3dOP0tYwXNh7+fjXQ5s5+I5sboXAM3tX6qMNdWu5obBiIcIGJNz/47uGa76/cWn33KwAg05bt3rts/DOm4fOHHeaYb5Lyo7e/OCE/uGfdc0e2IOSztF8+fr7RxUc6Q5khSKFR07YBwVvHvMtkYTPVVosXAHin1cZkKMzm8YzDOXrb+ouLy9dksQxQhGe0s93JRQ8YAGcd7LKVla1cwbAAHovdxaMIhX6cxlFvdhbdbxIOHGNneEdvW39JcfmaTJZBJGfpe6x3Aw99rf3FJeVrMjkeEYx9sKXXwgIAZ+9t6y8uqVibybA8YxoyOhcRMxg4Zx/o6tNWZE9r+MD7Rkdd+QWigVFXpHkAZx/qsS4tyEkaafcBotLL16RPtjY01HVZY79NGmGMTw40u+rAkEfOBfF6vV+cOH7jxrW4IhNipUrGuWyuwOuIgoVPCySSqySc0+kJfbBgVpFlVZaT3Q9CLpjHA0GJKMT6xp+JiCsgQYnFBOvzsdxUhbPbGYISUzwd8sgGQYlJzkeHLhVRIlFAyLiXFbW3szz8WSdkjE+OWU4cmCcMkmlTZZ4RU7xPfsxdwJkwl52ZVwNPPHDiwGAwcTOPLo5iMJhEAScODAYTNzhxYDCYuMGJA4PBxA1OHBgMJm5w4sBgMHGDEwcGg4kbnDgwGEzczPJvVaYHdqNjMInF7CcOtVq9s2bHufPnY/d3TNONHgNIUbStpnDk6oUGc/CTxWRK+ao0y4MmfQyiUQAApMxdUUp23O+K6GnGYBYQs584GIZWqTUTstJYmkzXjR4DPMewDMfzACh19Qs7qOvHbg1zAECkL9u6vLOpWe+L7acKSFW8dp149GGXbbZ10RhMAjL7iSNQVjpt22DsbvQgEClXa0Req9WLpDKSdnlZd+/tb4c4N5AShVqXlkGqlQqr2+UZt/vwpEyjkdB26/jvaxEpkYk4t8f/JyGWSZHPFWB/RBJVkpy1W+bF73ExmKfFE7nGMSu5I4RIbvRxkDRz7fMvbMojXB6C7r3fp1uBLvzmXDdRfvhnyzt/+6l+5eH9lRol2vVGRveVo2cbaQCg0te9+tOKJIJSKVyPThw999gOQPnrH73r4AGIjE1vvUid/c3X/rczIUXRzh8/XyLjRApCf/PkySs9EVULGMyzzZO6q+Jyuc+cOaNLTq7ZUfOEFhGEKG/Hi+vQzQ//7Z3f/uo3JwdzFmcEjYztv3r0+AOz9dHp//yvrxr933ciPZO7/l/vvvfOO+9fsJfXrMmcYl0gVVm++9x/vPvOv//6txfdK5/fWSZ9YmI2DGZ+86QSh1wuO3DgwKjJdPHSxSe0iEDIzLISrvHaw1EaAOiRe7daptazcIbGB/0eHoA1t7UbVclacooGbMed2/1eHoC1Nt2ocxWW58yLe1IYzNzzRBLHxNubnvQbFSZAMpnU5ZjQznIORwyzCNpH+08ZEMuxgKbyPPJuu2PCfGy32im5QoRPOTALk9lPHHOfNQCAt9sc6pSUMc0nEuuSVdP8TnM8UJRoLOuIJOLJMEiqVY+/+A1pdBra5YjxlgwG86wx+4mDokR2m3UusgZS5K1at3SRBAGw+oZ6R+nO3StydRpd7vI91Xlh8w6ephlZkk4RfULCmkasaUtW5ikoaUrJ5k1BtnIqf+36fDkAUCnLNi6TdDQJK9QxmGef2Z+l22y241+ciKvJNN3oZFrlhk05D3oa9XqeNVz7yzHf9k27X6kW2bpu3nqYvlMaHIAfqa9trdz79/+4+Px7H98WsKwDAABnuP3N3cLnX/s/1nP27tpbLdakyQCmh4389p/8/fOESMr2XDl+sU1I/I/BLATmhXN0+m50hND4K6mQSEwxPv/jFWTOrr89xJ9470JfyONaiBSLCcY7lQQakWIRhEq1xz6RKuXgsnvwc2CYhcy8uC9w48a1eN+WMMbEi+yQbv0br5cPXrlUP+QWp6/YXok6Tg6Hf7l51hfpXb4h1SI8is6zHrt9Oj3FYJ4l5sUZx6xAqvNXb1hZukgtoh36jrobdzst+BIEBvNkeHYSBwaDmTOwjwODwcQNThwYDCZucOLAYDBxgxMHBoOJG5w4MBhM3ODEgcFg4gYnDgwGEzfz4snRTZu2HD70/MQj56PG0Xd/++9Go+Hp9gqDwURiXiSOAwcO/uKX/zZqHPX/uW5d9c9/9vNf/foX5hlbzjEYzJNglhOHWq1mGDrkB/VyuYyiRDZbxDcLKOTyiawBALW1t8Ri0f/zL/8zsI7Vav3LJx83NjbMbocxGMw0mOXEUVNTo1arA2Ucfq+PzWb74osvYo8jaDl/8823/u9//r8mixApkYlYtxekarXYZ7O5maBfsxJSjVZK26yuwOKgQlIskwRIzJFIKiMZt5cXy0Ss20uqdCreYrT7f/GCxCqNjHGELgSDWZDMcuI4f/5coNx8wgZ2/vy5eEPxPMdyLMuxwPMIofaOVo4P/jU8VX74Zysc99iCCg0hUUvNtz87eqXLwwOQKUv3vbCjSOFxsnK5p/HM0W86HHx4YSdbsvdn60c++q9rBh4ARAW7fnKQO/3uReXhn1V5G8niMvnoneN/uKYn06oOvbClUOzxiaR019Uvvro/5MXZA7OgmeXEEfhihDNnzhw4cACm5RDkeJZmaOB5ADC+sifl2HmWZ//f//U/Q+sRWZnsn97/zaCXStv8xlvbVz7qvmniqdTCIqLxs/+4OeABWfHhn9RUN3ZdGBYqbG9s37WlMvWGwcCBKKeymG78rJ+BciDSdc6j7/5ywMMDkFk7XthA3f7jL+tGaSq56sU3nt8w+J/fDmEfB2YhM/u3Y/25AwC+/9ZbMK2swfMczdC26mXOFeWjL+5kNMrRF3c6V5QbVpaFVuWGm+oHvTwAbWzrsmqSNAQAMPrbJ07dGPCJlElpqUqCU2tUSLjQ21nfKilfnEYAiPIqit1Nj/SsP2zjgwGP3wmUUVFBtN7v9MlUKrWM7mzukxcV6rCkGLOweYIvZKrZUXPx0sVpmEf90xPS7XWVF6qv3BEPm+j0ZOvWNfLmzrC6flM5D8CzLIv8r4xE6tKtu3csz5Z6LCaTBRG8I1IhMN0NrdS+ioyrJkVFga3xqIEDIAGAZVl/WEBKpUqdu/u1vIlpktM+TI59iMEsUJ7U7ViXy336yy+n15bjWADwFGZrrtwVD44AgHhwRPPtHfuG5YoHj6dsTuZtPLCMufDhO4+sLCDt+reLMiMUAgA70NAIBxfnDakKzA1XRsOzAe902m2NJ9+/2I8nJxjMOPPxyVGe542v7KGTNSLD5D1akdFEJ2uMr+yZuj0CYNwODweA5LlVS9PJiIUAwOobmpjKPdsKDI1NQveL2aGmZq5yy6o0CQJAsvztr7+9OUs0C6PEYBKYefEAmNPl0qXoJh7lQIBSjp0ffXEnnZIs1o/4C+k0nchk1R2/MGU0tvvGN31HXv7537o8iDC39o2wZIRCAADgRxobbZs2Oa+1OgRnH8zA5S+uHDj0+v++gXaDlLI0nDuhp4UqYjALh3mhDgx55PzYsU+uXrviXFHuqijUXL4jGjb50pNtW9bIH3fGMlXxI5KrFaTXbg9yEwsWxgYipQoF4bXj19RjMPMkcQhiW7+cdHs9hdl0skZksko7+1mZRH3z4dPuFwaDmceJYwL/cxxPuxcYDGaS+XhxNAScNTCY+UYCJA4MBjPfwIkDg8HEDU4cGAwmbnDiwGAwcYMTBwaDiRucODAYTNzgxIHBYOJmXvxWZXps2LDphedfnHhQ3Tgy+u57vx41Gp9urzCYhUACJ45DBw//8he/MI6OZYp169b//Gf/7Ve//oVlGm50MqV8VZrlQZPeN8udxGCeSeZF4pieG10ul09kDQCorb0pFlP/8k//gyAm/VwWi/WTT//c2Ng4RQ+I9GVbl3c2Net90/gJG0pd/cIO6vqxW8Pc1JUxmGeBeZE4nqgb/Y033/ynf/7vYXWRWKWRsQ5bkAOdJ2UajYS2W0N+AxssTB+3q/s16GafVK1LyyDVSoXV7fL4GyKRXK0Ss3arA/+YFvMsMi8Sxyy60UPo7unWarUhhaK0qkMvbC2SuN2kDPqvfXbyzhAPAFT6uld/WpFEUCqF69GJo+ce20FYmE6VB2jQT1xE2/dXapRo1xsZ3VeOnm10UemrDr68OYOxeeVqovvisVOPzFgehnnGmBeJY7bc6DFBZm19YbPswZ9/WWvwUcmrX37z8Pq+/7wBQKRnckf/691+D5G0+sjbNWvqWy8NcoLCdAMEadDh6HHRT16kzv7n130sAJJV7NiuevDBe9dHWSp15e6qDE2D2YRPOzDPFvPlduzM3egxQmYurqCart41+ACAMd395N3fXdVzAMAZGh/0e3gA1tzWblQla0mIIEyHIA16CDzjdNKq3LL8NAXFjtR9db4JZw3Ms8e8OOPwM0M3eowghULhHLJNXMbkWZb3m80nhOmI5VhAgCCSGx0CNeih0J3fHLu+bcu2NzYmgamj7vKlq+1WPFXBPGPMo8QBM3OjxwjvdDpVWg0JZgYAAJEiMcF6I1SO5EaPvgT3YN3Zv9SdJaRpFTuPPL/L9JvP6134rAPzTDFfpipzBjvY1Oyr2LJ2kQQBiHRrXv2bt9YmR3y/UiQ3ehA8TTOyJJ3Cb1PXVb329p5SBQDnsZjsNKKoBbeOMc8+8+uMIy5cLleKLiXwUY5wUnQpLpcrqIgduPzFlYOHX/uHdbSHENOd331228hDumDzyG70QPiR+trWyr1//4+Lz7/38W1T6/2BJc/99O98Ll4m9XRcPPVI2J6OwSQwCeAcjUTII+eCeL3eL04cv3HjWtgniJIppZzT6eWm/FrH5EZHpFhMMF7af/GEEMuVUvA4XD78TBjmWSSBEwcGg3la4Pk3BoOJG5w4MBhM3ODEgcFg4gYnDgwGEzcUAOiUT7sXGAwmocBnHBgMJm5w4sBgMHGDEwcGg4kbnDgwGEzcJPBvVaaNV7VOWvF3lCxZ8FPGbfI0vyOx185xrzCYBCKxE4dSpa7euOPa5fMedxz+Dkn5z7uv/5vT2Cr4qSKlNG/DP8CdRE4cZErhsjRbQ5ORDipG4oylO3YtzZAMXPnj5W5lgVCdJwMSJxeXl+WqCedwW327QdgyQGkLSkvyksQ+S39zS49fexCtPBBCkVNWtsjdebfbgn9SOBck9lSFYWiFSrPnuSNSmSz2ViK5biJrVL74QeWLHwR+6jS2iuS62ezl3EOkl61fsUgcYgtA6qW7q9Xd3538tLbXywvXeSKIMrc8f2RXgdTnRVlrXny7pij8/j+S5u999ciufJnX5VMU7nj7hepMKlp5YFNJcsWel15/edP6zUXJ4fszSl7+4v6q9MTe0ecfib0+PW73+S8/BYB4c8d0ISTqZLWMGvu2IVIsk1IIiVUpSYrx/RmRUnWySkICoiQyScD6RSKFRikRNHqMRxfJZOLxFqREKh3/A1FimTTgCxMWSrAn459RErlUTJIShUYl85qGrB4vw4YflkNjxtoZSq7SauWiKAlIW7FhFXfv09PfXr1z7fMT3xlyN61bFLrfKQoq803Xjn515WbdnW++Ov9IsmxlFhmlPGClLdqwYynUn/is3irwS2RCrFAmpaUmqeXygD4LbCORRK6QT/6TiaJtKEyCT1VgPHfsee7InueOnP/y07jmLADQePyHAFC29199PV9Qo5dEJOdjkb3xt9LQimRSxb5dm4pkHicnk3tbzsex4ZMAACAASURBVHx5ucNFldf8sMrXQuYVyS0Pjp+4PSxatLZm36YswuVD9OCjPm0luvnhuX4ORKmrduzbmity+0RyXn/zwrmbgwLCUiQpOfRmRdvRz+87AGlXvv69da5vf3+s2c0TqRtfPqi4/tFXPUyEUCE9qZsMKi/Yc2i7uunUScviI1vLNAq061C6vv7LLxoCLCVCMSGGzohSlh3csy6DdXilSmLg2rGLzebw7y6S5+elDbecN/o/cnU87N28LS+F0BsC6zqaz7zXPNEEELD+5BapfBJ+5Pqpz3w+SF8nsHnJtJWHx0fdffuLs+1ukAhtowFpxY43dmT60xkhloisDz753Q38npzIJHziAACP23354pnDL71VvbHmuwtxmweVEpZ49H/KOBeQ0HZgT8mZ82A8HVqJSs3JI9pP/0ed3gPS4prv1axo6boxCkCkJ7mO/vl3A14eQJRfvX8dcefDDx6NMlTq8oNvlhDNAABU1pp9G6UNf/rwvoEmtKV739i9ZeToN23e0NTBu3vbDJsLs6R1LV5Fdq7K5VVlZ4qaO2hNboFk4MYgEzkUhPTEP9VC8oJdh7Zrmk99Xm9k4MqHX7M/2U2d/cvlPg4ARBNDE445ZWeQtKJ6o6r5L+/dN7OUbuXGpRmqx2ZrWD5EKq2KNlud438zVqtTnaRCYAjfFCJtTllmanphZaHx1meD3JTlAAA84/NBpFNnVl979GsqcNTC24h31Z/9XT0AAJLmbHlru+JGPc4aUUnsqYofqUy2teaAxWK6df1ivG3L9v5/OSlIv6LEWFnesW+nT6Xs2LfTWFk+VLU8qB6jrz936r7eRymSdDolwamVyjHdeVvjgD8FEOll+VzjvaZRBgCYkcb7LW5/edriIqrl7kMDDQCcpa32obugIosEJM5esnnX5q27Nm/dtXlz1SIRgKOz25SZmyVC4rwcTeetO8PpeZkkqLLzNEOdvXTkUCE9AQAAJMurObhd9/jL4w+NgtcTx4gYc6rO8KzTxagyi/KT5RQ7Wnf5uyYrLzQokiQYmpmYyvA0zRAkKTS1QaQ6syg/L08LdidLEFOWx0+kbTSxJFXZ/h253ZcuNjkiRMD4SfgzDqlMtue5IwAwjXkKAPi6jsk4l8jrNRUVZtXekRtNrpTkgXVrkjs6g+ohdf763esXZ4u9FqvFggjeNbbnT+rOCalM7BpyjmvCOKfDA3IAIOQKqWPQPl7O2y0OMkcuQbzP53HY7P44vP/dcdbeLtuKvCwJV5Cib7/UpSpfWpCiUOfpBtr6vFFCgQ9CxetE7qoNWh9pAW6KI2fEmMwUnQG68/rp6+vWbTu0NgnMHU23Lt3tsnJ86KB4r5uWpkknEgUhk0l9Ho9Qr3hPb+3JXgAqec1zrxxaafzgjpGPVh4/kbaRHyq1etcmZeOp0/1hZ4OYEBI7ccwwawAAZf4OSLDmZGfV3lUMjwCAYngk6+Yd/arlKY2PJ6oR2Ru3LWZufPJOq50F0K48UpQWFopz2lyqlCQR2GgAQKKkZDl4AIBzOTzKJBUJNhYAAKm1Stbp8vLAGNrrQs7XeUt3h3t/aSVkmXsu+ezyfua5oiVJqYb2bz18tFDhx29u6O7xj3uLXju4b4fx0wtRvgkRYwJE7wwA79XXXTlZd4WQ6kp27tu7y/rh5y3usEFZh0eY5VnpZOcACwCgys5QjLSaghMHocksTvX1dBi9PAAw5s4+29a0ZBJMCuHyqOdQUYi0jQAASQs27F3lu/mne4a5uEGd6CT2VIWiRE67ddpZAwAogm87sMej1chHRycK5WaTR6tpO7Bnsh4CYNwuLweAZNlVpWkC19w5Q0OLs3TDthUZSRpt1vJNq/LG5xDNHXT5mpWLxAiASi5bt1za0dgfYc/nTe19ULmq1NHb7+J5U1+/eMmqfHNXp5OPN5TP46UNd09cNZXt3L1UFfmmR5SY0TuDkqr2H9mTLwfgPDZLZJ870/O4hSvbUL1IghCVXLFxrba3vssJAIrMZetK0yQIAHhJ5urnd1YXKkkAoFQFq0s0w4PDbMTywLYCBH7K0wwj1erkZLRtBEhTuvNA3vA3l5qtgBCai5vUiU1in3E47LYL507E24p2jSpSSv2PctAcKjlzvmPvTldSsmJkxF/BpdNJLdaicxcmmnB9N64PHtn7o791exBhbR0aFdKds4a7J4/RGzdtOlhN2bse3HuYslkKAMAO3D57ecfe135QxdCkmO6/8fXVTl+kznGG7m7P8uyuPjsAcMaeHt+K9O4e2/gi4gkFALyt7cLptFde2LN25GTtsHCdKDGjdoY3tzbpl2z//t/RLl4q9fRePdXiFDyvYQZvnry9+/Chv6oGIHxDd7452+jkAai0ktWbFjX2tBv0PG94cPYrWc2+N35K0SxFefrqvz71yMoDRCgPbBu+wKBPeXNzbVfZ3u//zeJrH31cbxfeRkT6qjVFag166UeLx/rcee5XXz2O9L4dDKCqqqqcjIUlKw585Nze+Fup8bSxsjz8GkfgVMUPJVPLSa/D4Y142UAkphgf478mmrnrjT38hT9cGBqbUSNKqqBYp2cW3l8/i6FmGpMQyeUS8Lpc9BTXUhAlVUoJT1BFhBDPBy6PEMlllM/lZkI6IVAe1jZ4acGfjr13i+Yg+jbCxEpin3FMD4m9lr9d65/I+p/XoCWS5I5OfdVyj0YjtVqTOzppobcuMG6bLbx0AqSreuH1guErtc1DblF6xcZK1H3SOLlH8ozHMc2peSizGGqmMTna5YjpmgDPeOyhtyrCvvkc7XIKRRMoj5I1wj/lWdr/cospthEmVhbiGUcUxp7jmC6EMn/pmpX5qWqKcRi76+rqO22z/f3GzBC8jWYFnDgwGEzcJPZdFQwG81TAiQODwcQNThwYDCZucOLAYDBxgxMHBoOJG5w4MBhM3ODEgcFg4mYhPjmKLecYzAxJ7MQxd5ZzRXH1xjzjrYvt0Z45f8JEcJdHRpm5pJToud9vj2cpyoIl5SmOdmFdeFSZeEwqc8yzQWJPVebMco54lmXZqZw4sTMt9Xa8XnJClbtyXYE6LuuuumL74W0bhXThU8jEY1KZY+H4M0Nib8Q5s5zz7t6HN271OsZ94uPlhEgmFZMAE55xIGVarVJKBFYI1JFTUqmEIgXV24BECq0qqEDQXc6TUo1WLadQcLXwLk18LlZpNfIYzi2RonT7GlVn24iQLjyqTDwWlTkWjj9LkBkZGRpVmNM7cWAYpqertbi0sri0sqerlWGm/sUSmf/GcMMx//9Hmk+ONJ8s2/uvapEjlWhdpPZq5LTXZaNcwRMZ0eLdP94ubmow8BVj/6EBgEhb/8NDecMNPTZetHj3j7alQPmWXdVlSzasrdS5BjqNbl5c8tybNcm9Db1uAABRzva/fi5reCRl1/YlaUpddl5BkrO93cSAKKVq50uvbllWXlq1oTKd1vfoXax/oTtz1Cu3bFmRwfW06OXFq7LFRPmGbWvKlm5aW6E2d7Sb6YC+hXQJqbKXVaj4pJU1Oyor1q5dVUAYOodsEec5SFq8eX+F/sIle+5S2eDtLnPwVMMz2N7YanDLspcuFfeFfork5Ws3yjsu1Q77AABoK61btVLW92Bg0tBBpq9+eUfQqJFk0bo9rxzZtKSsdPmyNJFu+Y4C68N2u2zJrjde3rBi1dLlq5auXL96TTnZVdcnbPrAPDUS+xqHn7mwnMcCmVea+uXx339m48Vpa189uGe98S9XjV1NfVs2F+tujBo5oHKKC+j2L3sH9D1B6m0ya82+DVTdHz9qGGWo5Mp9b+xcM/jJ9SEOwtzlRHoaf/SzD/q9KGnJobfXr6zvvjYYbf6EVPnZ7pN/elfvJVRlB1/ct3P0D6c7BTWCSJqzoSa946tjemapUKSoMvFYVOZYOP5MkdhTFT9zYTmPBd7ccq/JxgHwPsP92j5lSUESAl/H4y5pUWkaASDKrshzN7UYQvUPRHpFEWpt7PVJlSqllO5r65PmFSb5ZyIh7nLO0NbQ7+UBOHNPt1Gh1U61/di+h7f1Xh6AtbfeaHYVFmZSAiJyAFHmxk3Z3Vdu9U/Ttxm7ynxy1Fg4nsAk/BnHHFnOY4F3OJ3jx0bWbnPL5HICRpmB5lZyR0VqrUlWWuBoOWoKO3wSCqVclbvpcN7EF8ftHCbCLOoAAEDTjP9PxHEsIAFLcXCX3M5JAY7d7qDS5SIIE5EDlblqa4n+yocDPiHvcSxDj11lPlEFC8cTmcROHHNmOZ+E53igKGpsbxZJxGjiBAKpVWoCHBwAAKXVyN2jLg4AWH1DB3quOGtIkWNuvTUa/j3gnE6XvfHixxf1IeciMV4UjNYlqUolQeDiAQBptGra7fLxdKiInMheWp6qlR74eQkAACIoCu3/h8yGY3/+rifGSQIfi8o8GCwcT2gSe6oyd5bzCTiT2ZZWsiRPRkmTCjdXFQXcykGastXLkygAkGauqc61tXT6ryCy+pY2tnjbtmxjY/vYIxUh6u2mDr5yzbI0MQIAWdbG159flxVHRo/SJaCyVqzPkgEAlbR4Y5m4o31Q4OIxN3Dx49/+4vfvv/PB++988P4f7xrcHV//5pNrfVzsMvFYVOZYOP4MkdhnHHNmOZ+EM9RfuZu997Ufr+YcfbUPO6yT9jRuoGUod/8PN4sIscjedOVc7fgRlzM9bnKtXu+83To+jQ9Rbw/cOXtl6+7X315Ne0FK2hquntXHobOL0iXe1NLKr/ve3+8kRBK2587Ziz2C4m6e8fnGF4h8LAcM4/UxXDwy8RhU5lg4/gyxENWB07Gci5fs/8mS7g8/afI/D4lIEQU0HTC1EFXu+6vlfR993OiTK0S00xUsC9ese+mV9Lo/nuoM3P8D1dsAAIiQKOSE1+melrw8vEuTn0jlUnA7o15yiBg2Hpl4LCpzLBx/JkjsM47pEa/lHEnSitYsX+QYvDfxinmepYVn34gPtX4r0ktKCpasET8+0Rty1JxQb4//zXkd07+DELFLwLMep1P4oxjCxiMTj0VljoXjzwQJ/wDYrKAaGpaPGJPbO615ucVffSMfMaqGAl5fpMgtzfa1XKvtc0Xer5FElYTMnX22kCpUWnFVudJQe/Vutxs/jhCEe7jHIMpevLhySWGm2tN5+bs7XXgVJQoLcaqCwWBmSGLfVcFgME8FnDgwGEzc4MSBwWDiBicODAYTNzhxYDCYuMGJA4PBxA1OHBgMJm4W4pOj2HKOwcyQxE4cc2c5j2gYR7K08tLCRQpwGDobOgxubI+YbWKSp2P9+hyT2FOVObOcRzKMqypeePXw2hTkcqP0lYd/vKdcHfcY5oK514vP2hKnlqdj/frTILHX1ZxZzoNBlEQuFZOAkkuW5xuvHbt0s7bu5pkvrw3nrKhMmsgtlFyl1cpFU/kkhKuFGc8Dy2XjhnNhDXpoW2G9uNC4phF8YiESdbJ6vG2EJSKRQqMMdL4LLyKQGOTpWL/+NEjsqQqM5449zx3Z89yRaRh9Go//EADK9v6rr+cLavSSiOR8LLI3/jbKz/7kBXsObVc3nTpeb2QYBvhJrx/wLMPwACBKWXZwz7oM1uGVKomBa8cuNpuFdmrhaqKUqu37tuSIPLRIyvRd/ebC/RGfP2jV9n1b8yRuDyHjh66dP3dnBMprfljlayHziuSWB8dP3NaTAm2JtJWHt5ZpFGjXofTu21+cbReaTk03OA9AJlXs27WpSOZxcjK5t+XMl5e71WFLFKWu2rFva67I7RPJef3NC+duDnp4oEIXEbKWkDw/L2245bzRX+7qeNi7eVteCqE3TFbkR66f+szng/R1Qhsrhghk2PoByaK1Nfs2ZREuH6IHH/VpK9HND88NSCt2vLEj0590CLFEZH3wye9uLFSRcsInDphTyzmSF+w6tF3TfOrzeiMDYG+pvV+y7cWtysejkFZSLmv87pEDAEkrqjeqmv/y3n0zS+lWblyaoXpstoZ9W4WrERGM52TWmn2bZY1//vC+gaaSlzz3Zs3qvk/vBmvQyaxqobahevFwZhCco1Jz8oj20/9Rp/eAtLjmezUrWt6/EbJEKmvNvo3Shj99eN9AE9rSvW/s3jJy9Js2LwQvInx1Ty1Px/r1p8OzkDhmaDknHv2jfkWJyOu15mb7Leea3n5aIsm4/zC4LpLl1Rys1j3+8rOHRr8vi6cQ6wVlakaOBJLk4OIIigcA1uliVJlF+d1NPebRusvfAQAgcXbluook//7Njbbduq8XquY3nl/p9UmVKgC6r61vbVVh0o0hc/riIqrp4kMDDQCMqeHEu00Ey5G6QA16pLYhmtPwnhhSZxCc0defOwVAiBRJGq2S4NRKZaBdGQCASFtcRLVc8sfnLG21D1e+XJFFtnVCkMZdoGPxy9NDma5+/esA/XrVzqD159evX/x0QevXEz5xzJ3lnMhdtUHrIy0w/iZIJCnbuGex/fxHZ3o9PCBJ7u6X9+wY+cPpTm/n9dPX163bdmhtEpg7mm5duttl5cLd4oxAtUjGc0KhkDmHHJOyD5bj/DbjSQ16RFt6iGwnrCczCg7q/PW71y/OFnstVosFEbwr7FtJyBVSx6B9PD5vtzjIHLkEgS9oEeEdm4Y8PQSsX39CJHbimFPLOTd09/jHvUWvHdy3w/jphX4vjzSLdOTQrQG/F4z3DnToie1pGtRp4Lz6uisn664QUl3Jzn17d1k//LzFHeoWB+DDq7VFMJ4TTqdbqVVTYGMAABAhEhGsLzhcRFt6COGW8xkEJ3I2blvM3PjknVY7C6BdeaQoLWyBnMvhUSapSPBbjpBaq2SdLm/YqxjCOgbxy9NDwPr1J0Ri31WZW8u5z+OlDXdPXDWV7dy9VIWAt+pH2dyKxaliBIDEusoVOdywwcqjpKr9R/bkywE4j81ipxFFCa1mwWqRjOfccFMHXbF65SIxAqB0Sw//zeGVySHfu8i29CC9eDgzCo4AGLfLywEgWXZVaZp/GcFC8+HmDrp8zVj85LJ1y6Udjf2x6JhjkqeHg/XrT5zEVgf6fN7O9sexvC82EC5tr2u0jXaNAoBWTqe1t9uzsyRmm9jl8ldwpaZ6krTFZ7+ZbEOmlaxaZHvYYPB5Tb3Dyqr9K2Q9bT09/cNUwcYD29avW756Q3mS8cHX3zy20LzHTuvWbN+5ZcnitauXaIavn7vb7xQ4xglW4+z6QW9W9XPbqlctWbW+RNJz9+Yjo5cH3q4f9GVXH9hWvWrJqqpU05Vvrne60Hiv/Me/SG0BPHZf0ordOzYVeJsfDfvCejKD4LxtxJm2YeeO6oolayt1ZgOdSgze6jBxQUv02IcGvdnVz22rXr1s9apF9tsXvm2wsgFrNeLxm7MPDjC5W2pqtq5avSrD8+DCN3eMNACVXbVvTwnd1jTgGJswIOXkS22DPo0pQnBvnYMd/WRO1crVa8pS6baHA9pcqu9BuyN9497NRdq0xSvXbV5bvXlt9foUy922hWpJXYjqwOlYzqOBSIlCCm6Xlw2c9RIiuVwC3iDhtwARqkUyniNKqhTzTreXizzDjtA2VKou0HDawSmZWk56HQ5v8CBCNe6UVEGxTk/cFvcY5OmhLbB+/cmyEBNHOENVy/13VfyW8wh3VTALA6SreiVQv76zcOTk0W+7FvpVjWBw4ghi7DkOzMKGUOYvXbMyP1VNMQ5jd11dfactvtnwsw9OHBgMJm4S+64KBoN5KuDEgcFg4gYnDgwGEzc4cWAwmLjBiQODwcQNThwYDCZucOLAYDBxk9i/jp0e2HKOwcyQxE4c88ByPjOmFzaeVuH6b0KeWbK4LEVKWweaW7pHBX84EkkaTurKlxYkBZ6mcua2+g7jwjVhLVQSe6ry1C3nM2V6YWNsJaj/VlXueu3lZSng9UnzN7/10sac0DBRpeGIkioUyol/aeUb1pSEVMLG8AVBYm/fp2w5H/8z1CoukkkDXd6UVCoZV4eHmMTDIod6wMdDBjrEo3YmoI2A/luct26btuWzE+e+vXv7wplTVx2FK/OkaKpWkzDDD65f/uaq/9/NTq/Y+fhRZ+DPOLAxfIGQ2FMVeMqWc0EjOYgK976xauTE0WujPACIcrb+ZDt7+uPvepCASXwSYQ+4gEO8wxWhMyEI6L+JrMJ82+NPB2lCqlQgt/Xel3+4N3UrYZB2yYYCy+1jA4F5AxvDFwoJnzjgKVrOSWEjuberqW/L5mLdjVEjB1ROcQHd/mU/Q2ZtEDSJ+4nkASfDHeJdN0aFOhOGgP5bmZJEuNyVr761NJ3kRWK6u/bcmXq9h4/eSnBFSIqqVijaztfbg4qxMXyhkNhTFT8ztJznpCD9ihJjZXnHvp1+y7mxsnyoanlYXSTLqzm4Xff4y+N+y7lf/N3Y65MqVUop3dfWJ80rTEIAvo7HXdKi0jQCQJRdkeduajGwRPriIqrpToBJ/NPaydeI+D3gdwM84O6CiiwSgNHXnzt1X++jFEk63YRDXKAzSJy9ZPOuzVt3bd66a/PmqkUigcEikUQkLSlPaTvzwTsfvv/O8Xrxmv3bsoVqTgXSLtlQYK59MDDFr839xvB7Acbw4Je6jBnDL11c0MbwRCThzzieouU8slWcGWhuJXdUpNaaZKUFjpajJg7IiCZxgCgecFYl7BAP60y4IjwcnqEZbqTxZp2J5gF8xgc32lbsz08l+wbjk1shSdGqlbKWsw32qWpiY/izSmInjqdrOY9iFWf1DR3oueKsIUWOufXWKA/ARTWJR/KAE9kRHOJhnRFQhIfjNJo9gGD8jQkEQRA8G/d3lkhaujFvpPaTganvBmNj+LNKYk9Vnq7lPLJVHIDVt7Sxxdu2ZRsb2+0AU5nEI3rAhR3iAp2JCab3cZto8YaVOjECJM9cs7nY19YxwsYhDQdAkpJVy6WP7zQ6hCtgY/iCILHPOBx224VzJ+JtRbtGFSml/kc5aA6VnDnfsXenKylZMTJ2l8Ol00kt1qJzFwQa87a2C6fTXnlhz9qRk7UDd85e2br79bdX016QkraGq2f145N+zvS4ybV6vfN269isnh24c/bK9r2v/WAl7SXETO935+qMPEofq84O3D57ecfe135QxdCkmO6/8fXVTh8A9N24Pnhk74/+1u1BhLV1aJQlI3ZmKIYDNz1443jttude/OttwBGcreXmV1eHGAAqrWT1pkWNPe0GvcD5R9CnRNKyDbmjtZ8M0hEq8Obm2q6yvd//m8XXPvq43m64e/IYvXHTpoPVlL3rwb2HKZulAECkr1pTpNagl3602B+C6Tz3q68ee6ceAWZ+sBDVgbNuORe2imvWvfRKet0fT3UGfR2im8SFPeDCDvGZQMlkpM8TqGWPTxo+VQVsDH/WSewzjukhsdfyt2v9R0z/8xq0RJLc0amvWu63nCd3dNISSczxeM7rCL4poEgvKSlYskb8+ERv6EGUZzz2yLcieMbjCP+UcdtsMfcmJhi3O2Qx0fNC9E/DK/As7fVfrdFVvRBoDK9E3ScX6qtInikW4hlHFGbHck5lLd9RpTU/flDXZl3wdmxsDH8mwYkDg8HETWLfVcFgME8FnDgwGEzc4MSBwWDiBicODAYTNzhxYDCYuMGJA4PBxA1OHBgMJm4W4pOj2HKOwcyQxE4cc2c5f7Z5Qg73pwGSF63dXGiuvdBqeUKODyROLi4vy1UTzuG2+naDS3AxkTTxfihtQWlJXpLYZ+lvbukxJ+KTtIk9VZk7y3kCE4N2/Ak53J8KPMeyDCf4E8LZQJS55fkjuwqkPi/KWvPi2zVFytAaUTXxAEiav/fVI7vyZV6XT1G44+0XqjPDjt4JYIqfz32bmrmznCNSLJNSCFFSjUYtC9vSghbyoEJh9fl4WLEqJUkxETVUmx6lW0LO9ODlCmrHo2nTIaJsPVxW7u//RFCRLNi3HvNAKLlKq5WLQt/UENo8eHUJrlLw9NZfv9ltCw4SOtKpOxZBVa+t2LCKu/fp6W+v3rn2+YnvDLmb1i0K/g5F18QDKAoq803Xjn515WbdnW++Ov9IsmxlVvCaTghTfGJPVWDOLOdUec0PV7gestklGkKiFltunz9xpd8byUIeXtjJFu59c9XIF4Hqc+70x9eUNT+s8rWQeUVyy4PjJ27rSQFtuvDBUxTuTKfDl9utDtWOE9G16RFk60hQVt5Pltf8cHnfR0cbnDwAkbr2rd3U2T9f7uNA0P8uOBBRyrKDe9ZlsA6vVEkMXDt2sdkcsTlVHrC6vjhrrX5DeJWOdUloFcXYMSQS2l5Ha5Py0oZbzo+9gMrV8bB387a8FEJvmMwRU2niHc1n3mueWAwgYJlgCVtimOITPnHAnFnOiaw07k/HPhr0kWmrX3qreumjz++aeErIQm4UKuxq7NmyJVR9DuVApCe5jv75dwNeHoDMqhbSpgvsC2TWmnBn+h0IW+77N0K044IdnpCfRZKtU3mCsvKIRPC/hw8ESSuqN6qa//LefTNL6VZuXJqhemy2EpGbB64ucYRVGmUV3SZj6xjvFdperKpARZutzvFajNXqVCepEAQ4G2PTxIu0OWWZqemFlYXGW58NBi0+MUzxiT1V8TNHlnNuuL1p0McDMMbuXqtSo0EQwUIuWOjrfNwpCVGf+8O2NQ74Zb2RtOnhBnNhZ3pEJXoAUetEkq1PJSsPJfaB8KzTxagyi/KT5RQ7Wnf5uyYrH1kfH7y6Iq7SsT4IrCKIuWPCwUmSYGhmYoXxNM0QJBn/tSFEqjOL8vPytGB3skT0L+H8NMUn/BnH3FnOgaYZv+aX51h2zJOJ1AIWcsFCYAYftxLB6nMgAYBl2TF7cCRterjBnBB0pgsvN5iodSLJ1qPLysOJfSDAdF4/fX3dum2H1iaBuaPp1qW7XdaI+ngIWl2RV6m/DwKriIq9Y4LBvW5amjb56jtCJpP6PJ74j/O8p7f2ZC8AlbzmuVcOrTR+cMcYPB3VpgAAIABJREFUMRPPT1N8YieOObWcCyFoIY+kJmf1De1w0K8+b7s1Gr6dI2rTuVCDOSHkTGcyIijRp+rw5HIiyNYjysp5jgeKosaGIpKIERvfQAB4r77uysm6K4RUV7Jz395d1g8/b4vUPOziX5RVKqiVZ+LomFBw6/AIszwrnewcYAEAVNkZipFWUzyJg9BkFqf6ejqMXh4AGHNnn21rWjIJQq/UGh/IfDTFJ/ZUZW4t50IIWsgjqclZfWsrE6g+DyGaNj2kpqAzXXi5QdrxyNp0f1hh2XpEWTlnMtvSSpbkyShpUuHmqiJZvANBSVX7j+zJlwNwHpvFTiOKIuJoHmWVCq4iPvbIgsGZnsctXNmG6kUShKjkio1rtb31XU6IQxPPSzJXP7+zulBJAgClKlhdohkeHGYTzhSf2GccT8FyHgwnZCEXLAQAAN7c0uhcu8l1u1X4sSEmijY9GCFnOssKLjdYOx5dmx5Jts4Ky8qBM9RfuZu997Ufr+YcfbUPO6yaOAfCm1ub9Eu2f//vaBcvlXp6r55qcfIAMa+HKKtUUCvPQMyRBYMzgzdP3t59+NBfVQMQvqE735xtdPLxaOJ5w4OzX8lq9r3xU4pmKcrTV//1qUdWPuFM8QtRHTjblnNhC/kM1OQRtOlCNcOd6cLLDdSOT903Idl6FFk5IkUU0HS4gzjWgRAiuVwCXpeLDu50zOshCoJa+RlGRpRUKSU8Qf2NUxNPiOQyyudyMxFF8/PbFJ/YZxzTY7Yt58IW8hmoycO16RFrhjvThZc7oR2PqW9hsvXosnKepYWn2LEOhKNdDoEIsa+HKAhq5WcYmWc89tDmcWriOdrlpKPWmd+m+IV4xhGF2bGcP4tgWflTZB6ufJw4MBhM3CT2XRUMBvNUwIkDg8HEDU4cGAwmbnDiwGAwcYMTBwaDiRucODAYTNzgxIHBYOJmIT45ii3nGMwMSezEgS3nT5rZkoY/efn47DBPJOmxaNCji9SfNIk9VcGW85kRg017tqThT1g+Pms8dUl6LBr0qUTqcyBJT+zEgS3nERTewY7yCJ2PRYDOT0jDp1gDUxjJJ+NEc3NPESTianiGJOkxadCjitTnRpKe2FMVwJbzEIW3oKNcuPNEmE1bSIBOjXvMfZHWQCxG8uMn6nT+OI28sJs7piC39WFflGdNkh6DBj26SH2OJOkJnzgAW84nLeeksKM8QudDbdrRBeiR1kAUoXng0ERjsz9hN3eMQcJ49iTp40TRoEcXqc+RJD2xpyp+sOV8TOEdwVEesfMhTClJFwoSq5E8lCA3d4xBFpAkPR4NenSekCQ94c84sOUcAMYU3hEc5eCL0PkQppakCwSJ2UgeRIibO8YgC0iSHo8GPTpPSJKe2IkDW86DFN4RHOUQm8Y2ugA9EhH7HPlKW7ibO9Yg9AKQpMevQY/OE5KkJ/ZUBVvOgxTeERzlkYlDgB6JOIzkfoTc3HEHmQj27EnSY9KghzPXkvTEPuPAlvMghTcLwo7yiMQjQI9E7H0GgIhu7viCBAzgmZOkx6RBD2POJekLUR34bFvOhR3l0WLEJUCfeZ9nP8gzKUmfWoMeGnVOJekLMXGEM1S1XOT1WnOz/ZZzTW8/LZFk3H/4tPuFwcwYpKt6JVCSvrNw5OTRb7tm+Oo3nDiCwJZzzLPHk5Ck48SBwWDiJrHvqmAwmKcCThwYDCZucOLAYDBxgxMHBoOJG5w4MBhM3ODEgcFg4gYnDgwGEzeJ/VuV6YEt5xjMDEnsxIEt5zOFTClclmZraDIGP4GMxBlLd+xamiEZuPLHy93KAqE684p5YiePbh5/ul7y2SWxpyrYcj5TiPSy9SsWiUM1v+qlu6vV3d+d/LS218sL15lnPHU7eXTz+Dzwks8uCdRVARas5ZwQyWTi8W1HSqTS8T8QJZYFib0jGc+FvOGIksilYpKUKDQqmdc0ZPV4Qz25QjFj7kwYz5CdfArz+Dzwks8uiT1VgQVqOUeSkkNvVrQd/fy+A5B25evfW+f69vfHmt08kbrx5YOK6x991cNEMZ4Hyscng8oL9hzarm46ddKy+Mi4Jltf/+UXDa7JOkIxIZbOhPGs2cmjmsfnhZd8dkn4xAEL0XLOu3vbDJsLs6R1LV5Fdq7K5VVlZ4qaO2hNboFk4MYgA0BlRTaeh8vHkbxg16HtmuZTn9cbGbjy4ddsoCZ7fLERYk7dmTCePTt5VPP4vPCSzy6JPVXxswAt5+Do7DZl5maJkDgvR9N5685wel4mCarsPM1QZy8NQEQ1ngfLx5Esr+bgdt3jL48/jCq2jBhzqs4sIDv5bPCEvOSzS8KfcSxMyzmAtbfLtiIvS8IVpOjbL3WpypcWpCjUebqBtj4vABDRjOfB8nEid9UGrY+0ADfF4StiTGaKziwgO/ls8IS85LNLYieOBWs5B+At3R3u/aWVkGXuueSzy/uZ54qWJKUa2r/18ADAxW4854buHv+4t+i1g/t2GD+9EGV3jBgTIHpnFoSdfPZ4Ql7y2SWxpyoL1nIOALypvQ8qV5U6evtdPG/q6xcvWZVv7up08gAAXBzGc5/HSxvunrhqKtu5e6kq8gl4lJjROyOw2p49O7kA88tLPrsk9hnHwrWcAwBn6O72LM/u6rMDAGfs6fGtSO/uGb8hyQ7EZzznbW0XTqe98sKetSMna4eF60SJGb0z4Ut79uzk4WHmmZd8dlmI6sBnyHI+daj4jOdzG/OZtJMHt5hHXvLZZSEmjnCw5Rwzj3gyXvLZBSeOILDlHDMfeBJe8tkFJw4MBhM3iX1XBYPBPBVw4sBgMHGDEwcGg4kbnDgwGEzc4MSBwWDiBicODAYTNzhxYDCYuEns36pMD2w5x2BmSGInDmw5DyM2Gbc8s2RxWYqUtg40t3SPCv1yI6Y4mAVLYk9VsOU8hKll3ACgqtz12svLUsDrk+ZvfuuljTnhAvMY4iSemBsziyT2dp8zy/mMHOVj1YCUabVKadgan9qQPr5QQSd4IFPLuAHEeeu2aVs+O3Hu27u3L5w5ddVRuDJPiuKNk4hibswskthTFZgjy7mw/DpWRzlVXvODZda7dOHyNAQyqbfl6lfnHo8yMRvSO1wRnOAhIHn+lDJuILIK822PPx2kCalSgdzWe1/+4V78cRJSzI2ZRRI+ccBcWM6F5ddxOMrJvNLUL4///jMbL05b++rBPeuNf7lqJGI1pN+0CDnBw646IJV2Shk3KFOSCJe78tW3lqaTvEhMd9eeO1Ov9/DxxUlIMTdmFknsqYqfubCcz8BRDgDAm1vuNdk4AN5nuF/bpywpSIogQxcqFHSCCxi6Y5BxI5FEJC0pT2k788E7H77/zvF68Zr927JFEET8Uu+EEHNjZpGEP+OYK8v59B3lAAC8w+kcP9KydptbJpcTYFLEakinBZzgXJihm49Bxs0zNMONNN6sM9E8gM/44Ebbiv35qWTf4KReKpY4ISSEmBsziyR24phLy/n0HeUkAFKr1AQ4OAAASquRu0ddXDyGdAEneIs7zNAdi4zbaTR7AMH4qwYIgiD4kNc88vFLvRNCzI2ZRRJ7qjKnlvOZOMqRpmz18iQKAKSZa6pzbS2dZj52Q7qgE1yAWGTcTO/jNtHiDSt1YgRInrlmc7GvrWOEDa4Ti9Q78cTcmFkksc845tZyPgNHOTfQMpS7/4ebRYRYZG+6cq7WxAHEbEiP4AQX6EEMMm568Mbx2m3PvfjX24AjOFvLza+uDjEhdWKJk3hibswsshDVgbNuOQ8mTKUtqtz3V8v7Pvq40SdXiGinK+hBzdgN6RGc4AIdiEnGTclkpM/jDZimhNaJIU5Cibkxs0hin3FMD4m9lr9d659w+5/XoCWS5I5OfdVyv+U8uaOTlkimG57nvA6heweIp12OsGk+8/+zd6fRbZznwfevexbsCwmSICmJi0iJoiRS1GZbkmXLlrckjhe5keLUdvz0adKTt07atE97znvaZumbnNPnnPQ0WxM7adpmd2K5tuPEsZ3Yia2FsiRbC0VSO7iTEEEQBIh9lvv9ABIEwRkQQxIQQF6/kw82OLhnhJiXZrD8EQnM/fYRxRtlpbsrHoAYnUw/gLmRfjESETNvk8U6VBJiia91K9t+IDXMvZn0/moMp8byxVZXV9uthvk3XNasIzdMnjHHNZe/rnbdb39v8oxZR1S+lGgBiN5aSnyugcBy/kWK3Ogb5dds2rS5pWGVLep6953TPRF8x8bytRIvVRBCi1Tcr6oghG4KHBwIIc04APDi24ARQlrgGQdCSDMcHAghzXBwIIQ0w8GBENKsiN85umfP3gOPPqaffovnmMf7nee+5R0bu7lHhdBKUCiDw2az3XvP/jfefDMczvZzrg8/9Mg3vv71Me/UpLjttt2ffeavvvmtr0/4fDk7zCyw5c07nBPnut3xm3kUCOVUoQwOURSsNvvBg4cOH34hy9lhMpmSUwMATp48odNxX/7iVxhm5sPbExP+X77ws66urpT7kYqdB/Zzxw+/l5uIHVO5ZV+bq/uiO674AdYc7x2hvCiUwREORw4ffuHgwUOaZkeao0ePHj16NPWW+rr6J5588otf+sfkLazebCtzVrM2i9kfCUenP6lKdFa7UQwGIuL0DazeyEuRKDGXWkloYjIuA+HNdisb9QeiUsoG1Fhi56ZvVMAY7CUGIeAPizT7vSdu5U02q06a9AeVvvgEoZuoUAYHLNHsSNPb11tSUpJyA1t96yMf2Wy3kPueqO498vzrXWHKO7c/fODOBl00zhuEnqMv//bMSIwC1/zIM9tC52j9OqveYg6de/24vOOuJhNntkLP7370UoePa37kmS3jx4XmW5wEjKbo5TdeeuO8J/UDp2x564cP7G80R0OSyRTteu353/eWZLl34Ct3PPSxO6rFQMxkY3rfPvzqBd9y/ogcKjYFNDgAIByOvPbaa5986ql79t/z699o7pVnQRo8+vxL/Kce417//u8GJABgV+87sIc79ZNvnPUKnGP7Y088umf4+38ckQCAqawI/eT7z47KZbs++emP7mr/8feedYvmzX/y6du3V3e+7QFg61qrfvPDf3/RJ+tW3f7xJx7ZfeO/jrqTu+IqGhqZrhe/d2IoCsZ1j3zqnl1dP3gru73Lxo3777ae++/njnslrmLb/dur7Z2+cTztQAWjsF6ONZmMDz74oHd8/O0/aO6VLwxbvXEjc+WMK260Wm1GwXVxwNTYUJZ4kkQevdQ1KgBIE8PuUKDf5REAaHh4yGe2WxL1PF/He90+CYDGh0+evG5dv6EspY0nuk+98mr7UJy3lDorLIxss1vTy3lqe6diKCRYazfUO82c5Dn72ze7cWqgglJAZxwmk/HgwUMAsFTXKdkgFovVVnv/43XJpypDkzemvwlAEqcL5kBleSphQymBqd9iOTgZnGmXT4SNZjMDE8mlbU377t/ftsYQnRgfnyAMnfuRINW9C67fHz5+1513PXF7KYxfP/vuH45e8+OlCiochTI4bsrUAAAaCk0Gun71g7cH56bJ58XYSuwMBGQAAL6k1BwZDc28VMLW3f7gFvGtH377gl8CUrL76cZV2e8daGT47Ou/OPs6Y3BuvPfQo/eNf/d/OvCLn1HBKJRLFY7jJwP+vEwNKgiisbTMzAIASCPdF+XNd+5w6gkAMdbf/Ymn71jNz7fEFGJv3d1WzgMQQ92eXY3+y5dTvzWBAIiRYFQGIKba7a2VbPZ7J2XbH3/6gSYzgBydGFfPmiN0kxTKGUcgEHjpZW298nA4XF5WnvpWjrnKy8rD4fDs26in4+SVzR/667/b9OZzPz/lH3r35SMPPvyJz+8RImDgJjrfeMWd7fd/SEMXhmo//swdOkbHB7rfePnkqDxzqiL1tv9+4NDHPvuX4ShhfFcGPBKb/d7Hr5wZavnoZz4XD1OjIXr97VcvBPF0AxUQsn37dpO1KNOBaW85VxSLxV5+5aX29mPpPyCsTseIsWS/m7AGs5mJTYazfssEv/nQ59tcz/78g5jJqhMmQ8p35E02MxubnIzNuhbJbu+MzmQxQDQYjuN7xVCBKZQzjgVobz+mMBGyRKX4rN9lKkWDc8PiWSBUCAfUT1GEcGBi7q3Z7V2OhwP4vnVUkPDSeaFk/+Dlfp84/4YILT9FfKmCELpZ8IwDIaQZDg6EkGY4OBBCmuHgQAhphoMDIaQZDg6EkGY4OBBCmuHgQAhpVsRvOQeAL/zTlyoqnBk28HhGv/LVf1b9sdYiedbbE3PjXfc0eI6+1enDD6ehZai4B0emoZCNeYrki9ieyqIkTrd/EFpu8FIFAChrtDtKTHx62Y/orCV2I5d+MwAQVm8ycAR4S6nDqmMAAAhvLnHYDFPVjUj/qT+euOqf2d5kd9gNLBDOYNKzMysQzmh3KOyD6Kx2mz6lJjS9vd5WXm7lUjZTOUKEcqm4zzgUL1XmuTxJx1Xe9vHPbCxlOKs5fOGV59+4NAkAoBIfT94pmwZ6m+vZ598PgmHVrY8e2FvHhKOM0H9moGwreeu7b/QyzY88szX4gbR2o53R2wy+Uy8+f6QnSgFAV7njoQP71ukiUd4EQyde+dWJvkiiur491sWu22Dynn7px8fcbOYjRCiXintwLPZSBQCYylXy8//5ncEoU7rz0NP33NJx5Q/Dcob0ecod52mgJ/B1+x+7jbT/8N/OeAW+4raDT7YwF6dXWL1K+ukPvjsc45x3PPHU3dsu9J4Yp9zqfQduN5796b+dHBXYktaHn3jsXs+zv7kaBQCmsiz0/He+MRSlAOzq/fMeIUI5s+IvVeTRrnODUQog+a5eG7M6StjM6fOUO87TQAcAAHbVhvVy17HzXgEABM8H710OJU8L5BvdHcMxCiCMXe3x20vtDABbvamZu3zs/VEBAKSJzmPnw+s31nFT23edG4pSgCyPEKGcKe4zjsW+qgIAIMSFRMqcSLIEBMg86fOk+RroAABAjEZDeCTZQpeDwTA1zdk1lSSJMAQAiNlsCg77p7engQk/W2PVE4gBgCRN71H1CPFiBeVFcQ+OJbhUUbKo9HnaUpOBoK28nAdfHACIrsxhJdGMuw6GLaV2BhJf3EbsJXYpNDnnyQv1PDpC+bDyLlWIuW7Hba1V+gzn9YtKn6ct5e7sCDbde//W2jJ7WW3bA7vqMg8fafjiRaH5zlur9ASAc2y5o81wuat3TppwCY8QoQUo7jOOhbyqwjo379lbc66vy+1WPa8XF5E+TyONHvvF4fjde+8/uIsP9Jx473zlvYaM2w+9+/K7Dz36+N/sEgVWF+tvf+ltVyynR4iQdisyHUgIodm8N0t7+lxxFV7HifHEEmzNfX/5MH3lubcG5rnEIJzRrBND8+15aY4QIa2K+4xjgbKaGrCI9HkKUrb7iU80Dx/5Q8dIRFe59e7N5Pqvbsz/xAQVI8EsQshLcYQIabcizzjyi7XV79yzranKxgtB9/Wz7e+7JrCNjoocDg6EkGYr71UVhNCi4eBACGmGgwMhpBkODoSQZjg4EEKa4eBACGmGgwMhpFkRv3N08+aWxz/+p3Z7pjeh+P3+X/zy511dnXk7KoRWgiIeHI8f+tOf/uQnvX29APC1r/3r3//93yV/lPzX+rr6J5986gtf+of0OxNDxdp1DasrrCQ81n+pq9cvgPboeZYWtmyODgahpVDElyr2EntiamTQ29drL0k/JSH66j2f+Is//8i2NWYAY9X2h//8M49tKWMTEfOta3QLC2mRip2PfXxXpcIDurBlF3UwCOVWEZ9xAMDXvvaviv88919TcDV3PnI7c/rH//HecIwCADlS/6FPPvbRbX0/Pp/YgLJGu10vTPrTPnPKGOwlBiHgD4sUAAirN/JSJMZay6x0whc32Mqc1azNYvZHwtGMH1YlOqvNEA8GYtKc2+1GKRhIrD/7R5zBqKOxcPpdELo5intwJC9PktcmlIIkC3abbdw3TghhCPPFL85uc/ANO1ukD54/NTyd1aKRviOvv7PNqmcAVKLnbHnrhw/sbzRHQ5LJFO167fnfXw/Oyo6/8ja5+yOb7RZy3xPVvUeef70rrDw5lAvmU1H1fY36SIQ1wuCxF391eiRlAcv6B558wHbmhZdOjS7xA4jQwhTx4PjNb34dF6KUAsewkiQBgCzLohSjFMZ942MHHyg//KZEpX/5v19NvRdTWuWUh857Uv/qpqH+M8cAgK9Qjp5zFQ2NTNeL3zsxFAXjukc+dc+urp63Rmdnx+H5l/hPPca9/v3fqac21ArmzOp9B+4wnvvZN06OxjnHzo89+cjuge+3J+5DLOvue+IB+9kX/ufUKH6oFhWKIh4c754fq9j/IwDwX/jWG2++QYGKUsy/q42NxKINa0S7xfvYvQbXYMCot504n7wX4XlWFFRjWbOj5/fWlbAwLIvuU6+8CsDoLKWlDgsj2+xWAqOzsuPZSBTMf51SMN/z1MY67uq1qk0bue5X3x+NA4A4/v4vv3OWSDJbBkBMjff86R1l51988SRODVRIinhw2Fo+5zvzLwBQsu3/PXny85IkUgpsJBZubrAdOa27MS5UOvz7bjFddKXeSw4GQsY6Ow+gfGKgED0HYmvad//+tjWG6MT4+ARhaHBq45nseDbUCubEbDaHRgLJYDmVJArAArC1e/eVxLgJIssqSyJ0cxTxqyqssULwXRR8F1ljxcSET5JEAIg2rLEfeV8/7CGSpBv22P94OtqwJvVeNNDr8tVs2WhLebmCr7vvLz734Ua12C9bd/uDW8TjP/z2N773wx+/+M6VyQUecLJgnpAsmNNQKGQtsU9XjAnL63kGAEAaOfrz//j5SXbvgf1rDfjyCiogxTo4yvb8KwBUPfjbqgd/m/zXsYMPCA47P+pNbsaPjQsO+9jBB2buScfef/eyY/+hj25dZeWBcJaanR95uE3oODe3JT6NAIiRYFQGIKba7a2ViqFyKgiisbTMnPihUktdrWAuDXdfjG+cup0vu+Xj/89TtzoIAEA8EhVG2l95Y2zDow+12nF0oIJRrJcqfOkm92sfSf5rYnyUH37T+9i9QrlD5576CkbBWcaP+8teeivlrjR87Y2f/mbfh+86+LkPGxkCsdHuYy8cfm9EApVTDqm3/fcDhz722b8MRwnjuzLgkZQmB/V0nLyy+UN//Xeb3nzu56dCSi11tYK5NPTuy0ceeuTxv7lNiDI6wfXOi6fGKFROLxzofO3Xqz554GN7PT8+OoIpc1QIijUdWPXgb9MGR+JfQ1ubwxsb7O+e5m+MxysdgTtvMV1ymc9dUlyE0ZuMEAvHpGyepeBNNjMbm5zM+FYKwup0jBgTZMjQUlcrmBPOaDHIoVBMxmQ5KnDFesahRjLqTRddk7vaBIedH/ebLrkko15tYzkWDmW9shAOTMy7EZXiycGi2lJXK5hTMTIZVLgdoYJTrIND8HUnLk+S/5r4h8Qrr+Zzl8YOPjD7CgUhtGSK9VIFIXQTFeurKgihmwgHB0JIMxwcCCHNcHAghDTDwYEQ0gwHB0JIMxwcCCHNivUNYICVc4RuniIeHEVTOV9ChX+EaGUo4kuVoqmcLyFMn6PCUMRnHFAklXNWZ9STeDJQTniDkRUj0UTKXHHNKDGXWkloYjIuA+HNdisb9QeiGDhHhaO4B4dS5VyWZMlms/p8vsKonBPd+g89s9vzo/88NkoBgF9736c+Kv36u28OliivuS10jtavs+ot5tC514/LO+5qMnFmK/T87kcvdfjy8aAiNL/iHhxpZCoJogCU+ny+gqmc08i17uv33bG5on10VAa+ZvM6ofvFQVF9zYrQT77/7KhctuuTn/7orvYff+9Zt2je/Cefvn17defbntw/iAhloYif40hDqSyIQmDXltDWZu9j9yYq56GtzaPbNqRupqlybnWUsAAguk+98mr7UJy3lDorpivnkHXlPHb9/FVD8yYnA8DXbVwX6b7gltTXHL3UNSoASBPD7lCg3+URAGh4eMhntlvwqQ1UKJbPGYckS0BpQVbOxd4LV7gPb6w+Om7euDbQ9fyonGlNMbkmleWpGBClJOuYOkK5t3wGhyxLMF051w17ACBROZ/c05aaDqSBXpdv75aNts6zgelfRb7uvj97mHv7OZXuT6Jy/tYPv33BLwEp2f104yqNxyYNdV4kH91UN2Jd67twxEuXYk2EbqLldKlCC7dyLrkvXJQ2P3DX2tGu7kD2ayJUoIr4jMM/4a+vq099K0cBV87l0c7u4J7dk8euhGj2ayJUoIo4HZj2lvO/+utnoIAr56T0tv/1ycoTz716KaZxTYQKTxEPDkWB3VPfHZuonBtcg9Ls7469CYh59Yb1G7bv3XDjlf94exC/AxYtA0V8qaKoECvnXEnN+hpD35u/PIlTAy0Ty+2MAyGUB8vnVRWEUN7g4EAIaYaDAyGkGQ4OhJBmODgQQprh4EAIaVbc7+NoaWk9dOjxEnuJ4k8nJiZ+8cufdXd35/moEFr2intwfPzQJ/7rv3/Q0+NS/OnatQ1/9vT//uKX/ynPR4XQslfclyp2u11tagBAT4+rpLR04auz5c23bqrSLXyBfCiKg0TLTnEPjtwqiqR4URwkWnaK+1Il6Qv/9KWKCmfyXz2e0a989Z8Vt9TQHE8irN7Iy5GpdjmjMxpSVgAgOqvdKAYDkVn3IrzJZtVJk/6gkP7hW+yeo2K3TAaH2pj45QvPz75BoTn+kPzr77yh1BxP3olrfuSZNtezz78fpABM9d6nHuNe/+7vBiQA3rn94QN3Nuiicd4g9Bx9+bdnRmIUgK/c8dDH7qgWAzGTjel9+/CrF3xSxmPA7jkqLstkcNx55z6z2XLt+tWrV64kbklUzo8fPzZ7Qxq51nXtvjtTm+NdGZrjmbGr9x3Yw536yTfOegXOsf2xJx7dM/z9P47Ixo3777ae++/njnslrmKRXJRDAAAgAElEQVTb/dur7Z2+8ZnTDuyeo6K3fJ7joLI80N8f2N2WVjkP7G6btV3M1XFFn21zPCO2euNG5soZV9xotdqMguvigKmxoYwAFUMhwVq7od5p5iTP2d++2T2edrGC3XNU5JbJGceRI+8m/mHeyjmA2NuZfXM8E2KxWG219z9eJ0/fEpq8wRIAwfX7w8fvuvOuJ24vhfHrZ9/9w9Fr/tnPR2D3HBW3ZTI4vvBPX/r2d7414fPNWzkHAGmoswseSjTHO7NqjssUOI6f+j3l9ToiAQDQUGgy0PWrH7w9mP4sJY0Mn339F2dfZwzOjfceevS+8e/+T0d41q85ds9RUVsmlypf+eo/T/h8WVXOAUByd3aLGprj0rjH72zZVmfmDOXr79i7wZi4QpBGui/Km+/c4dQTAGKsv/sTT9+xmgcgZdsff/qBJjOAHJ0YnxQIxzHYPUfLyjI540jIrnIOANTT1RXYuzd07Eowm+a4PHrq9+83PPr4/9ktT/aefO+yf+pdZeLQuy8fefDhT3x+jxABAzfR+cYrbgEAxq+cGWr56Gc+Fw9ToyF6/e1XLwQpcNg9R8tHcacD/78vf/W/f/RfqW8e1VQ5TzNPc5ywOh6E+NwkOmENZjMTm5z95faMzmQxQDQYjiefAsHuOVouivuM4xcv/PzP/tefl5SUAMC4b/xf/uWrAaPedNE1uastUTk3XXJJRn2WqwnhwESGH1MpHlf5QTQYmHOrHA8H0rZPTo2p7vkths5XrsVmbTLPMSBUGIr7jCODxPs4bvZRqOBX7/rQdsf4pfdOXh3H8DkqQst2cCCEcmeZvKqCEMonHBwIIc1wcCCENMPBgRDSDAcHQkgzHBwIIc1wcCCENCuId47u3XvnIw8/qtdPvcXTO+b9zrP/PjY2b0gHIXRzFMTgePDBh77+jX/zjk19qvW223Z99pnPfvNbX/f5lqiMx5Y373BOnOt2K79nHCGkzRIPDpvNJopCOBxJvdFkMnIcHwjM/TzHFLPJlJwaAHDy5Hs6Hf/PX/5q6jZ+v/8Xv/x5V1fnQg6Lqdyyr83VfdEdx/YNQktgiQfHPffcY7PZDh9+ITk7TCbjwYOHAoHAyy+/nP06R48ePXr0aOot9XX1Tz751Be+9A/JWwqhV47QyrTEg+PNN984ePDQwYOHErMjMTUSt2tdilJZkiVJloBSQsi161dkKqf8vBB65QitUEv8qko4HDl8+AUAOHjwUHl5eWJqpJ6AZEmmUlyMS5IIlI4dfIBSKsnSv/zf1IsXGrnWdc3SvLmCAYCpXnnHTCv8m9/7wb8/91vPhnt2rcriz5jslX/7uW9+68fv8Xse3VPFApBEr/wnz33vv37w7Z+djq2qtmMeGKFcvBybnB2ffOopWNDUoFQWRCGwa0tar3x024ZZ2xVCrxyhFSknr6okZsc9++95+w9va50aAJC4PCmSXjlCK1GuXo4NhyO//s1vFnZfWZYAoFh65QitQIX4zlFKaUH3yhFa8QriDWChcLisvCz5Vg4CpKB75QiteAWRDkx7y/nhw788euxIQffKEVrZCmJwKArsbmMjsWjDmkSv3OAalIx624nzN/u4EEIFPDiSCrpXjtCKVATP9eHUQKjQFMHgQAgVGhwcCCHNcHAghDTDwYEQ0gwHB0JIMxwcCCHNcHAghDQriM+qLMyePXsPPPpY8o3qYx7vd577lnds7OYeFUIrQREPjocfeuQbX//6mHdqUtx22+7PPvNX3/zW1yeWqo2eBcIHVlVK40OlkSX97FuOlkVoqRTE4FhYG91kMiWnBgCcPHlCp+O+/MWvMMxM8mtiwv/LF37W1dWVi8MGANBN1DXEI8NL/Rueo2URWiIFMThy2kZ/4sknv/ilf5y5icgcL8sCy+ijBtAFo4mP3VPWENdJfFRg6KzNOOBiRpaJxHh5Vvhc1hnirKCPph+C2jrz7W6eZREqLAUxOJawjZ6mt6+3pKRk1k2Mt3XvsOim5c54qH/TaZeFsY60tPaVc6zISpK3rqO7OiAmNhuJDTBlVVHCxvnIqnMf1HtFAADOPrRlS38pcCJhx4ctySeYWdV1stid+rIIFaCCGByJRmlidrz22msPPvggLKhynC0SMsVaj75rFSkAM9m4ZZDpa3tn0Cgx0TVtHVvWWtqvWmUAIEE7bT1xzCoyocYdHevWVI33Gig7sb51kPRufWfAKLHh+raOVaQcIPM6WexObVmEClKh/LW2+Da6BtTiHrZMfXGTzVNJHINjDK+PGXjiddt1ZT5T4kkSap7aTDJ5vHqTKUIAGJvXCRWuIaMEAJJpoN8Rn3+d+XentixChakgzjgSFtlG14JQefoJVF3coPc3b59Ixr1iUfP0NGUkaWozmRJI/CMv8HFrbPq3Wo7pY1SYb50sdqe2LEIFqYAGByyujb5AcV0s5rzw3tqJLLOAAh/XR4wEwlPfNBkzEEbDOiqbMWrLIlSQVvp/nXKg/IbsaVwT4ggAERzrO29tCLAZt/dQb0NtiAUgXLCu3ssRDeuobaa2LEKFqbDOODQJh8PlZeWpb+WYq7ysPBwOZ1pFtl3rqN3U0rlvLRFAYiPO7gvWTF+5JNmvdtRu3tJxdz0rydxof2WgVtawjtpmassiVJCKoDmqJu0t54pisdjLr7zU3n5s3tUYPsYTLh5ns3tSknL6OCPq4lL6iUGW66hsprosQgWliAcHQuhmWenPcSCEFgAHB0JIMxwcCCHNcHAghDTDwYEQ0gwHB0JIMxwcCCHNcHAghDTDwYEQ0qyIP6uyMNhGR2jxVtzgyHkbnYk41wSjQxWBTB+VQ6i4FfHgKNA2OgmuXuf23sDBgZazIh4c+WyjM6zAETYuTj0lRFiRZ4ggJD7bKvOGOCfp5ibLOV6mAifRxF0EnnBxMTmelEPnhBUMekmO6WP4AVlUwIr4ydFEA/3gwUMmkxGmpwbkpo3OVlzbu3PQMh0SdGw4u3tdkIBsXnVl952n92zvuuX207uax/Wpv+yMt3XvxdW6xL9QW0PHbesmEw83ax1p23Pyrls7bt176vYtI7ap6S1bay7dvvfcttbu3XvPbFkVLeL/b9ByV8T/cSb7xgcPHiovL09MjRxVjoUx55h+rNpCAQBYf3U5cQ/bZCZcVgbu8zuOtO84enxd0Omqs2VR80iEzvvb3jlyy7vvbu1lB7asnWQACO9Zvz429P7O9pPbj7y/WrQFDHjOgQpVEQ8OyGcbXSwZ9kjOyhABYB2eCqFiOEBAtvRfaOrxs4w+arEIhApGw/yDQy10TmU+LsYcTp9VJ9NQVfclZxhD56hQFfFzHAn5aqOz4yMOdtOYzWXUOSci7tYgBSCxisbrTasnOUEfDhsI0Fg2v+pqoXPJcfl8zbrG3h1roxAuHby21jVmwHwgKkxFPzggX2102e8coZerHGZ9mWHEZaAATOlAyyr28qlbhiMMkGj9Lb45JTWZsBSAAFCWk0hirKj30AV/9cUz1ReJaKl0bWt1hY9vGo7n+o+F0EIU96VKXskWt5utau4tC1a6o9NPP8hsTGAAKF8ysso6+3xDNk1Gw6tWB3SMaKkYaHAKifuohc6JeWT7rdecOgqUi4R1MpEZfI4DFarlcMahySLa6CTorog2DAjXp75mTfbVXPJ1tt1xWhAphMsmgrO/CoWa+y5Vl225cHc9ifvW9IzqjYnb1ULnYceAf7Tl9tMbBMJz7NiVDSOxJftTI7S0VlyseGnb6ACU5WM6hovFOOXnI4jMMiBLzNxnPxRD54SN63kQYjoJnxlFBWzFDQ6E0OLhcxwIIc1wcCCENMPBgRDSDAcHQkgzHBwIIc1wcCCENMPBgRDSDAcHQkgzHBwIIc1W3GdVFgbb6AilwsGRlZy30RcGi+roJllxgyO/bXRqqbncxNSc7TPn5DNr8xTVc7x3tIKtuMGR1zY6JxjMQSsT1en04nTuXKFvTmSOl2WBJbqYHrhIjKMArC5qYLhIlJNnNuCAixlYNhpV+STu7N56tntPHALW1ZEWK25wvPnmGwcPHjp48FBiduSyjU5ttZc2VsX0xLXTZnedaRqJA2sdaWntK+dYkZUkb11Hd3VATPTQR+JDxFEe4/RCbKixh7rXVcQZXRzGG093VIYZb+ted7iHc9YGAUS9UHaxo3EoyKbsSzavurZlnU8nclQnCu71Zy6XGrPcO8jWmittDZNylNUZ6PjVzZ3DmCxE81hxgyPRKE3Mjtdee+3BBx+EXFWOyYSrtYM9s4Vdf+KSTYbpvnlf2zuDRomJrmnr2LLW0n7VKgMACZrjbe3HzdQ0eMueq/U9be3HLbLOs2V3/xqb80oQgPFXW9efOroxTEX72u6dLUOTJ2tnrqyme+u9fg54b8tuV93IjivZ7Z0m6uond/aECGN2N9cEDCMG7CSjzFbiy7H5a6PPptY3BwCgllG3SQKQo9bJmH7ca5YAqGANRASDngIAUMNwnzMsA1DO37faY/A6U5+4yKK3jnV1tIRW3BlHQr7a6LOp9c0BAIgszzy5QKd/dWUASPwz1cWSJUFZHxFEnQ4geeDZ9Naxro6WzgodHJCvNjoAzMwD9b55FqvEjAYKiUgyGzXxXDAlgJ6ht57N3rGujrRaiZcq+SRLhDdGdAyAet88KyRWXX/DwgIQwbF2sDxaPhqa/fKHUm89m71jXR0twMo949BkoW10EhyuGa2+uu/u0UvtLX0Rlb55NmTbiN+/be8Ax4hMpPxix+rJ1Kc4lHvr2e0d6+pIO4wVZ2VRbXRCWVaWxZmauWLfPBPWs22f23u8ZUAU9SwTU76jSm89u71jXR1pgmccWWlvP5bdtyUooUQSZ12RyIJ+QX+pEyrxUdVTFCIJBoWnebPbO5V06isjlA6f4ygGVD8xag/jSx2oYOAZRzGQbT2dtpt9EAjNwDMOhJBmODgQQprh4EAIaYaDAyGkGQ4OhJBmODgQQprh4EAIaYbv48itNoP+6dLSUk75s2w+UfqRz3c+ih8OQUUGB0dufdJR+r1r164Hg4o/bbRY/mLduv8z7M7zUS0lldI64SZrNrrq7OL45bZur1BRRDV2bMdnAS9VcsvBsompcU9FRa3JlLixxmjc73QCwPVg0MFm+8H6AkWCq9e5S9L/AqKmNa4mY0nXmZar4xxV3qZQFdfR3iQ4OPKFkE/W1SVKF0/U1rJk3uiFzBuiRn66C0ZkTicyhHKGiMUw/VchkXXGqJGjQCSel1L+v6SsIabnMn3QlWEFPvkxWkbUJe9OZE4nsik1svSlFI8kuSwX13Eyw8WNBkEIWkIiIyl8xCZ9zSwPhrCC0RTVK302mGEFXcqnggkr6vhkr135kWT1UZNeTNzI6qJmg4i/DNnDuZon73g8d1dU3OpwxGXZxvN/GB1V33ZustwRY7yte4dFNy13xkP9m067LJx9qLW1r5TwIsP4BuzmNXD52LpxGVjrSMuWvgqWFVgRJtZc6KwZFxT2wVVduaPacfyD6iilptrOvY26riObhgQg1v7btsYvH28ak1SWSjuSvuSSVF9xfWdzbPBsU2h196ZEYN1u7T+/YSDlORzFNbM4mHlS7GzFtTvqzSdP1gYpAMiODWc3y03HLllNyo9kxqb8Yv+vXhFwcOSJROnhwcHHa2risvzS0JBE1U8HFJLlpVeCACRkirUefdcqUgB2Yv2WIdKz7Z1Bo8SG67Z2VJNyAAAmsG5LPz/Y+sc+s8REV7V0bGkyH+t2iHP2Jow5Ak0+B1c9LMbLHfG4EC8rlYZGGVPZhN5X45PUl4K0I0l8lJ/qy107mmOD55r7gixc3npeTgmsJ6/GVNac92DIfCl2Yczp2dBXbam5OkmA9VeXkxvnbTITUnkk52vKo/ng2Vn+nPf7x+PxmCy/n/mLI9WS5dTiHrYkRgBj81bQctewUQIAyTTQWxafun2skil3DZglAJANI64qocLjYIBwgZomV3Ozq7nZ1dzkLmGBxh2e4GR5qUQ4f5mp5GqPuaRskiHxsrKY12OX1JdKO5IEvrxnx8bI0PnmvslMT9morTnvwcyfYhdLhj2SszJEAFiHp0KoGA6QDI/kPE15NB8848ir3nBYz8w3rFWT5YQmS+g6gY9bkylzGtfFqQAAoI/rYtZo8vaoIcL49RxQkY1H9VxizzInAgDVecb0dWUBnk5YAqWdY8KqGp9VFyu3WN1eLsNSIM4+EgBg/A2NUZHRM/J8T9yorRmb72DmT7Gz4yMOduOYzWXUOSci7tYgzfRIztOUR/PBwVFwMiTLZ0T1MUPIzEBYAgBgTRED4QAAYrq4PmogkPgLmRiiRlkXEwEk841+8+wlSHjMIbSNr4FAyFsvRsVx6Url6pg9UNYpQqal5pItrg9aPM6uW9p6AqcavUpPqUxRXXO+g8kixS77nTfI5SqHWV9mHHYZaJaPJFoQvFTJq65A4LzfP/92SsnyWT+frByOjW9ovlFqjplL3Rvr/Ym/QOVAhVsea6wNcgSAia5qvMGNVoyrvB+BBkvH6GhDlW7My1NqHBsXa+sngh67QLUuxQoiF+jdcDHobd18w6h+2pFhzcwHo5xiJ3FHzeAq29QrIyBbht1MVXNvWdB5I5p8RWWeRxItDJ5x5Na4JDVaLMk3gHUHAqk/bbRYxqX030WVZHnaRibXmU3i+v7mrf1s1NHTW2ndIAIAyNbr5+s2t3beVc/IjCT4as5fdSieJQAAUItnjKsvLfXGCABMekvEutDY2PRVvqalAIAaRrqa7Ldeamswn75uVt4mw5oZD4YqptiZcNXagdKhkpGABQAASNBdEV87GL3uSDzjk9UjiRYEK+e5tdC3nKsky1MQVmJkNhElZ0pce1vgQnuDL/lmCD7OyXx8Kb56fgmXWuSaCil2QgklM/9mGrr1lmDv8Q03Zibc/I8kWgA848it89HY344s4B3lKsnymZ9H6ndccAbqrg5bBTa4Zv0oeJsDKb8ZsqBbqi9jW8KlFrmmQoo9OTVI3F4x7qwZ4keaPbPOi+Z7JNGC4OAoTtTY19Ekrx1pbB5hZP3k6IbT/SUr+qMVTLS0IsCPN57ps+GZRR7gpQpCSDN8tgghpBkODoSQZjg4EEKa4eBACGmGgwMhpBkODoSQZjg4EEKa4RvAcgsr52hZwsGRW0tZOZ+3vk3ipavHmbFKbzSLz4DkuuWNrfBlDS9VcmspK+fz17fj5XUDTuNSrbY42Apf1nBw5IvWyrlqwTxJNWVOuJjJFGfT9zA79q0EW+EoS/g3Qp5oqZwDr1gwT9lAPWVOdeXXd7WOc1TWE0vvhQ3XfTxVzKYr7Rdb4ShLODjyREPlXK1gnpShPw5xp4M/3X7rhEiNVVdube0JnGgalVSy6XNgKxxlCc8r8yfLyrlawTxlA/X+OLDe/tUTIgCQyI01Q4KvskRWjX3Pha1wlB0848irrCrnagXzJLVWeBwAuGgs+WyrLhKT7TqJEKFcOfY9F7bCUVZwcBQetYJ5Uqb+uGA0iAR4CgAQMxuZeIwlpX3Zx76xFY6ygZcqeZVN5VytYD6zQab+OHXUDjh4CiCbV/WvZkvdEwxAxtg3tsKRdnjGkVsLqJyrFsxnNsjQCjcMucn63adaiczLtusda8dEoJlj3wRb4UgzTAfm1sLecp65YJ6k1gonjKjTgRBN7XpnjH1jKxxphGccubWQyvl8BfMktVY4lblYNH3RTLFvbIUjjXBwFJ6bWDDHVjjKDl6qIIQ0w+e5EEKa4eBACGmGgwMhpBkODoSQZjg4EEKa4eBACGmGgwMhpBm+ASy3sHKOliUcHLm1gMo50Y+vWzcRcK29EckiVp4jWhvlmgLri4cJ9ZsNL1VyayGVc0ooZTKkBTWilppL2+tC2n6hNTfKtQTWFw8T6jcbDo58ybpyTgV777U13hhJlMSTsXLCCrpE03yqMA4MHzOlVMUVG+UsJxjMQas5qktZKlFIn1U8n66Wc4aIxZD8e5wyfMxkTAmmqx1S8ufKgXXVw8OEepHCoZ0nGirnjLd1r9t7vLVfnP6HGABQW0PHFnb98Us2mfG27nWHezhnbRBA1AtlFzsah4KsUqN8/YV4/8aqmJ64dtrsrjNNI3FgrSMtrX3lHCuykuSt6+iuDoiJnQ6LblrujIf6N53uAwDZWtd9e2WEMHGd4Ow40zgaJTPHlnZIACqB9RmYUF9OcHDkiYbKeTYYf7V1/amjG8NUtK/t3tkyNHmyNqDQKLf7/K0d7Jkt7PoTiV9vZrJxyyDT1/bOoFFiomvaOrastbRftcoAQEKmWOvRd60iBWAjQII2ufW9YzaBRGu2nttQU+m5mjn+pRRYT4mlYkJ9OcFTv/zJsnKeFWoY7nOGZQDK+ftWewxep5kqN8pnY2yeSuIYHGN4fczAE6/brivzmRJbUYt72CImZwO1uIetAgWQ9WNjJr0pOt9/K0qB9VSYUF9G8Iwjr7KqnGeD6mLJ13BlfUQQdTpQbpSn0cUNen/z9onk73Qsap4+IEJnfc0bI009BUEkygCZ99dVKbAOTMrdMKG+fODgKHAyYSkAAaAsJ6Xk/WJGA4XEa59s1MRzwTiAUqN8avPkenFdLOa88N7aiYWHelQOSSmwnvY7jgn1ZQMvVfIqm8r5DNk0GQ2vWh3QMaKlYqDBKaS8CBKrrr9hYQGI4Fg7WB4tH0283qrUKJclwhsjukTtPFB+Q/Y0rglxBIAIjvWdtzYEsv7a64yHpBhYx4T6MoVnHLm1kMp5EjX3Xaou23Lh7noS963pGdXPvE9Cto34/dv2DnCMyETKL3asnpw+w09rlAOQ4HDNaPXVfXePXmpv6YvYrnXUbmrp3LeWCCCxEWf3BauGd1FlOCSlwDowmFBfnjAdmFsLecs5N7r9ztHRYy2DiRIxkVkGZCnlyQLWs22f23u8ZUAU9SwTi8+6IlBqlAMQyrKyLM5syfAxnnDxePrVRFbmHlLyJ3MD65hQX47wjCO3tFbOCReqanDb49bryRcyKaNyUkKoxEdTf6TaKAegRBJnDS9Z0C/8EzKqh6QUWMeE+nKEg6PAcBELU3Lp3OpAhjMBqp8YtYfn/u1c4I3yAj88pAVeqiCENMOnohBCmuHgQAhphoMDIaQZDg6EkGY4OBBCmuHgQAhphoMDIaQZvgEst7ByjpYlHBy5tYDKuXrCm/K2sdUVQT3o/B7njQCPnyQtOCsmv46XKrm1kMq5csKbGlddun3bkBX4OATXbju7tTo/30Sg1YKi6kW2R3UrJr+OgyNfsq6cp2G4uI6TgUSraiYCVzd3Xl/Tc33D+1ctjlqPOaU2bjRF9fN90lVlsznF85nbo0adlFYeT8ugp92XUY6qz7WQxafNSqKr7JGyhpg+tcCuvAsAzK8vyAqYjYVBQ+V8BtVXXN/ZHBs829wXmpXSAwAqsxIAgGytudLWMClHWZ2Bjl/d3DlsUPoImfJmysXzmds5gRFhovbchVUBmJ1Bd1kYhftSW+2ltKj6XAtdHABkc3oSvdQ4Z4+sdaRlS18FywqsCBNrLnTWjAtzMu4uS3KoYH59AXBw5In2yjnVl7t2NMcGzzX3BVkAdvh6VdXGixv1FUESrK4SBi9VRCkQ3rN+fWzo5M6eEGHM7uaagGHEEJ6ztvJmRKV4zkyua+3nh1rf6TNLTKSmraN1rb29Z3YGXaWWPuGaHVWfaxGLy0x4ThJ9x5W0PTKBdVv6+cHWP/aZJSa6qqVjS5P5WLdDhNm7SIH59QXAwZE/5/3++ysreYbJpnLOl/fsaIgMnd/YN5l4EoQShogQt5f4eYjqgE9kLqjMx8WYw+kbGyoJhqq6LwEAEC6wpmFsqkEsm9zXqyaUNmPsnkriuDTG8PoYD8TrtjfV+UzXrGGbp5Ip7xwwSwAgGwfO3ToEQJlwagY9UUufe9+0PPLcIwlYF7G4bOm/0ARAWX3UZJpOovtnnYgxtrGU9Q0jrqq1Oz0OxjEKczLuSWLJsMe1oTJ0bdLCODwVQsX7AQJUaV/Bmfw6RK2TMb3kNUsAIFgDEcGqp4CDA+VCtpVzxt/QGBUZPZO8uObGmzd5Ip1bz4xzFIB3XNvV0uNv3zAqOi6fr1nX2LtjbRTCpYPX1rrGDDJl41E9N/XryokAIClsplo818V1cWt05nsSyPQGKRn0TLX0GXTukSxmcdUkegp9XBebWZ9GDRHGr+cAxNm7mAXz65rh4ChIssX1QYvH2XVLW0/gVKNXADBN2ljrlYmpp/uECccE02M30dEAEfzVF89UXySipdK1rdUVPr5pOG6+0W9OW3LuZm6V4jkT18X1EQOBxCUPYSSWMGlFscy19JlfLCn9SBazOONQTaLP7DGmi+ujM+sbokZZF0vfQTrMr2u10p4MvsmyrpyzgsgFejdcDHpbN98wEoCwNSD7V68KcwSAiJbV7jJq9YcJMY9sv/WaU0eBcpGwTiYyo/R3quJmasVzOVBxQxprrAtyBICN1G57/5ba9Jd+M9TSU6Pqcy1yccUk+uyMe4VbHmusDXIEgImuarzBjVaMz31XBebXFwfPOHJrcZVzw0hXk/3WS20N5tPXyy52hFs3nb+7iZFAIpGy6+fXekSgkmPAP9py++kNAuE5duzKhhGlt6HSsOJmKsVz2XrtQv3mls676liBSLK37ly/Mf3yXVarpadF1ee+lrqIxZWT6Gl7tF4/X7e5tfOuekZmJMFXc/6qQ+GEg2B+fVEwHZhbS/6Wc4aLc8AJ4qzCOGHjeh6EmE7K+Pei2mZqxXOGj/GUj4sKNfN57jsnqq58x4UsrpJEV8i4xzmZj0vqbybB/Poi4OBAK95Ufr2/crK5/QqGlLOClypoxcP8unY4ONCKJ9l6u2w3+yCKDD7jgxDSDAcHQkgzHBwIIc1wcCCENMPBgRDSDAcHQkgzHBwIIc3wfRy5hZVztCzh4MitJa2cL87Cls1ntnvFJAwrrd0AACAASURBVMKXAbxUya2lq5wv2sKWzWe2e8UkwpcBHBz5ssjK+ZQ5VfFMhe7ZJfF0czrgU2Z3vTMdzLwHgInwZQvHe54stnIeVC6SqxS67YxCSXyGcgdcoSHuiKkczMxSmAhfkXBw5MliK+cq4W+VQvfkBsWSeIJaB5zMbYiXTme705LrMzARvjLhSWL+nPf7x+PxmCxnWznfGBk635yonCfC34NjDK+PGXjiddt1ZT4TSRS6JWdliACwDk+FUDEcIIzNU8mUu1JK4ieum2YKN7axlJ8aRlxVQoXHwQDIlv4LTT1+ltFHLZbprrfSwcyidACqS00nwuWodTKmH/eaJQAqWAMRwaDHNl8xwTOOvFpw5Vy9Kq5Q6CaqJXEAUO+Ayypd77kHMwsmwlciHBwFaW7lXL0qPrfQTTKXxFU64Kpd77kHM98BYCJ82cNLlbxacOU8Y/g7vdCduSSeqQOu3PWek1zHRPiKh2ccubV0lXO1qjjMLXTPUxKXVTrgmbveqQfTI2IifIXDWHFuLX3lXKkqrlTont5YvSSu1AHPuuuNifCVDc84cut8NPa3I+75t8uaLOhnjZmpQvcQP9LsmfP1Iekbp/9UN+fL5IkkGCLZHEdyaqgeQNZLoSKEg6PI3fRC900/AHQz4KUKQkgzfNIKIaQZDg6EkGY4OBBCmuHgQAhphoMDIaQZDg6EkGY4OBBCmuEbwHILK+doWcLBkVsLqZwvb8soZU50vnVN48HrDSORbAuyOZTfBxYvVXJrIZXzIkYtNZe214Uy/Rotq5Q5kWWmUN5on98HFgdHvmRfOZ+qgQPDx8wGgUnfULFCPutG5fL4dGScM0QshuTfSunZdHWKzfTZ++UEgzloNUd1OpElytsoLasUWyeyzhg1chSIxPMSM/2wJJclrKCbda9s/yCEFYymqJ5N2+Ocu89+uBQfUhBsfddqxmZSJ4oPUaYDK95G/DKZ/IVPQ+Wc8bbuHYkNMGVVUcLG+ciqcx/Ue0VQrpBThRvlimt7682nUsrjLbTp6JV4695h0U3LnfFQ/6bTLgujlE1XxM5tpktz91tqrL20sSqmJ66dNrvrTNNIPHM2XS22Drx9qLW1r5TwIsP4BuzmNXD52Lpx4m3d6/Yeb+2PAQC1NXRsYdcfv2STQbn/rkS21lxpa5iUo6zOQMevbu4cNqjenfGmPlznwgMqD+nUISk9RPMfWPE24nFw5Im2yjkJ2mnriWNWkQk17uhYt6ZqvNdAGaUK+aTSjWPOsdnlcfd5mwxjQEKmWOvRd60iBbVsusKJNzO5bm4z3UXn7HfHFVdrB3tmC7v+xCWbDACKB5x8tkctts5MrN8yRHq2vTNolNhw3daOalKe6bHK+g9CeM/69bGhkzt7QoQxu5trAoYRQ5io3z314eJUHtJMD5E874EVbyMeL1XyR0PlnJrdwxaRAkgmj1dvMkUIqFTIFW9ULI8DALVMLaueTSdcoKbJ1dzsam52NTe5S1hQbqarJ9FnZNxGLbbO2LwVtNw1bJQAQDIN9JbFM87Y7P8gVObjYszh9Fl1Mg1VdV9yhql6Pn72w6X6kCaPYc5DRDKsnFS0jXg848irbCvnwEjTl7oyJZD4R8V0uHJPnB0fcbCbZpfHAQAInS+bTikbj+q5xDHKnAgAis101Y55iszbqMXWdQIftya3pHFdnM7pI6fK/g8iOS6fr1nX2LtjbRTCpYPX1rrGDOr5+NkPl+pDOnUMcx8iJtPKScXaiMfBUTQU0+FqPXHZ7xyhifK4YcQ192RAPZsumW/0m2ftV6mZLttVO+YzX0+ZuXWuEluHqD5mCJkZCEsAAKwpYiDJ/0plwlIAAkBZTppqkGX9BwEAwV998Uz1RSJaKl3bWl3h45vc6vn4NJkeUsWHKLuVi7QRj5cqeZV15VyFYjpc+UaL281WNfeWBSvdUYVn9DNl09O3VGmmK+1XlghvjOiS/1mpt87VYuvyZOVwbHxD841Sc8xc6t5Y758+9TJNRsOrVgd0jGipGGhwCkTjH4SYR7bfes2po0C5SFgnE5nJnI9PfyBUH1LFh4iqrbwsGvF4xpFbi6qcz6aYDlfviZOguyLaMCAk0+fpy2XIpqdtqdBMl2TF/ZLgcM1o9dV9d49eam/py9w6V4utyybXmU3i+v7mrf1s1NHTW2ndIAIAUHPfpeqyLRfuridx35qeUb1R4x+Ehh0D/tGW209vEAjPsWNXNozEACDrxyHDQ6qYlZeNyiuT8DJoxGM6MLeW+i3niunwRfXEFbPpqlvOaqar7JdQlpVlMbHg/Mc2N7ZOWImRWSnxJG6Ja28LXGhv8CXuT2SWAVlS6LZn+QchbFzPgxDTSbO3y/5xyEAxK6+wcvE34nFwoAJDImtvueAM1F0dtgpscM16V8Vk8/GLJcX/DnUlU434/srJ5vYrxVR7xksVVGCosa+jSV470tg8wsj6ydENp/uX6dSAIm7E4xkHQkizAnzaBSFU6HBwIIQ0w8GBENIMBwdCSDMcHAghzXBwIIQ0w8GBENIM3wCWW1g5R8sSDo7cwsp59pYqGl5Y8XF1hXWcGiPpeKmSWyuscp5BFgH0JYuGF1J8PJNCOk6NkXQcHPmyPCvncxrlKgefTQCdJqPh8zwC8xTJZ68T18/8T2CZbBdRexQwkp6Alyp5suwq5yqNcuWDp7ZsAujMdMdcVHsEsiqSn+6LJNYZoGOtu1yOxCkdkTlW13NqxxU/yWoRl2VuQxUj6Uk4OPJk2VXOJeVGucrBT2gKoKs+AtkVydlIYg0ad5494gQAIGLZhvMtutq+AMn0B09dZO7/JxhJT/2PQtvmaBGWU+WcqDTKVQ8+zbyRdKVFsi2Sz3k0jVVXWxwlnRcrYllnzTGSnhmeceTVsqmcM2qNclHl4NPMH0lXWiTbIvksrHWwtSk+eHaDV9CwCEbSM8PBUTQKq3Ku1ijPKNsAupqsi+Qze+R9Ta0j4rUtrsD0L12Wi2AkPSO8VMmrZVM5pyqN8kzHnnUAXXWF7IvkCSRavelqRaCxa1gPhBJCyQIWSS6GkfQUeMaRW8u1ck5lUG6Uq9ISQFd9CLIvkgMAENvIOmfMRLrvXpW4gRm9sOvMiLZFkjCSPusPg+nAnFrWlfPEjemN8kw0BtAXf8xLvghG0qd2ioMDoWJ18yLpeKmCUNG6eZF0HBwIFS3J1ttluyl7xldVEEKa4eBACGmGgwMhpBkODoSQZjg4EEKa4eBACGmGgwMhpBm+jyO3sHKOliUcHLmFlfMZKh1twk3WbHTV2cXxy23dXqFCS2v7pijqOvmS7Tave1t5sHI+Q7mjTU1rXE3Gkq4zLVfHOaqxtX2TFHGdfKng4MiXoq2cM6zAJ1djRB0vMSnHmZIsVyueK3fDGS6u42SGixsNghC0hERGUvhdTF8z64NJh3XypVXos33ZKN7KOVd15Y5qx/EPqqOUmmo79zbquo5sGhKAWPtv2xq/fLxpLFPxPDU+nlyS6iuu72yODZ5tCq3u3pSon9ut/ec3DKQ826O4ZjYHMwfWyZceDo48Kd7KuTDmCDT5HFz1sBgvd8TjQrysVBoaZUxlE3pfjU8CYALqxfO58XGqL3ftaI4NnmvuC7Jweet5OaV+nrxuU1lz/oOZ+1hinTwH8FIlf4q0ck7jDk9wsrxUIpy/zFRytcdcUjbJkHhZWczrsUsATKbieXp8nC/v2bExMnS+uW8y05M7amvOezBYJ88PPOPIq6KsnFOdZ0xfVxbg6YQlUNo5Jqyq8Vl1sXKL1e3lAAAyFc9nx8cZf0NjVGT0zLxfHae2Zmyeg8E6eX7g4CgaN6tyDkDCYw6hbXwNBELeejEqjktXKlfH7IGyzsSle/bFc9ni+qDF4+y6pa0ncKpx6vsKFKmuOd/BYJ08L/BSJa+KsXIOADRYOkZHG6p0Y16eUuPYuFhbPxH02IVEHVdD8ZwVRC7Qu+Fi0Nu6+YZR/bQjw5qZD2YurJPnAp5x5NZyqJwDALV4xrj60lJvjADApLdErAuNjU1fYctWbcVzahjparLfeqmtwXz6evrZwfThqa+Z+WDm7g3r5DmAseLcWk6V8yyW0lI8z++aWCdfWjg4EMq7m1cnXyp4qYJQ3t28OvlSwcGBUN7dvDr5Uink518QQgUKBwdCSDMcHAghzXBwIIQ0w8GBENIMBwdCSDMcHAghzfB9HLmFlXO0LOHgyC2snGdykwrdaPHwUiW3sHKeSXE0zZECHBz5knXlfFGN8pRCukkhhD1/IX16p4pNcPXDU1yqUAvdaPFw2udJ9pVzdjGNcsbbutcd7uGctUEAUS+UXexoHAqy2RfSY1S5CZ56eMVe6EaLh4MjT7KvnAuLbJQz/mrr+lNHN4apaF/bvbNlaPJkbYBkW0i/GlZqgtNZh1fshW60eHjOmD/ZVs4X0SgHAKCG4T5nWAagnL9vtcfgdZpVYuhKNyo2wec/vKIqdKPFwzOOvMqucr7wRjkAANXFki/vyvqIIOp0WgrpSk3w2c2Ioi90o8XDwVGIFt4oBwASMxooJPq3bNTEc8G4tkL63Cb4cDz98Iq60I0WDy9V8irbyvliGuUkVl1/w8ICEMGxdrA8Wj4aIgDZFtIVm+DLrNCNFg/POHJroZXzRTTKZduI379t7wDHiEyk/GLH6kkKkHUhXbkJziyrQjdaPIwV51au33KentJmPdv2ub3HWwZEUc8ysVnxbg2FdIUm+DIqdKPFwzOO3Dofjf3tSA7fUS4LeqWpQ6jER9NPZYgkGCJztlS6EaikS797cmpMFbqH+JFmz6xvT1FeCi1LODiWF6qfGLWHc/o3fvEXutHi4aUKQkgzfA4LIaQZDg6EkGY4OBBCmuHgQAhphoMDIaQZDg6EkGY4OBBCmhXxG8D27Nl74NHH9Hp94l/HPN7vPPct79jYzT0qhFaCQhkcNpvt3nv2v/Hmm+Fwtu9afvihR77x9a+PeacmxW237f7sM3/1zW99fSJzJifX2PLmHc6Jc93u+PzbIlSkCmVwiKJgtdkPHjx0+PALWc4Ok8mUnBoAcPLkCZ2O+/IXv8IwM59Dn5jw//KFn3V1daXcj1TsPLCfO374vRs5ecc0U7llX5ur+6Jb+WOtOd47QnlRKIMjHI4cPvzCwYOHNM2ONEePHj169GjqLfV19U88+eQXv/SPyVtYvdlW5qxmbRazPxKOCtOf3NJZ7UYxGIiI0zeweiMvRaLEXGoloYnJuAyEN9utbNQfiEopG1BjiZ2bvlEBY7CXGISAPyzS7PeeuJU32aw6adIfFDBvgQpLoQwOWKLZkaa3r7ekpCTlBrb61kc+stluIfc9Ud175PnXu8KUd25/+MCdDbponDcIPUdf/u2ZkRgFrvmRZ7aFztH6dVa9xRw69/pxecddTSbObIWe3/3opQ4f1/zIM1vGjwvNtzgJGE3Ry2+89Mb5WR8XZctbP3xgf6M5GpJMpmjXa8//vrcky70DX7njoY/dUS0GYiYb0/v24Vcv+PBLi1DhKKDBAQDhcOS111775FNP3bP/nl//5jc52IM0ePT5l/hPPca9/v3fDUgAwK7ed2APd+on3zjrFTjH9seeeHTP8Pf/OCIBAFNZEfrJ958dlct2ffLTH93V/uPvPesWzZv/5NO3b6/ufNsDwNa1Vv3mh//+ok/Wrbr94088svvGfx2d+Qg9V9HQyHS9+L0TQ1EwrnvkU/fs6vrBW9ntXTZu3H+39dx/P3fcK3EV2+7fXm3v9I3jaQcqGIX1cqzJZHzwwQe94+Nv/+Ht/OyRrd64kblyxhU3Wq02o+C6OGBqbChLPEkij17qGhUApIlhdyjQ7/IIADQ8POQz2y2J7Liv471unwRA48MnT163rt9QlpL5E92nXnm1fSjOW0qdFRZGttmt6RFAtb1TMRQSrLUb6p1mTvKc/e2b3Tg1UEEpoDMOk8l48OAhAFiq65RsEIvFaqu9//G65FOVockb7NQvuCRKZKrGTWV5KtFNKZkOdMvByeD0/aTJibDRbGZgIrm0rWnf/fvb1hiiE+PjE4Shc79FRHXvguv3h4/fdeddT9xeCuPXz777h6PX/HipggpHoQyOmzI1AICGQpOBrl/94O3BtN/LbL7RlbGV2BkIyAAAfEmpOTIamnmphK27/cEt4ls//PYFvwSkZPfTjauy3zvQyPDZ139x9nXG4Nx476FH7xv/7v90pH/BCUI3TaFcqnAcPxnw52VqUEEQjaVlZhYAQBrpvihvvnOHU08AiLH+7k88fcdqPsuViL11d1s5D0AMdXt2NfovX/am/G4TADESjMoAxFS7vbWSzX7vpGz7408/0GQGkKMT45MC4bhC+T8KIYDCOeMIBAIvvfyKpruEw+HysvLUt3LMVV5WHg6nfUUp9XScvLL5Q3/9d5vefO7np/xD77585MGHP/H5PUIEDNxE5xuvuIUsj0AaujBU+/Fn7tAxOj7Q/cbLJ0flmVMVqbf99wOHPvbZvwxHCeO7MuCR2Oz3Pn7lzFDLRz/zuXiYGg3R62+/eiGIpxuogBRxOjDtLeeKYrHYy6+81N5+LP0HhNXpGDEmyMl/N5jNTGwynPVbJvjNhz7f5nr25x/ETFadMBlSviNvspnZ2ORkbNa1SHZ7Z3QmiwGiwXAc3yuGCkyhnHEsQHv7MYWJkCUqxWf9LlMpGgyobp0BoUI4oH6KIoQDE3NvzW7vcjwcwPeto4KEl84LJfsHL/f7xPk3RGj5KeJLFYTQzYJnHAghzXBwIIQ0w8GBENIMBwdCSDMcHAghzXBwIIQ0w8GBENIMBwdCSLMifss5AHzhn75UUeHMsIHHM/qVr/6z6o+1Fsmz3p6YG++6p8Fz9K1OH344DS1DxT04Mg2FbMxTJF/E9lQWJXG6/YPQcoOXKgBAWaPdUWLi08t+RGctsRu59JsBgLB6k4EjwFtKHVYdAwBAeHOJw2aYqm5E+k/98cRV/8z2JrvDbmCBcAaTnp1ZgXBGu0NhH0Rntdv0KTWh6e31tvJyK5eymcoRIpRLxX3GoXipMs/lSTqu8raPf2ZjKcNZzeELrzz/xqVJAACV+HjyTtk00Ntczz7/fhAMq2599MDeOiYcZYT+MwNlW8lb332jl2l+5JmtwQ+ktRvtjN5m8J168fkjPVEKALrKHQ8d2LdOF4nyJhg68cqvTvRFEtX17bEudt0Gk/f0Sz8+5mYzHyFCuVTcg2OxlyoAwFSukp//z+8MRpnSnYeevueWjit/GJYzpM9T7jhPAz2Br9v/2G2k/Yf/dsYr8BW3HXyyhbk4vcLqVdJPf/Dd4RjnvOOJp+7edqH3xDjlVu87cLvx7E//7eSowJa0PvzEY/d6nv3N1SgAMJVloee/842hKAVgV++f9wgRypkVf6kij3adG4xSAMl39dqY1VHCZk6fp9xxngY6AACwqzasl7uOnfcKACB4Pnjvcih5WiDf6O4YjlEAYexqj99eamcA2OpNzdzlY++PCgAgTXQeOx9ev7GOm9q+69xQlAJkeYQI5Uxxn3Es9lUVAAAhLiRS5kSSJSBA5kmfJ83XQAcAAGI0GsIjyRa6HAyGqWnOrqkkSYQhAEDMZlNw2D+9PQ1M+Nkaq55ADAAkaXqPqkeIFysoL4p7cCzBpYqSRaXP05aaDARt5eU8+OIAQHRlDiuJZtx1MGwptTOQ+OI2Yi+xS6HJOU9eqOfREcqHlXepQsx1O25rrdJnOK9fVPo8bSl3Z0ew6d77t9aW2ctq2x7YVZd5+EjDFy8KzXfeWqUnAJxjyx1thstdvXPShEt4hAgtQHGfcSzkVRXWuXnP3ppzfV1ut+p5vbiI9HkaafTYLw7H7957/8FdfKDnxHvnK+81ZNx+6N2X333o0cf/ZpcosLpYf/tLb7tiOT1ChLRbkelAQgjN5r1Z2tPniqvwOk6MJ5Zga+77y4fpK8+9NTDPJQbhjGadGJpvz0tzhAhpVdxnHAuU1dSARaTPU5Cy3U98onn4yB86RiK6yq13bybXf3Vj/icmqBgJZhFCXoojREi7FXnGkV+srX7nnm1NVTZeCLqvn21/3zWBbXRU5HBwIIQ0W3mvqiCEFg0HB0JIMxwcCCHNcHAghDTDwYEQ0gwHB0JIMxwcCCHNivido5s3tzz+8T+12zO9CcXv9//ilz/v6urM21EhtBIU8eB4/NCf/vQnP+nt6wWAr33tX//+7/8u+aPkv9bX1T/55FNf+NI/pN+ZGCrWrmtYXWEl4bH+S129fgG0R8/zr/CPEK0MRXypYi+xJ6ZGBr19vfaS9FMSoq/e84m/+POP/P/tnXd0G9eZ6L87Bb2wgqQoFpGiSErsqlSXomLZ6m5yFMdJ1nvebrx52fbe2z+y2d233rPvnH0nJ/uyrnGK7cRyiy1biSVZlm31alLsvYgVBCt6GczM+wMsAAiAAC2JBPz9/iIH99757p3BhzvtN+VLlQDy1IqDf/YXR0sSaY/EvGypZH4iLZK85uiTG1Lu74B+rQgR5J4RxTMOAPiP//i/Af+e/a8XTMbWQ5uoW2/88vqAUwQAcjH7oe8e3V9+940aTwGRlmu1Us5s9HvmlJJp42ScyWhziwBAaKmc5e1OWp2oFifGXTJNoi6N1qiURrvN4V2RlsilxGVzTj7ZRliZnHbbHW4xaJsOooxXE+uE2SUAYZVaNe0wmhyo7EEWD9GdOKYPT6aPTURR4AVeo1GPj48TQihC/fSnvm4ONmdNEf/ViZsDU1ot0X734ukvy9VSCiCI9JxOKt53ZGeu0mHlFQpHw59OnOuw+GjHT54nOx5epVWR3cfTui+eON1gm84cRJL30HOVw6//6rJBBAB22e5n9/OnXjzbFxe4zZDy9AcxqAgyN9GdOPwQRJ5zcyCK4+PjI4/vTXrvLC/y//5/nvcuQ8Wn6oT+mmHv32/R2lN1GQDY5MDScyY5J5dqeP+Va/0OkC8/9Oy3NjR0fWbw1Y7DiQ/YZ48yp1/91E+1IdrbGzt2b1mVfNVgEIDNWLWca3y/zx28zbDk6QiyoETxOQ4/RFHg3JxpQ4m1rGD06C63VjV6dJe1rMBQnu9djLAs7eaCyrICSc/Brb958uOr/S5WFa9LVlGCRqsmAD7a8VA4O2raZAUrdRQAm1W43N5Yp+eDtxmWPB1BFpbYmXHwAg+iSNudtoIczcVbkqExLiXBuG2toqnTu5hgMVnlWVoWIPA5gwDScyCaFdv27CxdKnNMjI1NEEq0TK1zWjseEnd3XSuzrzDt0piycJmp4YRBCNVmOPJ0BFlYYidxCAIPAI6cpdqLtyUDwwAgGRjWfnHLvLFUead5upho6u4c31xSqKmvNk19Fdms3d8/yJx/+bPALdNZmx4pcX/221/UGXkgcZXP5C6JMDa+v76J7F+ZNaheNl53cVS8F20iyAISS4cq4sjje7kELWsYnV7IjoxxCdqRx/d6lRu5faElYecT+8uWqFkgjCpjzcMHS7naO7Nd4lMQALfd4hAAiCKzojgloKhc5Di3PD5R6fnQz6XO6+ua+FV7ty8zNDSawm8TQRYpUTzjME4Ys7OyvW/lSHrv7OjRXVxSgkQ/eRaR0yWyY8bED7znEqKt/czv/rht3/bHf7RPThFwGhovv/ve9UEegrxfgO++eq73icf+6oc2B6HGW3uH+UDfcnG49kbrqod+/Pcrz7781k2rn0tdMNQ3WjZWmi+3et7kFl6bCLJIiWJ1oN8t5//9x88BgLWswFaYo71wix0ac6UkmLauVTR3eh+qeENJFXJw2px8OKcPWIVGSTvNZmeo+ykILZFQbicngL9LncSv/953U669/HGz18sOwmoTQRYfUZw4AmKqLKXtTkfOUi5By44ZZZ19vFyquVazkDERZXp+Xn7F5vyhk78834eiYiQGiOJDlYB4coTyTvPI43t9j1AWDiYuIy9DdvfsOzcwayAxQqzNOBAEeQDEzlUVBEEeGJg4EASJGEwcCIJEDCYOBEEiBhMHgiARg4kDQZCIie77OIqKip944licNi7gpxMTE2+/8/vGxsYHHBWCxDzRnTiefOKpX//mta6uzoCfLluW8/1nfvDTf/7JA44KQWKe6D5U0Wq1wbIGAHR1dcbFx8+/dTqpYN3KVMn8G3gQREWQSMwR3Ynj/hIVSvGoCBKJOaL7UGWaf/zJPyUn66b/HR42/Ovz/xKwZATO8WkILZWzgn3SXU5J5DKvFgCIRK2Vuy0mu08twio0aglvNlo4/4dv0XuORDsxkjiCpYl33j3huyCAc/yAcOqFM4Gc49OVmIJDz5V2vnTitkUEoNI2P32UOf3ip708AKurOHhka47E4WJlXNelDz+pGnSKAGzK6gOPbUlzm5wKDdV9/r2P68b5kDGg9xyJLmIkcWzduk2pVLV3tLW1tnqWeCznV65c9i0o2tsb2ndv9XaON4RwjoeGTt92ZCNz882fV49yTELF0eOHNw68+sWgIC/cuUN95zcvXxnlmeTyPRVp2vrxsZlpB3rPkagnds5xiILQ29Njqiz1s5ybKkt9yjk7a1ul4TrHQ0KnFRZSrVWdLrlarZFznU29itycRAKi22rl1Jn52Tolww9Xf3K2cczvYAW950iUEyMzjosXL3j+mNNyDuDurg/fOR4KolKpNZl7jmUJU0us5iGaAHCd5967sn3r9uOb4mGso/rC55fajb7nI9B7jkQ3MZI4/vEn//SLF/7fxPj4nJZzAOD76xvggMc5Xh+Wc1wQgWHYye8pK5UQHgBAtFrNpoaPXjvf53+WUrQPVJ9+u/o0JdMV7nri8O6xF/9Qa/P5mqP3HIlqYuRQ5V+f/5eJ8fGwLOcAwOvrG90ROMf5sWGjrqg8S8nIkvK2bM6Xe44Q+MHGJmHV1tU6KQEg8uwdTz2zJZ0FIIkVx57Zu0IJIDgmxswcYRgKvedITBEjMw4P4VnOAUAcPpnNzwAAIABJREFUbmgwbd5svdxqCcc5Lhhunrudc/jY31UK5u4b11uMk3eVufsvfHjxkYNP/fVGzg4yZqL+zEk9BwBjrVX9Rfv/4kcumyiXOTrOf1xnEYFB7zkSO0S3OvB///Pzv3n91943j0ZkOfdjDuc4oSUscK7ZSnRCy5RKymn2fbk9JVGoZOCw2FzTp0DQe47ECtE943j73be+/70/i4uLA4Cx8bF///fnTXKpoqnTvKHUYzlXNHfycmmYrXE200SIj0Xe5QrygcNimrVUcNlMfuWns8ak93ytrP5ku9OnyBwxIMjiILpnHCHw3Mex0FEEgU3f8FBFwljz9RttYyg+R6KQmE0cCILcP2LkqgqCIA8STBwIgkQMJg4EQSIGEweCIBGDiQNBkIjBxIEgSMRE9w1gaDlHkAUhuhMHWs4RZEGI7kOV+2s5p+y6zGHNg3rUjLCm9KXj8nmoeR5snLEGjt68iO7EcX8hlvTl+rgHNieTTGTljM4ncTzgOCNDVGU0V2RZ56Uq+zp1w2ZRj97iJUYGLHzLOUVzDKFd7smMSWg3SxGOoz2PurMyF8NLHBzlazkXGFYQOcbzYCyhOZYwLvf0/izSMpeEZ/1qEZqTSXnBKXXyIfd8IkhkLpqTOvw/mNUsERhWEDgGGKeMph0ORvCvMlORcUucUxGG7PLc3ZzPiE1BMZxMaVFTDolE6p5qOcwRC1J3zh75hjQ5aDSROKXA2J2MCEBLHDKKsQcdQGRuYiRxhG05Bzq5fXO28uaNTIsIAEJCfnWRuOJSk1qxpL1k+bjEzYgSN6fPq2pJmHlslRot3qwfvVLc4wQAUZNTW0LnXWnWCAC0erCo+G4SQ7tpnh/Nqm1MM7kBQFBntJbmmAUHLZGJY22r6gdkAfdRRttfUtITD4yb0GMDqukJYOBmqdHizXpbF6PLtAC4pVxiU21uv8Vnkk2rB4tK7ibTNEe7YWJpXX3GGAd0cvuWbOUNry6vElZcbtb6f9WDdDOCEfNvUdRkNhemOqWkc41G21m1YtAV/ohJZ9f13oiBehQoJGq0ePOgq58kJDkZKefsz+0S9cuTXZTEBWO5t2pTbAH3G2QuYiRxhG05B25EN5J/N02V0WYmQBvTkoi+RiNQ1sRE0Nes7jYywI4WVXZmDca3zukdpcy5JX3U3dIv++Q85VhaWluyTHW1TS2yw3l5zv4ba7qshFLqCzJMskGZbfYvMj2RV9xHusu+7JXztC27tHYJSQrRrAAAlDFNnXfzUqFNdGuXNa4p6jffyJx5op8yLS/pYfuKv7ir5CnHkqLakhXKy40J3Ihu2LfLQzWa8H9sIxgxo9/cikx0FtfSVSV03rVmjRDZiOn86/qGFKBHwTYisShdpVevKEVF39qNbdldpVevqATJcEllz1KNbu6tjAQids5xhGs5d8cNDPO6FCsBoBOGk7nkARMBQdVTt6LLSFNSh0rFEZGTy+Y2AVOa4RSS0DdCsVKnjCWjeq0kcVxBQBRYl9uZoBtXSwTRmtrYrLOJQBhTxorOgoLOgoLOghX6OBoozagOkjv75TwA8IrengSXGKpZAABRNnBXZxMARMZ4N31YNqpTil7xjKRQSZ29Sh4ABNlgZyqXPJxABe7y7HiCEvaIzdlmRCMWiog2oqgy6BU8gOBQm53SsVElDyByapOdk0nR9zxPYmTGEYnlnB4bTKBXjmg65RLdhF1fbBEBiDM5t2NFupnhpDabjIA4a9YdCIlLJjUWVExM/x46HUoKAPiElpqM5bndq5c5wBbf176sc0QmiLTLIWU8iVpg3ADAcqxLPb0iwSl1ilyoZgFAlDinj6AEqZ1zSyQA9qklUpfEqXZMNSg6ZHbKKGUAeHpsMIEu9OmyODueoIQ7YnO3GdGIzRlSYZgbkQjCzFRoWsEmAKAnft7ESOKIyHIuGHWDYktqglKaKBvslIkAVHxv0RK65ebaATsFxJG9dnyWoUQgtAhAAESa4Ylnh3NJnE5d3fVlE7P2cc6Y1lSV1kTcqpTO8uJO25WVAy7lUI/SuwzFsS6pXU7ANvnqR6eMUKGbBeKUy0RwEAAA2qFgGYu3ZMwpcUkdsqkGicwhFyRO92SXh4iny/KBTpkIALx/PEAH6Wb4Iza7TU/U039FNmK+dX2Z3aMwNiJyz4iRQ5XILOeCSq+nUwu6Ey0pesfUninQTo4CENm4wSVq318iQWF22JakmySUW5Xcm6PjPHUEU9KQMJy71MoQAMIl5NWvyzHRAEQ5WLGuXScRQWTsNolABCrQ7i+YkobF0ZxMKw1AGEtW9ihDQjULAECcadlDKhqAcAnL+pIcSQavi5WCKVkvjORmWhgCQDmW5A4xhuQxfrLLA3oqtaA70aIbcgT5Mgbp5nxGzLtVnrByu4Saz4h51wXiSsjoW6KZulYUsEfhhYR8fWJkxuEhbMs5seiTHTm9XMfkaQVhPKN5vL50yy3OLYItccJCfBKqqLzbnJZYUrcjm7jGl3YZpHLPckHTXpu5sqh+2zLCAU/bdY11ah4AbAm9RkPRplv5HGEZeqQ1f9BXLDoJr22rzVxVUrsjm+YFxtCTYsoUQjULAIJm0Ggs39zLUG7KntRUm272/nYI6o6arFXF9duzKYHiufGMmraEqeMFYtEnu5b1Oaa6HIBg3ZzHiHlXHMgwpLVt22Fovlp01x7RiPnWddpSl/XG98cNmlQBexR2SMg9ILrVgffUci7SrFNCMU5nkMv7RKApEPgANyxQrJMljMvlc2cEoV1SFjinZLYW3W+9jNRFuSWuWbd7+DdLD5dv049eKep1u6U05XTNuhFjpqKLEVi/Bomif91aS/eV/KHQltPg3Zwd+RwjNtOmSNOC4J4JOIIR865LRCJOHz8F7FHYISFfj+iecdxTyznhOZk9xOcixQd5Z4HASWdPKURe4gjrHQfE7QwcYcBmAYjIs6FbFjiJj1+duLTJY7qMfnawYHhON3Lwbs6OZI4Rm2mT8G7fN9WEP2LedaezRtAehR0S8vWI7hlHCBa15Xx+UKZlKyfMLZkjXIQVaVN2gV5hS+y+m2iLjR/i2OtRtBGziQNBkPsHnj9CECRiMHEgCBIxmDgQBIkYTBwIgkQMJg4EQSIGEweCIBET3TeAoeUcQRaE6E4caDlHkAUhug9V7q/lnE4qWLcyVTL/BhYv8+gaUWWWVyzTzH+dRJm74+Duovj76x72J4Y34oIS3Ynj/kKllGwrWyp5sDv6g2EeXSPq5evW54cyhc2FKLh5tyA+2KfdY3gjLijRfagyTfiWc1oilxKXzTn5NBVhZXLabXe4J2U62jgZZzLa3L6Wc1oqZwW7g/MUkshlXi0AEIlaK3dbTHafWoRVaNQS3my0cKG/Kv7VCStTMLzdzgkAABQrl9Fum2Py+RTfCAktlbO83UGU8WpinTC7BCCsUqumHUaTg/cqIMrjtMzUwjBiCBWuVB2v4M0TNt9uBRg6vxEQ7T03vxgUZh5BIxK1Vs5bTDb/lUawjeYcAeT+ECOJI2zLOZHkPfRc5fDrv7psEAGAXbb72QPCqRfO9MUV7zuyM1fpsPIKhaPhTyfOdcxYbJmCQ8+Vdr504rZFBKDSNj99lDn94qe9PACrqzh4ZGuOxOFiZVzXpQ8/qRp0igBsyuoDj21Jc5ucCg3Vff69j+vGA+7EgaurVh55pvjuW7+7ZOBp3YZnvp1V8/rbt8appNkRMgWHniu33hGzl6ulKqX1zukrwurtKxSMUg1dn77+Qe04U3DouZKxK1zBWh0BucLRcuaDMzW+z5MG6UJAiDJ3158dzpMLrJLSX/voo4t3bSLQAQITA42A1zCyuoqDR7blSu12Wg59l9//6JaXxDzANtrPn3rxbKBtNOcIzL3vIPMhRhJH2JZz0d7e0L5766rkqwaDAGzGquVcw/t9biY5J5dqeP+Va/0OkC8/9Oy3NjR0fWaYa610+rYjG5mbb/68epRjEiqOHj+8ceDVLwYFeeHOHeo7v3n5yijPJJfvqUjT1o+PBbCcB67Oj985c63w6Z3Fde915eys4K6e+GpchGARUinJ1jdffckgJG747p/v33D1jVde0ruVqx79800VafXnhwHorOLUP/72v94fFyRLNj15/FDl0K8v6eeMIWB/iTo/2/7GKy/0OSntqgPfP7xr6JVTze4AgZ0fCzQCPivdIr/z+5/fMLiYhDWPfedQZe+rF/RTj7mK9vbGjt1bvLdRY4htNOcIIPeBGEkc4GU5p+1OR85Sj+Vc1tnHy6WaazUz5Zydta2796zUXTDo6azC5fbGt/Q8CPqbJz8GoCSq+PgEFSVotGoCcyUOOq2wkGo90+mSq9Vy4Dqbenesz0n8ctDgtlo5dWZ+dlvN3eHh6k/OAgAQ6dLVWwoTJ0W+ow0XqwZ1QaqLwsjtc7cLHt33SF6S5NbbX40KAOAOEqFgaG4wcAAwMaC3mvjOYQ4AbAP948o0FYFhAHG89nrjOA8AroEbNzrWbs5PvKyfmKMLwxL/aPvcAMB33LrZ5xQBeGPj1eqN3y7IYJrbAgQmGgKMwMy4LVlZyDR+fNvgAgD32O13XqgmvM/D8c6Omrawt9GcI4DcB2IkcURiOXd317cy+wrTLo0pC5eZGk4YBACiWbFtz87SpTLHxNjYBKHEcN62QVQqtSZzz7Gs6Z3eah6iCQDXee69K9u3bj++KR7GOqovfH6p3cgLLpvJxE5+FW0uMXh1EYAf/qpqeNPBzPYPT414fv2DRsi7eTKp6xaFqVOPokimDN6CxWyZWgNvnrDJlUoKphJHsBjEWdECAIh2s2XaBWI2mpl0JUuIPG92YAFHYHrclEqlddA0vUqRnyVJc3fXhb+N5hoB5D4QI4kjIss531/fAAdWZg2ql43XXxwVAeisTY+UuD/77S/qjDyQuMpncpf4NC+IwDDs5H7ISiWEBwAQrVazqeGj1873+c/sRftA9em3q09TMl3hricO7x578Q+1NkPjTZ85DB20OgC7pLIytb9pMKNy/ZK2C/3cnBEGh9LEaSnwfE3ZuHil3WCd+XUP2gXBP1qgAIgsTiOdlKgTbaKWs1lcVNa2QIEFGgFuZqVWdZyWhnE3AAChWQnFOzmfOQffX99E9nu2UV1Y2wh5oMTI5djILOe8vr7RvWrv9mWGhkbPe9AIgNtucQgARJFZUZzie9GRHxs26orKs5SMLClvy+b8yTdD84ONTcKqrat1UgJA5Nk7nnpmSzoLQBIrjj2zd4USQHBMjJk5wjCBhjlYdQA6rXJPmenyqY8+uWAt3bchlZkzwhAQbXFlaRILQGRZGzfkGltaRmd+iYPHEBAme11ltgIAmKSSTSXSjsZed8DAQo8AP9DY5Crcui5VSgDYxLVP/uXT6xIIUWatXl+cKiVT26iuiY9gGyEPlhiZcXgI23IuDjc0mDZvtl5utYgAAHz31XO9Tzz2Vz+0OQg13to7zPsaMg03z93OOXzs7yoFc/eN6y3GybvK3P0XPrz4yMGn/nojZwcZM1F/5qSeA4Cx1qr+ov1/8SOXTZTLHB3nP66zBJo1B6lOJ6/bt5q78kbtBC/cOXet5Lt7K1vfvBQ6whDw/XX9mU8+t0VCSVhT45kPbxgEzytUQnYhIOJYTYO449kfH6ZYGX/34gfn25wgBgpMDDgC0wmJ77/w4cUDh479zXrOQUm4zi/fvzki0stWbdyccedug17vkZYb6hstGyvNl1ut4Wwj5MES3erAe2o5B1ahUdJOs9kZ5JoCLWGBc82WlhNaplRSTrPvnQ2URKGSgcNic82lAA9YfT4RBqiw6om/Lu186a2vnAq1hDNbg60ighgILVMpwGb2uUsiYGBzjQBh5CqZYLU6hSkFMSHizP1hJH79976bcu3lj5u9vMYRjwByf4juGcc9tZwDZzNNhPhY5F2uIB84LKZZSwWXzRS4fFjVAzJHhEEhImczhVIcRxCDyDvM5rACm2sERLfd7HMSejprEGV6fl5+xVpZ/cl2Xxv6fEcAucdE94wjBDFoOZ8H9NKNj2QPfXqlwxFVVxjY9A0PVSSMNV+/0TY25/sckIUgZhMHgiD3jxi5qoIgyIMEEweCIBGDiQNBkIjBxIEgSMRg4kAQJGIwcSAIEjHRfQMYWs4RZEGI7sSBlnMEWRCi+1AFLefzJAa6FgNdgCjuRXQnjvtLDAuy73vXSPKao09uSLmPu1dsbJ2o7UV0H6pMg5bzB2U5DytajlJqEnVptEalNNptjqkBmLWWyfCctDpRLU6MWETPvyDTaCQuk380QbZOUAKO1dS6zJMSIYVGyzqNRieRyWluZqMSiVojc1lMgZ7CRQk7xEziQMv5A7Cchx3te4NFhx5epVWR3cfTui+eON1gEwPXZQoOPVfhbKCX5ytGb33wxo3EQ8+VWb7ilxVqKalGNn7z/RMXuxwiBBSph9odApX3W9flIcmSdYePbM6ibA6K66nqTSwjn714ppsHScrqA0e2LZfYHawC+q+d/OjaXbvPLwJK2CFmEgdazu+75TyCaN3CpRMfsM8eZU6/+mkvH3otVEqi9cQLP+93iABsIlDpS/jfvfbigJPRbTn+9I7yuu5rY2KkWyf4WHmtK3vn0fXk6m9/VjXKscnrH/9OEdUEAMCkbzuySV79u5/dMHB0XPHB40d3Db/0xzavp4tRwg4QS+c4pi3n1rKC0aO7PJZza1mBqbLUp5yzs7ZVWrBSRwGwWYXL7Y11et7jEL/a72JV8brkKYP2XHgU4VWdLrlarZFznU29itycRALilOVcp2T44epPzjaOiUCkS9fs2r13z+69e3bv3VWxVBK0OoAwcvvcbWnlvkf2bJLc+sTLch4gwinHNz8xoLeaejqHOQDRNtA/rtSqCICX5Vx0Ddy40aHOy08kc3bh60Yb3kABAAhDDXf6Z76WwlBj7YBTBOBG2rqM2ngtFaLvAAABQg0+VjPropfk5wkNl2tGOQDghr+63uLxjNFpKwuYlsu3DRwA8BP1l2tseYVZfj+vzo6aNlm4u9CcGyg6iZEZB1rOAe6v5TyyaMMcKAAAnp+OHwCAc3Gef0We5wlFQvbd0+lZQvbgYzW9LiKXy2yD0wMjWCw2UQEARKlUWAaM0694MU0Y6Qy1lIDPiSqUsMdK4kDLeVDukeU8omj9hyNY3fCsoXP0nZsVavbcYyWaTRZNUhIL4y4AIJLEBDVxAIBotdhU8VoKPCeliDZOy1vNs076oIQ9Rg5V0HIelHtkOY8sWhA5zi2PT1TSka0lSBci7HsY5Xl9fa1lxa49ZZmJ2sTM0r0bsjyF+IGmJq5g0sDOJJRsKZW1NHRzAChh9yVGZhwe0HIegHtlOY8o2iFhuPZG66qHfvz3K8++/NZNYyQu9dk9iLDvYZXnDZfffs+1Y/Oexzewpq5r12tSdsk8w3XhwwsHDh/7mw1ujpY4e65+cL7TCQC0DiXs3kS3OhAt53NVuOeW8wiiBUJLJJR75lVLkdSdRaR9n7M8YSWM2+UJhc7Y/cOD4smXP+udujmDkSslbqtPpChh9yK6ZxxoOQ+Pe2g5jyBaEHmXzzcokrqziLTvc5QniZXHnyoYuPh57aBdklK2YxXp+GhoJljRbbf4a5JRwu5FdM84QoCWc4CotZw/EGhN9pqN5StSNSxn0XdUX73dORGmUR0l7DGcOBAEuX/EyFUVBEEeJJg4EASJGEwcCIJEDCYOBEEiBhMHgiARg4kDQZCIie4bwNByjiALQnQnDrScI8iCEN2HKmg5nycx0LUQXbhPvZtfsw9yqB/guqI7cdxfotZAPTexbTm/T72bX7MPci96gOuK7kOVadByjpbzYAEzMrlEdE5tL/8YQu4PRKLWynmLKfAag5nQQ8TpF8ycASxeZ3qMJA60nKPlPCCqvL3f2aupeveDm4aA8UMQZfldoqs4eGRbrtRup+XQd/n9j24Neo1KEBP6HHF6BxNih4wKZ3qMJA60nKPlfBZEtXz38b3a6nf/cNPgDhZDYGU5nb7ryBb5nd///IbBxSSseew7hyp7X7061XAwEzodIk7fYHx2yKh0psfOOQ60nKPlfNJyDgBAFLnf+vZDiTXvf3DD4A4VQyBlOb1kZSHTeOm2wQUA7rHb77zwy0t6YaY7QUzoQeP0D8Z3h4xKZ3qMzDjQcg6AlvMpyzkA0Jmbt8U5mQkiCHPEIAZQltNKpdI6aJouKvK8OONbDGpCd6sDxzkrGF+i0pkeI4kDLedB+eZZzoEF4AcvvfVWe/6x7xzZqX/9sy6HGHxjBVCWi1arVR2npWF88kWRrITip11fwUzoQeOcFcycASx+Z3qMHKqg5Two30DLOQCAy+7gBq+ePDOSf/hAsZaEjGGWspwfaGxyFU66ztnEtU/+5dPrEqaPBIKb0IPF6R9MDDjTY2TG4QEt5wH45lnOZxBN9X86teS7Rx7bPPzGpRAx+CvLge+/8OHFA4eO/c16zkFJuM4v3785IkLK9JAGNqGHjtM7mGuyaHemR7c6EC3nc1X45lrOg8YUKIaAynIAwshVMsFqdQoB7+MIYEIPP84od6ZH94wDLefh8U20nAeNyS+G4MpyANFtNwc/TR7IhB5+nFHuTI/uGUcI0HIOgJbzMFhwZfmCBzAvYjZxIAhy/4iRqyoIgjxIMHEgCBIxmDgQBIkYTBwIgkQMJg4EQSIGEweCIBGzuG4AUypV27ZtLy4qSUpKAoCRkZG6+toLF760WsP0tiAI8iBYRPdxlJaWH3vyqerq6uo71UN6PQCkpKaWl5WXl5e//c6JmprqhQ4QQZBJ6LS0NFYqW+gwoLS0/NGjj//qtVdv375tNBp5nud53mg0trQ026y2xx59zDA8PDSkn7shX4gyd8e+NSpDl8ER1nIEQcJhUZzjUKnUx5586je/fm1gcNDvo5yc3H0PP3zq1KljTz6lUqkjbloU3LxbEEV/7/bMcgRBImZRzDh27dozPjZ+6/Ytv+U5OblPP/30m2++Wd9QHxcXn5aW1tbWGqohQiu08QricvK0TMGKHC+4zUN9A6MWN5GqUlZWrlYONAzYBLebn1ouBKkoElqqkBI3T8m1cUqKc7l9n3ElErVWSdzO6Wdlp8qzmqR4iWvqkVgiUcepaLd/bQSJchbFydHiopIPPviD38LprNHZ2QEAVVVfHT366Cef/DFIG0S2ZN3hI5uzKJuD4nqqehPLyGcvnummPILyd/Xlvt5tblpcDsErBjRuBzFc+wm7L+vpsO3hCBJ1LIrEkZSUZBga8l7ilzUAwDA05LnUEhg2a+fR9eTqb39WNcqxyesf/04R1eT1Md/n591mw6gY2LgdxHANvsJuOn1nmPZwBIlCFsU5Dj9mZ405oZfk5wkNl2tGOQDghr+63mIN79c9VMVAxu2ghmvwEXaH8nojSPSzKGYcIyMjupSUnp4eCJ41dCkpIyMjwVogcrnMNjht8xYsFpuoCGfVISsGMG4HNVw7wVvYHcoJjiDRz6JIHHX1tRUVq3t6ekLMNSoqVtfV1wZrQTSbLJqkJBbGXQBAJIkJahLWhdZIKwYzXM8qFtwJjiDRz6I4VLl48UJZWdm6teuCZY0laWllZWXTL0+ZxEsVzevray0rdu0py0zUJmaW7t2QNUvu6uPdniaMir7lgxmu/Yp9Ta83gixuFsWMw2Ixv/3OieNPHT916lTArPH9Hzz79jsnLBazzwe0bkYVzRsuv/2ea8fmPY9vYE1d167XpOzyu8Ys+ni3bVOL567oSzDDtR/h28MRJAqJ8lvOvVTRhJUwbpfHOE1n7P7hQfHky5/1+h0p+Hu3w644a8UBDdezi30drzeCLFoWxYzDQ01NdXt727Zt248eOer9kNvz//a/gz7kNqOKTqw8/lTBwMXPawftkpSyHatIx0dDs7/8/t7tsCvOaiig4TrA+r6G1xtBFi2LaMbxNaE12Ws2lq9I1bCcRd9RffV250R4zuh5V0SQbyyxkzgQBHlgLIqrKgiCRBeYOBAEiRhMHAiCRAwmDgRBIgYTB4IgEYOJA0GQiMHEgSBIxGDiQBAkYhbLLef/+JN/Sk7WhSgwPGz41+f/xWcRUWWW5Uu7q9rGxaALiSx52fKc9GQ1sY30NDd0GzlPmdKiDMWMV0e09dXW9FpAlVm6UqOvadBPPydPFEuLi+W9N6fWIUteXrRiaYKUNw111DcPWPjgreHTKUjsslgSh39SCAeiXr5uk9JU7Zs4ZhYSaVrlo49vTRhva+8ziqkVBzdt6fvsrY9qR0X18g2b80drOo2TlUSQUp66G3ZupOLtv/60wzHZpjJ7zdYk++22cR7opNVHn96iulvXordLUtc+umVd9YnfXe7jg7SGILHLYkkc9wEmY+uhTdStN355fcApAgC5mP3Qd4/uL7/7RhWA6OqrOn+2w09dDgC8nS18eFfHr/7UbvObMtBL129Kbjn52ifdLgCAG81bjh8qy77Z1xGkNQSJXRZL4gh4qBLg8CR82Jw1RfxXJ24OTB12iPa7F09/Wa4OOR0Qne1fnKe27d27YuBki1/qYChKFCgyKQDk9ZfeeAUATxMh30QWS+KYf4IIAhWfqhP6a4a9n5AXrT1VlwGASgOg1bqsLM7zqeg2Dw2MuzxpQrC2nDuT/ey+PasGTtZ7m4P47msXhp8+8oP4xju1LR2ddw2WmbaDtoYgMcliSRz3HMKytJsLKt0ibFrJlp0rJr/dlsazf7hlmPqqC7b2839q/96hh4p73q/3qsOPVL//Ul9eSXFh6e71+1WWlitnT9/otc3RGoLEIIslccznqkpIBIvJKs/SsgABrTyio/Wz350KdlZCdHSeP934vUP7S/s+8/3EMdx28/O2m59TiiXl+x89+rDp1T80z9UagsQciyVx3PNDFdHU3Tm+uaRQU19tmvrxZ7N2f/8gc/7ls7aQVQEAROfdz/9cU4irAAAHVElEQVRU94PHH17bMXkOg6gzSvMkPXc6xgQAEGwD1bfbK/elxpNmnFsg3zii/cweoQhNZvD6RBy5faElYecT+8uWqFkgjCpjzcMHS7naOx4nefCKU7j6Lp2qkpYWJ096z3lN3vZHHlqTKiMAQCmWrN2wgurvGxPDaw1BYonFMuOY51UVIi879j/Kpv5zt5z8jz+MT/0n2trP/O6P2/Ztf/xH++QUAaeh8fK7710f5IHyryiaq974rzPd/lMHd/+VTy7lfmfTZHMNpz9MOPjw8b/dytl5iYI2tV398NM2h0iCtIZvVEFil2+EOpCSKuTgtM28Wv7rQFiFRi0VrSaTE1MD8k1lscw47iuC02a9Z42JnM04NvdJEgSJZaL9HAeCIAsAJg4EQSIGEweCIBGDiQNBkIjBxIEgSMRg4kAQJGIwcSAIEjGYOBAEiRhMHAiCRAwmDgRBIiaabzn30ouLgss22t/eqQ9HO07ic9flS7u/ahziAjXldppH+7q6pwRfRJVZuirF1Hy70+jzqAurW7l6GdV9p17vvB+ic6JYWlrAdld3TeBT+8jiY+FnHLQ8RZJYIkkohqnH0RlF2uSS6TKyBEab61+TqJdv2FySrlKpVJq4tJU7nnrume2ZUuK9fBKFt2eUWrp6z95vPbR1hYwEakqbuLR457ef+29H1+jYqY927Nu3LoP2WbdixeYD39pRsVRKfKsHWuO8UGat25Qft/DbB0ECsPAzDnnGLlXecQAYu/4PrtFaANCW/082Lh9EXv/JAU8ZacoG+dK9o1d+7F/ZWy9O67Z+/+ntxVVvBpOYe2AzSwr5mjtDy4tWKBtrZyYF3lWILH3T499+dPvwa+fu8gAgCJrCitwLPa2uycJEs6p8GSt4TQbmFJ0TWipnebuDKOPVxDphdglAWKVWTTuMJgfvVUyh0bJOozloQwiy8Cx84phGnrHHNVrLqDLYuPz51OdHBvXuYo2KQKjJvSSraIWz+cTFCcWzqwrUtbdNgQqJjv6rn94qfGpN7sW7rQCiubXJklteoGqbTDQkqbg8oaOuKycCHwFTcOi5cusdMXu5WqpSWu+cviKs3r5CwSjV0PXp6x/UjotElr720OGt2ZTVSbiumgEC6CJEFimLZSrMO0ZlqZsIo5Qt3SUKLsE5PncdX4gsY3kGPTrsOSdAq3VZWZmZWZmZWZkZ6fGSqaMSWW5xjrWxacjS3tCXUlQYF1TWJQz39Ll1qfEUAIBobKjuSSsrifcUZzLKi9jGOx1O7wrB1ugFlZJsPffqSy//56+vuFbv38Cde+WlV/7zpdN9GRsq0ihgM3cc3kBd/+3PfvHSz1/6aCg9X7dYNg6C+LNYZhyOgS+VOY/K03co0nc49deYuDwKNJ6PaHmy5w9CSQgjE1xekwQizdtx7OkNIqGkWl0idJ0/0WQTQRtMO04Uy0uWGRsujogitDbc3bNhZeLNqyOBJyiE49wMwxDgAUB0tH3VsnVvaeqNLwZ5ac7qAmfNiX5+s3fxMETngqG5wcABwMSA3mriO4c5ALAN9I8r01SEZvLzoemDOyMcAHDDX91o2fTI1xpSBLl/LJbE4Ta2uc3dqhXHKYnW3ndOHZfnWS7VrYkr+18O/RVCs3Frfgq8ffyrf5upJvLDbVU3BwUqqeShJOO5szUjbgAqmHacKFesymEV8m8dXSoCsPEkJalId/3LoYBHBIw2TmHtswgg9wTYXV0vPl6WfXlwqKA0Z6Tm/IiQ7l08LNE57+YnX+cEoiCInsQiigREAKJQyKwD5qkGeLPZIirDGzwEedAsotmwve88JdHy9mHXSPX0Qqfhtq33rDxjD6POpuVJproXfCu5J/paW1pbm659dmV42bbKdDbECoi6sCh9+M6VG7UNtXUNtVVXb3bJVxWn0QHLxhWVZ010eF2CFYZqq415q/PTS8pTu6sbzff6Kqlos9rU8XFT0dDaODVKj5HFyiJKHI6BL0AUHP2fi6LPl9Lc9Jq18wO3pWf82j/wronAlcWJ6gs1ULatYvI0RADtOIkvLE4drL5a29Tc3NTc3NTcePVmm6SwKHNy1uWpQtFSdcry9UePbVXVfXFj2Pu6ibGuuj9z55H1ytaqdsesvBFIdE6UWavXF6dKw8kA/GBzK1+4ZU2KBIBI09ZvyJNh4kAWKwt/qGJp/b2l9feev/Wf7Pf8MfLFs95lzE2vWdvfErhQqk+u7/qFrmd3b8urO2UOpB0/a1u5Krn3dovFq0pPYzMcLM7+vKtzylQuioLbaR7pbbn17utV/Q7R8ybqyWZszdUtO5en11Xfnf2GuICic6JbtXFzxp27DXr93BMUru+LDy8dOPz031Y6OMHWfKNucG3AyRCCLDzfCMv5QkII8ZtBzQElVSlpp9kW9O2VCLLwLPyMI8aJLGsAgOC04M1fyGJnEZ3jQBAkWsDEgSBIxGDiQBAkYjBxIAgSMZg4EASJGEwcCIJEDCYOBEEiBhMHgiARg4kDQZCI+f/RihnrnNlLWwAAAABJRU5ErkJggg==;" parent="1" vertex="1">
          <mxGeometry x="10" y="9" width="320.44" height="810" as="geometry" />
        </mxCell>
        <mxCell id="-9ZG5ofNiQgSZj17KKBb-26" style="edgeStyle=orthogonalEdgeStyle;rounded=0;orthogonalLoop=1;jettySize=auto;html=1;exitX=1.001;exitY=0.921;exitDx=0;exitDy=0;entryX=0.5;entryY=1;entryDx=0;entryDy=0;fillColor=#f8cecc;strokeColor=#b85450;strokeWidth=1.9685;dashed=1;exitPerimeter=0;" parent="1" source="-9ZG5ofNiQgSZj17KKBb-13" target="-9ZG5ofNiQgSZj17KKBb-22" edge="1">
          <mxGeometry relative="1" as="geometry">
            <Array as="points">
              <mxPoint x="329" y="320" />
              <mxPoint x="541" y="320" />
            </Array>
          </mxGeometry>
        </mxCell>
        <mxCell id="-9ZG5ofNiQgSZj17KKBb-13" value="" style="rounded=0;whiteSpace=wrap;html=1;fillColor=none;strokeColor=#b85450;strokeWidth=1.9685;dashed=1;" parent="1" vertex="1">
          <mxGeometry x="44" y="50" width="286" height="293" as="geometry" />
        </mxCell>
        <mxCell id="-9ZG5ofNiQgSZj17KKBb-24" style="edgeStyle=orthogonalEdgeStyle;rounded=0;orthogonalLoop=1;jettySize=auto;html=1;exitX=1;exitY=0.75;exitDx=0;exitDy=0;entryX=0.5;entryY=1;entryDx=0;entryDy=0;strokeWidth=1.9685;dashed=1;fillColor=#ffe6cc;strokeColor=#d79b00;" parent="1" source="-9ZG5ofNiQgSZj17KKBb-20" target="-9ZG5ofNiQgSZj17KKBb-21" edge="1">
          <mxGeometry relative="1" as="geometry">
            <Array as="points">
              <mxPoint x="549" y="655" />
            </Array>
          </mxGeometry>
        </mxCell>
        <mxCell id="-9ZG5ofNiQgSZj17KKBb-20" value="" style="rounded=0;whiteSpace=wrap;html=1;fillColor=none;strokeColor=#d79b00;strokeWidth=1.9685;dashed=1;" parent="1" vertex="1">
          <mxGeometry x="44" y="347" width="286" height="410" as="geometry" />
        </mxCell>
        <mxCell id="-9ZG5ofNiQgSZj17KKBb-10" style="edgeStyle=orthogonalEdgeStyle;rounded=0;orthogonalLoop=1;jettySize=auto;html=1;exitX=0.5;exitY=0;exitDx=0;exitDy=0;entryX=1;entryY=0.5;entryDx=0;entryDy=0;strokeWidth=1.9685;fillColor=#d5e8d4;strokeColor=#82b366;" parent="1" source="-9ZG5ofNiQgSZj17KKBb-19" target="-9ZG5ofNiQgSZj17KKBb-7" edge="1">
          <mxGeometry relative="1" as="geometry">
            <Array as="points">
              <mxPoint x="732" y="510" />
              <mxPoint x="325" y="510" />
            </Array>
          </mxGeometry>
        </mxCell>
        <mxCell id="-9ZG5ofNiQgSZj17KKBb-2" value="$ helm template naavre values/ --output-dir values/rendered -f ./values/values-deploy-uva-test.yaml" style="rounded=0;whiteSpace=wrap;html=1;fontFamily=Lucida Console;align=left;fillColor=#2B2B2B;fontColor=#E6E6E6;spacingLeft=7.874;strokeColor=#808080;" parent="1" vertex="1">
          <mxGeometry x="350" y="543.94" width="810" height="30" as="geometry" />
        </mxCell>
        <mxCell id="-9ZG5ofNiQgSZj17KKBb-3" value="$ helm install naavre naavre/&amp;nbsp;$(find ./values/rendered/values/templates -type f | xargs -I{} echo -n &quot; -f {}&quot;)" style="rounded=0;whiteSpace=wrap;html=1;fontFamily=Lucida Console;align=left;fillColor=#2B2B2B;fontColor=#E6E6E6;spacingLeft=5.9055;strokeColor=#808080;" parent="1" vertex="1">
          <mxGeometry x="350" y="250" width="810" height="30" as="geometry" />
        </mxCell>
        <mxCell id="-9ZG5ofNiQgSZj17KKBb-9" style="edgeStyle=orthogonalEdgeStyle;rounded=0;orthogonalLoop=1;jettySize=auto;html=1;exitX=1;exitY=0.5;exitDx=0;exitDy=0;strokeWidth=1.9685;entryX=0.5;entryY=1;entryDx=0;entryDy=0;fillColor=#dae8fc;strokeColor=#6c8ebf;" parent="1" source="-9ZG5ofNiQgSZj17KKBb-4" target="-9ZG5ofNiQgSZj17KKBb-15" edge="1">
          <mxGeometry relative="1" as="geometry">
            <mxPoint x="830" y="730" as="targetPoint" />
          </mxGeometry>
        </mxCell>
        <mxCell id="-9ZG5ofNiQgSZj17KKBb-4" value="" style="rounded=0;whiteSpace=wrap;html=1;fillColor=none;strokeColor=#6c8ebf;strokeWidth=1.9685;" parent="1" vertex="1">
          <mxGeometry x="61" y="677" width="184" height="21" as="geometry" />
        </mxCell>
        <mxCell id="-9ZG5ofNiQgSZj17KKBb-11" style="edgeStyle=orthogonalEdgeStyle;rounded=0;orthogonalLoop=1;jettySize=auto;html=1;exitX=1;exitY=0.25;exitDx=0;exitDy=0;entryX=0.5;entryY=1;entryDx=0;entryDy=0;strokeWidth=1.9685;fillColor=#d5e8d4;strokeColor=#82b366;" parent="1" source="-9ZG5ofNiQgSZj17KKBb-7" target="-9ZG5ofNiQgSZj17KKBb-16" edge="1">
          <mxGeometry relative="1" as="geometry" />
        </mxCell>
        <mxCell id="-9ZG5ofNiQgSZj17KKBb-7" value="" style="rounded=0;whiteSpace=wrap;html=1;fillColor=none;strokeColor=#82b366;strokeWidth=1.9685;" parent="1" vertex="1">
          <mxGeometry x="108" y="421" width="216" height="179" as="geometry" />
        </mxCell>
        <mxCell id="-9ZG5ofNiQgSZj17KKBb-8" value="" style="rounded=0;whiteSpace=wrap;html=1;fillColor=none;strokeColor=#9673a6;strokeWidth=1.9685;" parent="1" vertex="1">
          <mxGeometry x="60" y="90" width="263" height="156" as="geometry" />
        </mxCell>
        <mxCell id="-9ZG5ofNiQgSZj17KKBb-15" value="" style="rounded=0;whiteSpace=wrap;html=1;strokeWidth=3.937;imageHeight=24;fillColor=#dae8fc;strokeColor=#6c8ebf;" parent="1" vertex="1">
          <mxGeometry x="816" y="573.94" width="258" height="3.94" as="geometry" />
        </mxCell>
        <mxCell id="-9ZG5ofNiQgSZj17KKBb-16" value="" style="rounded=0;whiteSpace=wrap;html=1;strokeWidth=3.937;imageHeight=24;fillColor=#d5e8d4;strokeColor=#82b366;" parent="1" vertex="1">
          <mxGeometry x="627" y="280" width="240" height="3.94" as="geometry" />
        </mxCell>
        <mxCell id="-9ZG5ofNiQgSZj17KKBb-19" value="" style="rounded=0;whiteSpace=wrap;html=1;strokeWidth=3.937;imageHeight=24;fillColor=#d5e8d4;strokeColor=#82b366;" parent="1" vertex="1">
          <mxGeometry x="678" y="540" width="107" height="3.94" as="geometry" />
        </mxCell>
        <mxCell id="-9ZG5ofNiQgSZj17KKBb-21" value="" style="rounded=0;whiteSpace=wrap;html=1;strokeWidth=3.937;imageHeight=24;fillColor=#ffe6cc;strokeColor=#d79b00;" parent="1" vertex="1">
          <mxGeometry x="526" y="573.94" width="46" height="3.94" as="geometry" />
        </mxCell>
        <mxCell id="-9ZG5ofNiQgSZj17KKBb-22" value="" style="rounded=0;whiteSpace=wrap;html=1;strokeWidth=3.937;imageHeight=24;fillColor=#f8cecc;strokeColor=#b85450;" parent="1" vertex="1">
          <mxGeometry x="518" y="280" width="46" height="3.94" as="geometry" />
        </mxCell>
        <mxCell id="-9ZG5ofNiQgSZj17KKBb-29" style="edgeStyle=orthogonalEdgeStyle;rounded=0;orthogonalLoop=1;jettySize=auto;html=1;exitX=0.5;exitY=1;exitDx=0;exitDy=0;entryX=0.5;entryY=0;entryDx=0;entryDy=0;startArrow=classic;startFill=1;" parent="1" source="-9ZG5ofNiQgSZj17KKBb-27" target="-9ZG5ofNiQgSZj17KKBb-28" edge="1">
          <mxGeometry relative="1" as="geometry" />
        </mxCell>
        <mxCell id="-9ZG5ofNiQgSZj17KKBb-30" value="Release&lt;br&gt;name" style="edgeLabel;html=1;align=center;verticalAlign=middle;resizable=0;points=[];" parent="-9ZG5ofNiQgSZj17KKBb-29" vertex="1" connectable="0">
          <mxGeometry relative="1" as="geometry">
            <mxPoint as="offset" />
          </mxGeometry>
        </mxCell>
        <mxCell id="-9ZG5ofNiQgSZj17KKBb-27" value="" style="rounded=0;whiteSpace=wrap;html=1;strokeWidth=3.937;imageHeight=24;fillColor=none;strokeColor=none;fontColor=#333333;" parent="1" vertex="1">
          <mxGeometry x="471" y="280" width="40" height="3.94" as="geometry" />
        </mxCell>
        <mxCell id="-9ZG5ofNiQgSZj17KKBb-28" value="" style="rounded=0;whiteSpace=wrap;html=1;strokeWidth=3.937;imageHeight=24;fillColor=none;strokeColor=none;fontColor=#333333;" parent="1" vertex="1">
          <mxGeometry x="471" y="540" width="40" height="3.94" as="geometry" />
        </mxCell>
        <mxCell id="-9ZG5ofNiQgSZj17KKBb-35" value="" style="group" parent="1" vertex="1" connectable="0">
          <mxGeometry x="1040" y="30" width="85.19000000000005" height="120" as="geometry" />
        </mxCell>
        <mxCell id="-9ZG5ofNiQgSZj17KKBb-32" value="" style="shape=image;verticalLabelPosition=bottom;labelBackgroundColor=default;verticalAlign=top;aspect=fixed;imageAspect=0;image=data:image/png,iVBORw0KGgoAAAANSUhEUgAAAwkAAALyCAYAAACRuZjiAAAACXBIWXMAAA7DAAAOwwHHb6hkAAAAGXRFWHRTb2Z0d2FyZQB3d3cuaW5rc2NhcGUub3Jnm+48GgAAACR0RVh0VGl0bGUAS3ViZXJuZXRlcyBsb2dvIHdpdGggbm8gYm9yZGVyQQFOjAAAADJ0RVh0RGVzY3JpcHRpb24AImt1YmVjdGwiIGlzIHByb25vdW5jZWQgImt5b29iIGt1dHRlbCLAp9QkAAAgAElEQVR4nOzdd5gV1cEG8PfMrds7bEOKIAoosLsUATsmUUizgr2CsOxSFLEkwmqMioayFEVjb0g0JhFNsWADI8KCDQugKNt7L7fM+f5Y+WKhbLn3npk77+958kdMnr2vW2bmndOElBJERBS+TiuAvb6yZITQRDYEjgKQLiRSAaQDIg2QbgCRAFwA/AAaAbQCaABQKiBKIfGtrsld0i8/a7a1fba7cHCHsn8hIiIKOsGSQEQUXiYsKE7s8NnOAuSJkCIHkCMBuAP4ET4IuQPAZim1d31+7xsfrT2qLoBfn4iIFGNJICIKAzn5+4/Wde3XENovBeRJAGwh/HifhHhXE/pGaNpftq1I+zaEn01EREHAkkBEZFITFhRHtHu1iwQwC0C26jzf0QG8KaR8wumUG7Ysy2xTHYiIiLqPJYGIyGTGzq4cpNt9MyRwNSSSVec5NNEgpXzcLnHf1jXp+1WnISKirmNJICIyiey5ZdnQ9VsA8RsAmuo83eARwJN+Tb9nx8rM3arDEBHRkbEkEBEZXE5u2SSpyUUApgAQqvP0gg7gFQlRULQqbZvqMEREdGgsCUREBpWTWzZJ2uQSSJyhOksQvKZrWLxjZfoW1UGIiOinWBKIiAxEFEDLqimdAsjfQ4oxqvMEmwQ2C4F7ilalb5QSvCERERkESwIRkQHkzNzu0F2p04UUNwE4TnWeUBPATl3I5YPLM57esAF+1XmIiKyOJYGISKEh+XtcMYi4UEjxewCDVedRTQCf6kIujUvKeGbTYvhU5yEisiqWBCIiBUbkVkW7Nd/VEvJGAOmq8xiOxD4hxAqnw/8gz1ogIgo9lgQiohAaN6ckySdEngTyBJCoOo8JVAK4X3jal29bN6hBdRgiIqtgSSAiCoHx8yr7ev2+WYCYB8g41XlMqFEI3O+060u3LMusVR2GiCjcsSQQEQXR6PnlA4RXny8ErgUQoTpPGGiWEo/ofn3pzvszS1SHISIKVywJRERBMGpO+XCb5l8EKaYDsKvOE4Y8EPI5Xcg7eIozEVHgsSQQEQXQ6NySUZoNCyDFRQBsqvNYgA6IF6QQS4oKU3epDkNEFC5YEoiIAiAnt2yS1OQiAFNVZ7EoHcArmtDv+KAwc6vqMEREZseSQETUC1n5pZOFxO0ATlSdhTodOMV5e2H6S6qzEBGZFUsCEVE3iQJoWTWlUyBxG4Ac1Xno4A6UhaJV6RulBG92RETdwJJARNRFOTO3O3RX6nQhxc0AjlWdh7pI4CMJ+afB5RlPb9gAv+o4RERmwJJARHQEQ/L3uGJl1OWA/B2AfqrzUE/JrwS0wgbR8sDuwsEdqtMQERkZSwIR0SFMWlQd097qvUoCiwCZpjoPBcy3AmIZPHho27q0VtVhiIiMiCWBiOhHcmaWJUunnAMgH0CC6jwUNFUA1up2z4odywfUqw5DRGQkLAlERN8ZP6+yr0/3zZcSeQAiVeehEJFoksCjdum4a+ualHLVcYiIjIAlgYgsb2RexUCb9M8TAjMAuFXnIWVapMTDfk3e+2FhRrHqMEREKrEkEJFljZlbMUKXvhshxXQAdtV5yDA8EPI5TRN3frAi/QvVYYiIVGBJICLLGZNfOlqX4mZAngdAqM5DhqUDeAWaWLJ9Zdp21WGIiEKJJYGILCMnt2yS1OQiAFNVZyFTkQBehpB3bi/M+K/qMEREocCSQERhTQiIrLzSqZC4BcB41XnI3A6c4ry9MP0l1VmIiIKJJYGIwpIogJZVUzoFEosBZKvOQ2Fnh4C8a/vqjOelBG+kRBR2WBKIKKyMKNjldNbETRO6uAUCQ1XnoXAnP5EC98YlZTyzaTF8qtMQEQUKSwIRhYWRCyuiHO36NYC8QQKZqvOQtQjga0CsjGnuWLfp0QHtqvMQEfUWSwIRmdqkRdUx7a3eqyTkTQBSVecha5NABSSW+yNsqz+8t2+L6jxERD3FkkBEppSVX54ipJ4LYC6AeNV5iH5AoBoSa7x+38qP1h5VpzoOEVF3sSQQkankzCs7SvfJ64XANQAiVechOoJmKfEIhP+eolX9SlWHISLqKpYEIjKFsbMrB/k031whMAOAW3Ueom7qgJAb4Je3b1+TuUd1GCKiI2FJICJDy8krPl4KsRBSXATApjoPUe8IL4S+Xkjtj9tWpX2uOg0R0aGwJBCRIY2eWzpB03EzgCkAhOo8RAGmA3hF17Xbd6xJ/UB1GCKiH2NJICJDycktmyQ1uQjAVNVZiEJBApsh5eKi1Rmvq85CRHQASwIRKScERFZe6VRIcSsgx6nOQ6SCBDYLgXuKVqVv5CnORKQaSwIRKSMKoGVXl5wrIZYAGKY6D5FBfCiFXDa4POPpDRvgVx2GiKyJJYGIQm5EwS6nsyZumibFrRI4RnUeImMSewEsjU1Oe2TTYvhUpyEia2FJIKKQGbmwIsrRrl8DyBskkKk6D5FJfCMgljsd/ge3LMtsUx2GiKyBJYGIgm58fm2sR2+fJQQWAkhSnYfIpCoB3C887cu3rRvUoDoMEYU3lgQiCpqs/PIUIfVcAHMBxKvOQxQmGoXA/TZd3vv+6owa1WGIKDyxJBBRwGXNKesPyAVC4FoAEarzEIWpZinxiO7Xl+68P7NEdRgiCi8sCUQUMDn5+4+WUrsR0K4EpEN1HiKL8EDI53Qh79ixMnO36jBEFB5YEoio17JnF58Au7gBUlwEwKY6D5FF6YB4QQqxpKgwdZfqMERkbiwJRNRj3zsdeQoAoToPEQEAJICXhdT/sG115vuqwxCRObEkEFG3fa8cTFWdhYgO7cApztsL019SnYWIzIUlgYi6RBRAy6opnSKl+J2AHKs6DxF13YGyULQqfaOU4I2fiI6IJYGIDksUQMuuLjlXQhQAOE51HiLqDfGxFPp9g8sznt6wAX7VaYjIuFgSiOigRhTscjpr4qYJKX4HYIjqPEQUSPIrAa0wprlj3aZHB7SrTkNExsOSQEQ/MCK3Ktqt+a6WkAsBZKjOQ0RB9a2AWAYPHtq2Lq1VdRgiMg6WBCICAIzPr4316O2zIHCjABJV5yGikKoCsFa3e1bsWD6gXnUYIlKPJYHI4kbOquhjt/tnA2IeIONU5yEihSSaJPCo5vDevW15/zLVcYhIHZYEIosaPb98gPDq84XAtQAiVOchIkPpAOTjNl38Yeua9P2qwxBR6LEkEFlMdm7xYGhiISCuAmBXnYeIDM0DIZ/TNHHnByvSv1AdhohChyWByCKy8ktGCuB6SHERAJvqPERkKjqAV6CJJdtXpm1XHYaIgo8lgSjMfe905CkAhOo8RGR6r0kpbytanfGe6iBEFDwsCURhKie3bJK0ySWQOEN1FiIKPwdOcd5emP6S6ixEFHgsCURhRBRAy6opnQLI30OKMarzEFH4E8BOXcjlO5IynpKLoavOQ0SBwZJAFAZyZm536K7U6UKKmwEcqzoPEVmR/EQK3BuXlPHMpsXwqU5DRL3DkkBkYkPy97hiEHGhkOL3AAarzkNEBIl9QogVMc0d6zY9OqBddRwi6hmWBCITGpFbFe3WfFdLyBsBpKvOQ0T0YxKoEMADDuFe9t/CxEbVeYioe1gSiEwkZ2ZZsnTKORLIE0Ci6jxEREckUA2JNS6HXrhlWWat6jhE1DUsCUQmMH5eZV+v3zcLwHwAsarzEBH1QLOUeATCf0/Rqn6lqsMQ0eGxJBAZ2Oj55QOEV58vBGYAcKvOQ0QUAB0QcgP88vbtazL3qA5DRAfHkkBkQGPmVozQpe9GSDEdgF11HiKiwBNeCH09/Npd29ekfaY6DRH9EEsCkYGMzi0ZpdmwAFJcDEBTnYeIKAR0AK/ounb7jjWpH6gOQ0SdWBKIDCAnt2yS1OQiAFNVZyEiUkUCmyHl4qLVGa+rzkJkdSwJRApl5ZdOFhK3AzhRdRYiIqOQwGYhcE/RqvSNUoIPKkQKsCQQhZgogJZVUzoFErcByFGdh4jIwD6UQi4bXJ7x9IYN8KsOQ2QlLAlEIZIzc7tDd6VOF7q4BQJDVechIjIPsRfAUuEpfXTbumyv6jREVsCSQBRkQ/L3uGJl1OWA/B2AfqrzEBGZ2DcCYrnT4X9wy7LMNtVhiMIZSwJRkExaVB3T3uq9SgKLAJmmOg8RURipBHC/bves2LF8QL3qMEThiCWBKMByZpYlS6ecAyAfQILqPEREYaxRCNxv0+W976/OqFEdhiicsCQQBcjY3KpU3eadJyXyAESqzkNEZCEtUuJhvybv/bAwo1h1GKJwwJJA1Esj8yoG2qR/nhCYAcCtOg8RkYV5IORzfh1/2Lk640vVYYjMjCWBqIdy8oqPl0IshBTTAdhV5yEiov+nA3hFSLF42+q0ItVhiMyIJYGom8bkl47WpbgZkOcBEKrzEBHRIUkAL0PIO7cXZvxXdRgiM2FJIOqinNyySVKTiwBMVZ2FiIi658ApztsL019SnYXIDFgSiA5DCIisvNKpkLgFwHjVeYiIqNeKBOTd21dnPC8l+BBEdAgsCUQHIQqgZdWUToHEEgBZqvMQEVGgiY+l0O+LS8p4ZtNi+FSnITIalgSi7xlRsMvprImbpklxqwSOUZ2HiIiCSwBfA2JlTHPHuk2PDmhXnYfIKFgSiACMXFgR5WjXrwHkDRLIVJ2HiIhCrlxKrNC8YtW2dWmtqsMQqcaSQJY2aVF1THur9yoJeROAVNV5iIhIMYFqSKzx+n0rP1p7VJ3qOESqsCSQJWXll6cIqecCmAsgXnUeIiIyGIkmCTyqObx3b1vev0x1HKJQY0kgS8mZV3aU7pPXC4FrAESqzkNERIbXAcjHbbr4w9Y16ftVhyEKFZYEsoSxsysH+TTfXCEwE4BLdR4iIjIb4YXQ1wup/XHbqrTPVachCjaWBApr2bOLT4Bd3AApLgJgU52HiIhMTwfwioQoKFqVtk11GKJgYUmgsDQmr3SiDtwEYAoAoToPERGFpdeklLcVrc54T3UQokBjSaCwkpNbNklqchGAqaqzEBGRNUhgsxC4p2hV+kae4kzhgiWBTE8IiKy80qmQ4lZAjlOdh4iIrEkAO3Uhlw8uz3h6wwb4Vech6g2WBDItUQAtu7rkXAmxBMAw1XmIiIgAQACf6kIujUvKeGbTYvhU5yHqCZYEMp0RBbuczpq4aUKK3wEYojoPERHRQUnsE0KscDr8D25ZltmmOg5Rd7AkkGmMyK2Kdmu+qyXkQgAZqvMQERF1USWA+4Wnffm2dYMaVIch6gqWBDK88fm1sR69fZYQWAggSXUeonDTN8GGxGgNMZEamlp11DbpqKjndGqiIKgBsNrl0Au3LMusVR2G6HBYEsiwRs6q6GO3+2cDmAsgXnUeonDhdgr8LCsCpxzvRs4QJ6IjtJ/8f5radGz70oM3P2rHqzva0OHlvYIogJqlxCO6X1+68/7MEtVhiA6GJYEMJ2tOWX9ALhAC1wKIUJ2HKFxEOAUuPi0al5wRhZiDFINDaWjR8fhrzVj/VgvLAlFgeSDkc7qQd+xYmblbdRii72NJIMPIyd9/tJTajYB2JSAdqvMQhZOswU4suSQBGUk9P3j8m0ofbnuyHp/s8wQwGREB0AHxAnQs3r4m7TPVYYgAlgQygKz8kpECuB5SXASg508wRHRQ558UhYXnxcHW9cGDQ/L6Je58tgEvvd/a+y9GRD+mA3hFE/odHxRmblUdhqyNJYGU+d7pyFMACNV5iMLRxadFY8E5sQH9mlIC973QgPVvtQT06xLR/xw4xXl7YfpLqrOQNbEkUMjl5JZNkja5BBJnqM5CFM6mjI3A7ZcmBOVrSwnc8lgd/lPErd+JgulAWShalb5RSvChjUKGJYFCQhRAy6opnQLI30OKMarzEIW7IRkOPHF9MpyO4A3StXkkLrq7Ct9W8UBZoqAT+EhC/mlwecbTGzaAexRT0LEkUFDlzNzu0F2p04UUNwE4TnUeIivQNOCphSkYmhn89f8793pwzcpq8FZCFCryKwGtsEG0PLC7cHCH6jQUvlgSKChGFOxyOmvipgkpfg9gsOo8RFZyzsRI3DotdEeL3PJYHf69ndOOiELsWwGxDB48tG1dGncSoIBjSaCAGpFbFe3WfFdLyBsBpKvOQ2Q1Ng34x5K+SE0I3UZh+yp8OO/OSo4mEKlRBWCtbves2LF8QL3qMBQ+WBIoIMbNKUnyCZEngTwBJKrOQ2RVZ4xyY+nVof8TnLO2Bu99xpkPRMpINEngUbt03LV1TUq56jhkfiwJ1CsjZ1X0sdv9swExD5BxqvMQWd2frk3EqSe4Q/65G7e2YvGTfIlJZAAtUuJhvybv/bAwo1h1GDIvlgTqkdHzywcIrz5fCFwLIEJ1HiICnHaBN5emwhXEHY0OpbFVxxk3lUPnLYXIKDwQ8jm/jj/sXJ3xpeowZD4BOH+TrGTUnPLh2fklT2g+fbcQyAcLApFhDOvvUFIQACA2UsPR6cHfTYmIuswJKS61CfFZdl7pSzlzyrJUByJzYUmgLhmdWzIqO7/kCZvQP4QUlwKwq85ERD90TIbah/RQbLlKRN2mAZgqhdyWnVf6UnZ+yXjVgcgc+KBHh5WTWzZJanKRpokpkFDzipKIuiQzOXQ7Gh1MP8WfT0SHJQBMhRRTs/JKNwuBe7YXpr+kOhQZF0sCHVRWfulkoaMAGiaozkJEXRMfpfYhPT6ag9NEZiCAiZD4R3Ze6Q4Bedf21RnPSwmuKKIfYEmg/ycKoGXVlE6BxG0CyOG4AZG5uJxqPz/SxZJAZDKjJcSGrDkln2Tl4964pIxnNi2GT3UoMgaWBELOzO0O3ZU6PUuKmwEcqzoPEfWM36/28+2cbURkUmKEkHi8qbp0SU6eWBnT3LFu06MD2lWnIrX42sfChuTvcWXnlc2QzrQ9QorHwYJAZGqa4tE/Dj4SmZsEBkrIFQ3Rzn1Zc0oXjVxYEaU6E6nDkQQLmrSoOqa91XtVLCJvBGS66jxEFBhC8Wsf1Z9PRIEhgL4QuNve4b8hO690jdfvW/nR2qPqVOei0GJJsJCcmWXJ0innAMgHkKA6DxEFlibUvstX/flEFGASyQAWOzT7gqw5pY9C+O8pWtWvVHUsCg2WBAsYP6+yr0/3zZdOzAHAoUOiMOX3q92cROdxy0ThSSBGAPmAbWZ2XsnjwqbduW1F2reqY1FwsSSEsZF5FQNt0j9PCMwA4Fadh4iCq6FFV/r5dc1qP5+Igs4FiBnSjyuz80vWC6n9cduqtM9Vh6LgYEkIQ2PmVozQpe9GO8R0CP6MiaxC9UO66s8nolCRDkhxqYS8ODuv9BVd127fsSb1A9WpKLD4ABlGxuSXjtaluBmQ5wGcHExkNfUcSSCi0NIATNU0vfMUZ8jbtq/KeEN1KAoMloQwkJNbNklqchGAqeCBiUSWVd2o9iG9plHxQQ1EpIwAJgLi9ay80s1C4J6iVekbeYqzubEkmFhWfulkIXE7NJyoOgsRqbe/Su1Bqd9UsiQQWZ0AJkLiH1lzSj/MypfLBpdnPL1hA3hxMCEhJUuemYgCaFk1pVMgsRhAtuo8RGQcEU6Bd+5LUzLZUJfApOvL0OHlPYWIfmAPIO6NTU57ZNNiqH2TQd3CkmASIwp2OZ01cdOELm6BwFDVeYjImF65vS/6JthC/rmltX78cnFFyD+XiExCYp8QYoXT4X9wy7LMNtVx6Mh4PqbBDcnf48rOK5vhqo7fI6R4nAWBiA7n6wo1L+r2lfMFIREdhsAACbmiw6vty84rXZIz86s41ZHo8FgSDGrSouqYnLyyubEy6mtArgPQT3UmIjK+PaVeNZ9bpuZzich0+gBYLJ3ub3PyS++esKA4UXUgOjguXDaYrPzyFCH1XAD5ABJU5yEic9lTquaN/t4yjiQQUbfESolFHV4tN2tO6SO6X1+68/7MEtWh6H9YEgxibG5Vqm7zzhMSeQAiVechInPaq+iNvqoRDCIyvWghkG+za9dl55c8pwt5x46VmbtVhyIuXFZu7OzKQT7NN1cIzADgVp2HiMzN5RB49740aCGcTKrrwKQbuLMREQWEDogXpBBLigpTd6kOY2Vck6DIqDklx2TllT7tt/m+FAL5YEEgogDo8EoU14R26s/+ah8LAhEFigbI84XUP87OK12fnVt2nOpAVsWSEGKjZhVnZM8pfdQmxC4BXAQg9HsVElFYC/W6BK5HIKIg0ABcCE1+nJNX9vioWcUZqgNZDUtCiAzJ3+PKySu7yWbXPofAFWA5IKIg2Rvi9QFfcWcjIgoem4S8zGbXPs+ZU3bzkPw9LtWBrIIlIQRy5hSPi5WRRRLyLgDRqvMQUXgrqfGH9POKq0P7eURkSdFSyD/GysiiMfnFY1WHsQKWhCDKmbndkZNfercU2mYAw1TnISJrKK8L7UN7qD+PiCxtmC61zVl5JX88rYC7dAYTS0KQjM0t7ScdaW9KiUXg1CIiCqFQP7SX1bIkEFFI2QXEzY01JVtG5lUMVB0mXLEkBMGYOaVn+jTshMAE1VmIyHoq6vwI1e7WUgKV9SwJRKSAFGPswr91TF7xqaqjhCOWhADLziuboQvxsgB4zDgRKeHxSdQ16yH5rJomPzw+bn9KRIpIJOvQXs3JK52tOkq4YUkIECEgsuaU3QfIdYB0qM5DRNYWqilAnGpERAZgl8Ca7LzSJaqDhBOWhAAQBdCy5pSuE0JerzoLEREQunUJ5SwJRGQci7PzS1eLAj7fBgK/ib0kBERWVenDAK5VnYWI6ICKEJWECq5HICIjkcjNqiktVB0jHLAk9FJ2Xtl93x2ORkRkGJUNLAlEZFESudn5JctVxzA7loReyM4rXSKlXKA6BxHRj9U0hubhvbohNAukiYi6RYp5WXNK+IzWCywJPZQ9p+QCALepzkFEdDDVjSHa3ShEZYSIqLuEEPfm5JX9RnUOs2JJ6IEx+cVjIcTjAITqLEREB1MdoulGoSojREQ9oEnIp8bMrRihOogZsSR00wmzv02QUlsPwK06CxHRoYTq4b0qRGWEiKiHoqTuf2F8fm2s6iBmw5LQDUJAOGyOJyXAI8CJyNCa2nR4vME95KzdI9HawYPUiMjYJHCMV29fqzqH2bAkdENWXskMQE5RnYOI6EikBGqagjuawFEEIjINgYu/W09KXcSS0EWj55cPgC7uVZ2DiKir6pqDWxKC/fWJiAJKiNXj51X2VR3DLFgSukjzydUQiFGdg4ioq1o7gvsQz6lGRGQyKV7dyxe+XcSS0AWj55T+mtOMiMhsgv0Q39LOkkBEJiPFJVn55aeojmEGLAlHMCR/j8smwFP7iMh0gl0S2oI8UkFEFARCk/oKUcBn4CPhN+gIYmTkDO5mRERm1BbskQRONyIiE5LAqNFVpVzEfAQsCYeRM7MsUgC3qM5BRNQTwS4Jwf76RETBIgRuP60AdtU5jIwl4TCkAzMApKrOQUTUE60eLlwmIjqEIY01ZReqDmFkLAmHcMEFsEHoeapzEBH1VIcnuA/xHUE+rI2IKLjkjUJAqE5hVCwJh7C3T8m5gBikOgcRUU9pgvc+IqJDkjghZ04xdzo6BJaEQ9HEDNURiIh6Q/AKT0R0WH5o16rOYFS8hRzE6PnlAyBxmuocRES9oQV5IMHGOwgRmZwAzpmwoDhRdQ4j4iX+IGw+/6Xg94aITM7tDG5LCPbXJyIKAXe7V3A71IPgg/BBSGjnq85ARNRbUe7gPsQH++sTEYWCgDhXdQYjYkn4kdFzi4cA8njVOYiIeivKHdxLfLC/PhFRiJyaM7MsWXUIo+EV/kc0v22K6gxERIEwNMMR1K+fmWwL6tcnIgoRu+6SZ6oOYTQsCT8hT1edgIiot4ZkODAwNbiHiQ47ygmnnVOOiCgs8PnvR1gSvqfzADVxsuocRES99atxkUH/jEiXwKThrqB/DhFRsGkSZ6jOYDQsCd+zN61sFCDjVOcgIuqNzGQ7zjsp+CUBAK44MwY8s42IzE4CA8fmlvZTncNIWBK+R0hMVJ2BiKi3FpwTG7JpQMP7O3DhyVEh+SwiomDya5igOoORsCR8j5SSvxxEZGoXnhyFU453h/Qz5/82FpOGh/YziYgCTYAvi7+PJeGHWBKIyLROGOjE/HNiQ/65dpvA0qsTMOYYrk8gIvOSLAk/wJLwnZx5ZUcB4Fw0IjKlwekOrJiZCIdNzQIBl0OgcFYiJo+KUPL5REQBMHLSouoY1SGMgiXhO7ou2R6JyLRWzExEXJTaS7rTLnDbxfFKMxAR9YKttaVjrOoQRsGS8B3OQyMisxIC6BtvjIPNIl0CGnc7IiKT0iD4PPgdloTvcGcjIjKrCKeAZpCruRCA28mWQETmJAXXpx5gkNuKWiNyq6IlMEJ1DiKinoiOMNal3Gh5iIi64cQLLoAxhmYV45UcgNPmHQ/ArjoHEVFPRLmN9eY+0mWsPERE3RC7N7l4uOoQRsCSAE41IiJzi3Ib61JutDxERN0hNK5LAFgSAHBfXCIyN6ONJBgtDxFRd0guXgbAKTa44ALYRF8xFpCqoxARHVJspIaUOA3JcTakxNqQHKchJc6G5FgNA1MdquP9wDU/j8bEYS6U1/lRWe9HZb2O8jo/ahr90HmpJSLjY0kAIKS09hV7dG7JKE0TO1TnICJr0wSQlmhDRrIdmck2ZCTZkZliQ2ZS538Ph8XAPr9EdaOOijo/yuv8KKnx46syL/ZV+LCvwoc2j7XvR0RkHD4h+31YmFGsOodKlh9J0ASHlIgotNISbRiUasfgdAcGpdlxdJoDg1LtcDnCe5qO3SaQmmBDaoINI3/0v0kJlNf5sa/Ch6/LfdhX0Vke9pT50NCiK8lLRNblkDgRwF9U51DJ8iVBCkwI79syEanUL8WO4Uc5MKy/A8OPcmJIhoNz9g9CfDeSkpZow4nHuX7wv5XW+rHrGw8+/caLT7/14vP9HrS0c9SBiILnu/WqLAlWxuFVoOsAACAASURBVJOWiShQYiM1jBrkxPABnYVgeH8HYiPNP01ItfREG9ITIzB5dAQAQJfANxU+7PrWi13fdpaHz/Z74fOzOBBRoHCmiaXXJGTl7U8XsJWozkFE5hTlFhjR34mxQ10Yd6wLQzMd0DhIoES7R+LDrz348CsPdu71oGiPB16WBiLqOV+H7kj4ZE1Ks+ogqlh6JEFIbRJ4QyeiLoqO0DBuqBM5Q1zIHuLCoFQ7BK8hhuB2Cowb6sK4oZ1TlVraJYr2dGDbbg8++LIDu0u83FmJiLrD7rZ7xgDYpDqIKpYuCRJiIu/vRHQ4QzIcmDjMhQnD3Bg1yAkbZw+ZQpRb4KQRbpw0wg0AaGzV8d/PO/D2x+3YvKsDja1cDE1Eh6d3HrbLkmBFQmCC6gxEZCwRToFxx7owcZgbE4e50DfBpjoSBUBspIafZUXgZ1kR8OvAzr0dePuTDrz1cTv2V/lUxyMiAxLS2s+Jll2TMHJhRZS9Xa8DpLFOISKikIt0CZw8wo3TR0Vg4jAX3E6OMVrJ1+U+vPVxO97+pB0f7/NA5yADEQEARENRclqiXAxLXhUsO5Lg8PjGSggWBCKLcjsFxh7jwuTRETh9lBsRLAaWNTDVjoGp0bjizGg0tOh4fWc7Xv6gFR9+5YFF36MREQBAxuXUVgwD+n6iOokKli0JugTXIxBZjNMucPLxbkwZG4Hxx7rgtPMqQD8UF6XhnImROGdiJL6p9OGf29rwr21tnJJEZFG69E0EwJJgJYL73xJZxnH9HJg6LhI/z45AQjRXHlPX9O9jx3Vnx+C6s2PwVbkPL29txUvvt6Km0ZIzD4isaiKAdapDqGDJNQmiAFpWdWk1gATVWYgoOPrE23D2mAhMHRuJgamWfR9CAabrwOZd7Xhhcys272rn+gWisCe/2r4q42jVKVSwZEnIySs+XkL7SHUOIgosTQAnHufCeSdFYdIwNzQOGlAQldf58eKWVvz9vVZUNfhVxyGiIBF2b/q25f3LVOcINUu+XpNCTID1uhFR2IqJ0HBmlhsXnRrNUQMKmdQEG2ZNicHMs2PwwZcd+OvmVrzxYRtHF4jCjO5zTgDwguocoWbVuynXIxCFgREDnDh/UiR+lhUBp4OLkEkNTeD/T3suro7Bi1ta8eKWVjS0sC0QhQPR+dzIkmAJkiWByKw0AZx6ghuXT47GiAFO1XGIfiAz2Y68X8Ximl/E4O/vteLpN5pRWsupSERmJi36ctlyaxLGz6vs6/X7ylXnIKLucdgEfp4dgSvO5JQiMg9dAps/bcef/92MT/Z5VMchoh4RXuFB/LZ1aa2qk4SS5e60Hr9/EiclEJlHlFvgV+MjcdkZ0egTb1Mdh6hbNAGcNMKNk0a48eFXHjz2ajPe+bSdh7QRmYp06C5tDIC3VCcJJcuVBE1gAi/ORMaXEK3hssnROG9SFCJdrPZkfiMHObF8ZiK+LPHi8dea8Z8iLnImMgsBOREsCeFNcj2CKdk0ID5ag9sp0NIuUd/MO2u4iovScNkZ0bjgZJYDCk/HZDhw5+UJuObnMVj3zya8vqMNOl9ehR2HTWBgqh0ZyTbER2kQAvD5gZomHfsqvCip5loVM7Hi86Ol1iRMWFAc0eHV6gFwtaPBRbkFTh8ZgXHHunDCACdSE22wfW/P+w6vRFmtH5/v92Lzrna891kH6lgcTC02UsMlp0dh+qnRLAdkKV+WeLHulSa89TGnIZldYoyGX+RE4OQRbowc5ITTfuhrWV2zjnc/bcc/t7Vh6xcd/NkbX31RcnqSXAzLPGxYqiRkzSk7WQhpqaEis+mbYMNVZ0bjl+Mj4erGlpa6BN76qB2PvcbFgWYTHaHhktOiMP3UKERH8PQzsq5Pv/HigVcasWVXh+oo1E39+9hx1c+j8YvsCNht3X/JsbfMh1X/aMQ7n7QHIR0FihTa8KLC1F2qc4SKpUpCzpyym6WQf1Sdg35KE8BFp0Vj9tSYbpWDg/ngyw7c9VwDvqn0BSgdBYPdJnDuxEjMOCsG8dEsB0QHfPiVB2s3NmHbbpYFo3M7Ba47OwbTT43qUTn4sdd2tOHO9Q1obLXMy2pzEWLG9sK0h1THCBVLlYTsvLKNgJyiOgf9UKRL4K4rEzBpuDtgX7PDK7HmpSY8+2Yz5/oa0KknuJH/61j072O5ZVFEXbZ5VweWv9iAr8v5wsOIBqc7cPeVCQHfknlfhQ95a2t4voYBSYjHi1alXaE6R6hYpiQIATF6Tmm1ABJVZ6H/iXAKPJCXFLRDsd7/ogO3PFbHhc4GMby/A/N+E4eswVwWRNQVPr/E8++2Yt0rTXy7bCA/z47AbRfFw+0Mzvqpslo/rlxWjaoGFgWD2bN9VfoQ1SFCxTIlISu/fJiQ+qeqc9D/aAJYMTMREwM4gnAwpbV+3PBQLb4o9gb1c+jQ+sbbkP+bWPw8KwKCa5KJuq2xVce6V5rw/Lut8Pmtcd82Ik0D8n8Vi0vPiA76Z32+34sr/lQNL3/ehmLTHWlb16RY4lBey0wE1nQ5QXUG+qHLJkcHvSAAQHqiDY8uSMZZORFB/yz6IbtN4LIzovH87/rgF9ksCEQ9FRupYeF5cVh/UwomDnOpjmNJsZEaVs9OCklBAIBj+zlw3ZSYkHwWdZ1f+E5UnSFULFMSZOchGGQQaYk2zDwrdBc/l0PgD5cn4KqfhebiTsCYY1x49qYUzP1NLLc0JQqQgal2FM5KwqpZSVzTE0JJsRoezE/CuKGhLWgXnx6FzGT+nI1EwjrnJVimJEBY54dqBteeFQNnL3cx6oncX8Zi7m9i+UY7iFLibPjjFQl4IC8JgwK8oI+IOk0Y5sL6m1Nw7VkxcARgVx06tPREGx6el4whGY6Qf7bDJnD5ZL7cMhIhrPPS2RJrEnJmliVLp6wEwCupAcRFafjnHX17vdVpb7ywuQV3P9fAnY8CSNOAaadEYdYUjhwQhdLX5T78YX09du7lGTGBdlSKHevyk9An3qYsQ5tH4me3lKO1gzcsYxBe4UH8tnVpraqTBJs1RhKcmAQWBMM4eYRbaUEAgHMnRuHG8+OUZggn/VLseCAvGdefE8eCQBRiA1Pt+PPcZNx+aQLioqxxWw+FPvE2rJmjtiAAnbsAjg3xNCc6HOmQLmSrThEKlriaSMlFy0Yy7lhjXOzOPykKM8/morDesGnAVT+LxoZbUpDNbU2JlBECmDI2An+5pQ/OzOImDb0VH61hbW4S0hPVFoQDsgcb475JnYS0xhR2S5QEWGiRiRkcmxn6eZ2HMuOsGEw7JUp1DFM6JsOBJ25IQe4vY+G0c/SAyAiSYjXcfWUCVl6XiL4JxnjANZsIp0DhdUkBPyStN45ON04Wss5mOGFfEobk73FBIEt1Dvqf9CRj3biuPzcOk0fxzVtX2W0Cs6bE4MmFyTi2n3EKHxH9z6Thbjx3cwq3fu4mmwbcc1UChvc31rUtJc5Y903CRFEQ/s/QYf8vGC8jcwAEfzN+6hKnQyhfj/BjmgDuuCweo4/mdJkj6d/HjkcXJOOaX8TAzh1ViAwtJkLDHy5PwN1XJiA2Muxv970mBHDr9PiQnN/TXVFc62U0CVmVZUNVhwi2sL9q6JxqZChSV53g4JwOgWUzErll52GcMzESTy9KwbCjjPWGjYgO78ysCGy4JQXjDbIezKhmnhWDX4+PVB3joHx+1Qnox6QW/utdw74kgCXBUHy6hMdrzG3cYiM1rJqdxGHdH0mI1rBsRiJunRaPCCffZhGZUUqcDatnJ+HG8+MMN5prBOdMjMS1ITzgs7vqmtkSjEZY4PkyrEuCEBAALHN8thlICZTVGfdil5pgQ+GsRES5eRMFOg9seu7mPjjleOMNvxNR9wgBXHhyFJ7hiOAPnDzCjZsuiFcd47BKaox737QqlgSTG5lbMgRAiuoc9EO7S7yqIxzWMRkOLJ+RCLeF35rbNGDub2JReF0SkmLD+jJBZDkD+nauLbrk9GjLnz4/bqgLd1+VAJvBL3O7vjX2fdOKJDBk5KyKPqpzBJPB/yx6xyZE2Lc8M9phglNBs4e4sHxGoiWH5ZNjbXggLxmXncEHCKJwZbcJzP9tLO67JhExEWH9KHBIY45xYZlJrvMffNmhOgL9lNBs/rCerRLWVwYrDAWZ0TuftKuO0CVjh1qvKOQMceHZm1KQxYPRiCzh1BPceOrGZAw10Pk1oZA9xIUVM80xYlxS48cXxRxJMCItzJ8zw3orFxnmPzyzKqnxY8dejym2HB13rAt/ujYRCx6qNeyC60AQArjizGjMnhILLaxfHZiTzy9RUuPH/iofvqn04dsqP/ZX+nD9uXE4Os24l/G9ZT786YUG9Euxo1+KDf1S7Ojfx46MZBsc3ELXMDKT7XhsQTKWPt+AF7e0qo4TdFmDnVh5nTkKAgC8uKVFdQQ6tLB+zhRShueDz7g5JUk+IaoAmOMqYDGTR0XgnqsTVMfosi27OnD9Q7Xw+MLv76VzL/V4TDLg3uBWo+vAN5U+fLbfi8/3e7Gvwotvq/worfHBf5Dtg/9yax9Db9v7dbkP591Z+ZN/rmlAWoINQzIcOObAfzIdyDDYQYtWtHFrK+56rgHtnvC71gHA6KOdKJyVhEiTnDvQ0i7xyyUVaGgx6P7h1BHb7Inf9OgAc0yR6Cbj3l16yaeJCZAsCEb1+odt+KI42jRD3BOGuXDfNQm44c91YVUU+vexY/nMRPTvE7aXAsPSdWBfpQ+ffevFZ/s9+Gy/F18We9Ha0fXfr2iD78J1qF3CdL1zRLGkxo83P/rfvTU6QsMxGXYc28+BEwY4MXKQE33iWRxCaerYSBzXz4mFf67FN5U+1XECauQgcxUEAHji9WYWBGNzNUc7swFsVh0kGML2yUBKTDDPZcB6pATu+UsD/jwvGZpJflATh7s7i8LDdWEx9WjCMBf+eEWCZRcthlqHV+LjfR5s3+1B0R4PPv3Gg7Zevq2NNvjPrrv5mtt0FO3p/P48g84pFmmJNowc5MTIgZ2lYUi6g1PiguzoNDueuCEZNz9Why27wmPBbPZgJ1ZcZ66C8HW5D0+83qw6Bh3Bd4f2siSYCRctG9+HX3nwzKZmXHJ6tOooXTZxuBsrZyZiwYO1vX7AU+mS06Mx99dcfxBMPr/Ezq88eP/zDhTt9eDTfV54/YH7ndE0GP5wuwingKZ1jhz0VFmtH2W1bfjXtjYAnYcejh3qwonHujD+OBdSEzjSEAzRERpWzkzCn/7agPVvmXtO/LhjXVh2rXnWIACAxyvx+yfC44WUBYTt82ZYrknImbndIZ1p9QCMeb46/T+7TeCBvCRTLGL+vh17Pci/v6ZbU0OMwGkXuGVaHH45jn8awVBW68eWz9qxZVcHtn7REdTfj5gIDW8uTQ3a1w+UU28sR1Nb8KZLDOhrx/hjXZhwnAtjjnHBaaHdyELlhc0tWPqXRvgCWHJDZdJwN+69OsFUvxdSAgVP1+Ol98N/EXlYEKguWpXeR0qY7w/kCMKyJGTnl4yHFO+pzkFdExup4aG5SRicbo71CQd8vM+DvLW1QX0ACqT4aA3LZiRi5EBzFTKj+2y/F2/sbMObH7Xjq/LQzeFOS7RhY0HfkH1eT01dXIGy2tCcFhvpEpgwzI3TRroxaZjL8NOxzGTrFx1Y9EgdGlvNcb0DgNNGunHXlQmm20lr+YuNeOoNTjMyE82GYz9Ykf6F6hyBFpbTjQQwMfyqT/hqbNUxa3UNVsxMwvD+5ikKxw9w4oG8JMxeU2P4hWUZyTasmpXEBcoBoMvOqXJvfNiGTR+2h+wB+Mei3OZ4AO7MGZrvUWuHxGs72vDajjY4bAJjhzpx2sgInHqCGwnR5vh+GdXYoS48dn0y5q8zx4Lmn2VF4I7L4mE3UUHw68Bdz9VbYhvacKP7MQFA2JWE8BxJyCt5ARDnqM5B3RPhFFhySTwmj45QHaVb9pb5MGdtDSrr1TwsHsmwoxxYeV0SEmP4kNQbu0u8ePmDzrnxVQ3qf9ajjnbi4XnJqmMc0dUrqrFT8SnrNg2YMMyNs8dE4NTj3aaaemI0ja06Fj1Sh61fGHdB83knRWHReXGmWnPV2Krj5kfr8N/Pjft9pUMTwMPbVqVfozpHoIXpa0XtRITf1LCw1+aRWPRIHaaf6sGC35rnAn9gJ5C5D9Qa7lTMcUNduPeaxENuRUmHV9Xgx+s72/HS+634fL+xfrbRphpJUMuvd570/s4n7YiO0HDq8W6cPTYCY49xQfBPo1tiIzWsnp2EO5+tx9//a6w33kIAM86KwYyzYlRH6ZZvKn1Y8GAt9lUYf4SGDi5cD+8Nu5GEnPz9R0tp26M6B/XOhGEu3Hl5AmIj1T9gdFVzm46FDxvnDduvxkfid9PjYTPPt9AQDjxQ/nVLK97b1Q7doJfIX2RH4M4rjH8g4a2P1eFf29tUxzio9EQbfjsxCr85MZIjbd2kS2DZXxvw7JvG2PnIYescif5FjrlGol/f2Y4lT9WZbhMM+gkphda3qDC1SnWQQAq7kQQd2kS+GDK/Lbs6cOm91bj9snjTLLSNjtBQOCsRdzxTj5e3qn0ouvrnMZg1JYZvSbuhrNaPv73Xir+/12qI6URHYpbRISPnLK31Y81LjXjwlSacNtKN806KQvZgc1xvVNMEcMO5cUiI1rB2Y5PSLDERGu67NgE5Q1xKc3RHS7vEir814MUtrQizd7VWJQT08QBeUh0kkMKuJAgZnkM+VlRc7cM1K6px8WnRmD0lxhTziB02gYJLEpCaYMfD/w79jVMIIO9Xsbh8snnOnlDtgy878PSmFmz+1LijBgdjlp17zJDT65f4T1Eb/lPUhkGpdpx3UhR+OS7SVAdvqXL1z2OQEG3DXRvqe3UeRk+lJdqw8rokHJ1mnseZ97/owB3P1Cvb9ICC47vzuVgSjExAcGejMKLrwJOvN+PdT9tx67R4U5ynIAQwe2oMBqXaccez9WgP0aFrmgBuPD8O558UFZLPMzOPT+I/29vw9KYWfFlirLUGXWXkN/TfZ5acB3xV7sPSvzTg/o1NOHdSJKafGoXkWB7YdjjnTIxEXJSG3z1eB48vdHfgcUM7T42PN8nOVTWNOla/1IiX3ufoQTgKx3UJYbUmYfT8ffGaz1kDwBxXDOoWIYDJoyMw99exSEs0x017d4kXCx+uw/6q4C5I0zRg8UXxmMpD0g6rqU3Hhrdb8NzbLahpNPa2tUey8Lw4TDvF+IVw/VstuPf5BtUxesxpFzh7bAQuPT0aA/qG3Xu1gPrgyw4seLA26PPrhQAunxyN3KnmODXe45N4ZlMLHv53E9cehLeORtEat7twsDEWJgZAWF3xhM99IqCb4JJBPSEl8GpRG97+uB2XnB6NK86MNvx0gCEZDjy1MBl3bWjAv7YFZ52CwybwhyviMXmUuRbshVJds45nNjXjubdb0NIeHjfpaJO8oY+OMEfOQ/H4JP62pRX/eK8VJx/vxpVnRmPEAOOPaKow5hgX1uUnI3dNTdAOXUuOtaHg0niMP9b46w+kBP5d1Ia1LzWipIZTiyzAFaNHZAEIm8N8w6skQIbdUA/9VIdX4uF/N+HFLS249hcxOGdipKEPzImO0HDn5QmYNNyNuzc0oDmAJzQ7HQL3Xt35temnqhv9ePL1FrzwbgvaQjTtK1TMMNcfMM9WrUeiS+DNj9rx5kftmDTcjeumxOC4fuY5/DFUhh3lwP1zkjBrdWCLghDAGSMjcNOFcaY4GO+DLzuw8m+N+MxgWydTcGlCTARLgjFJgDsbWUhtk457/tK5BV/ur2JwxsgIQ+/mc1ZOBMYNdeGpN5rx0vutqG06+A3UYRPw6fKIc1YdNhaEQ6lv1vHoq83Y8E4LPN7wKgcHmGWuv9lHEg7m3U/bsXlXO0453o2ZZ8fgmAyWhe87tp8Da+ckYXYXi0JyrA0xkQKNrTq8vs5CJgD0ideQlmjHiP4OnDE6AoNSjf/IsqfUi8K/N2LzrrCZcULd8N26hPtU5wiUsFmTcFoB7I3VpXUAuK2LRR0/wIl5v4nFKBMsbtZ1YHepF1+V+9DWIRHpFkiI1pCRZENaoh3//awdS56uP2SRsNsE7rkqAaeewILwfa0dEk+/0Ywn32gOm2lFh/LUjSmmeJP92X4vLlkaVluH/8CBN9zXTYnBQBM8xIbSZ/u9RywKvxofiYXnxRl+6uiRVNT7cf/GJry8tdVUu6RRgAlUF61K7yNleJzoGzYlYXRu+RhN07eqzkHqnZkVgevPiUVKnDkWNx9KbZOOgqfr8e6n7T/455oG/PHyBJyZxTUIB3j9Es+/04qH/92EumZzL0juqhdv64OjUoz/ULq/yoff3F6pOkbQ2TTgtxOjcN3ZMaaYDhMqhyoKsZEabp0Wh8mjzX0d8+vAc2+14P6XG7komQAAuqYfs2Nl5m7VOQIhbK5kmuB6BOr0alEbfnt7JR57tVnJvt2BkhijYeV1ibj90gREODvfsmkCKLiEBeH73v+iAxfdXYX7XmiwTEEAzDPXP8okOXvLrwPPv9OCXy2pwIP/bArbaW7ddVw/Bx7IS0Js5P9+D04Y6MRTN6aYviB8UezFlcuq8Ke/NrAg0P/TpAib59GwGUnIzivbAMjzVecgYxma6cCt0+IxvL/xp2UcztflPvzuiTqcOzEK50zkNqcAsK/Ch2V/bbDs3N/3lqfBaTf+FA2PV+LEBWWqY4Rc3wQbcqfG4uwxxl4rFSpfFHsxZ20Nzj8pCtf8PMYUW5ceSnObjgdeacJzb7eY+kUUBc1D21elz1AdIhDCpiTk5JXul0Cm6hxkPDYNmHZKNK6bEmPqea9Sgg8bABpadKzd2IS/brHuDdppF3hveZrqGF124vyykB6yZSSjj3bi5gvjTXUicLB4vBJOh7kvYq8WteFPf21EVQO3NKVD2rV9Vfpw1SECISxKwuj55QM0n/616hxkbH0TbLjpgjicPIKLfc1ISuDlD1qx4sVGS00rOpiEaA2v3ZWqOkaXnXlL+SEX4VuB3SZwyelRuPYXMXA7zf2QbFUV9X78cX3DT9aIER2EdDn05C3LMmtVB+ktEw/4/Y/m53oEOrKKOj/mr6vFokfqLP+QaTb7q3zIXVuDxU/W82cH85yRcECky1x5A83nl3js1Wb89o5KvLYzOIcqUnBICby8tQ3T7qpiQaCuEh6fOFF1iEAIi/FPno9A3fHajjYU7enAwvPi8DMuADY0r1/ikX8347FXmy07XeVgzHJGwgExYXhWQk9U1vux6OE6nHpCGxadH4c+8ebegS3clVT7ccez9fjgS2uue6Ke0yUmAnhZdY7eCouSwJOWqbtqm3Tc/GgdXt7ahlumxaEvb9aGs7vEi8VP1eOLYp5Y+mNm2dnoAKvscNRVb37Ujm27PZj761huRGBAUgIvbmnF8he5axH1jEB47HBk+iv3+PzaWEiExQIRCr13P23HtLuqsHFrq+oo9B2vX+L+l5tw8dIqFoRDMNspxmbLGwrNbTruXF+P+etqUdPIKXRGUVrrx9UrqnHn+noWBOqNMSMKdhn/ZNcjMH1J8KFjPAC+BqYea2zVsfjJetz6WF3Yn9JrdF8Ue3HpvdX487+a4Odz0yGZbbqR2UY+QuntT9px3p2V+Nd2rlVQ7T9FbZh+dxU+/MqjOgqZX4S7Kna06hC9Zfort86pRhQg/9rehul3V+LjfbxBhJqUwJOvN+Py+6qxu4SjB0ditodujiQcXmOrjlsfq8Oih+t+cjIxBV+bR+L2p+tx86N1aG7j958CQw+DKUfmutMchABM/0Mg4yip8ePq5dV48J9Nlt2DP9Rqm3TMXVeLFX9rhNfPkZyuMNvuRlyT0DWv7WzDtLursGMvX1SEyt4yHy6/rwp//y+nnFJgCWH+51NTX7kvuAA26BirOgeFF78OrHulCbNW16C6kQfmBNO7n7bjwrsqsZlbC3aL2Q4FNNv0KJUq6vyYWViNP/+7CTo7c1A993YLLllahb1lPtVRKAxJjiSo9VWfspEQiFGdg8LTtt0duGRpNT79hm/1As2vA8tfbMS8dbWWPmSrp8w2fcdseVXz68D9G5swa1UNT/YNAo+vc3rR0r80cGtlChoB9M3J33+06hy9YeqSoAuuR6Dgqmrw45qVNdj4PoeiA6W6sfNN6VNvNCMMDnxXwmxrEjjdqGe27e7A9Lur8N/PuU9/oNQ26ZhZWMPpRRQSOjRTP6ea+sotgAmqM1D483glFj9Vj1X/aORDbS8V7fHg4nuqOee6l8z2Zj6a0416rK5Zx5y1Nbz+BEBJjR/XrKjGR1/z+kOhIXRzP6ea/TA1Uzc0MpfHXm1GfYuOWy6Mh83U9VqNJ19vxqp/NHJr0wAw25t5s418GI2Undef4mo/Fl8cb7o1KUbwRbEXc9bWcHojhZbJFy+b9so9alZxBoB+qnOQtfxtSyvue6FBdQxT8fgkbnuyDiv+xoIQKGZ7M8+Fy4Hx2o42XPGnKuyv4kLb7qhq8GPuA1z/RCqI4RMWFCeqTtFTpi0Jmk07SXUGsqYNb7fgfc4R7pID839f3sqDogIpymRboJpty1Yj21vmw2X3VWPLLl6DuurO9Q1cAE6qiHavfZzqED1l2it3OOw/S+b1wCtNqiMYXufpyVWc/xsEHEmwtsZWHfPW1eD5d1tURzG8HXs9eOcTbrFM6ggTH/pr2pIALlomhT7e5+GQ/2G880k7rl5ejfI6vr0LNCHMuSZBsCcElF8H7nquASv/1sjzFA7jxS0sUqSWNPH6WXPdab4zcmFFFIATVOcg65IS+Pd2TqE5mBe3tOL6h2rR5uGTSzC4HcJ0C+c1DYhwsiUEwxOvN+PmR+rQ4eXf28G8/zlHMkktATluRMEup+ocPWGyW00nW5tvPMy/MxOZHPcu/6nHXm3GH56t5wLlIDLr/H6zjX6YyWs72zCjkDv3/Fhzm47qhQlFygAAIABJREFURo5mknIRjsrEkapD9IQpr9paGBx1Teb3+X4vdN6TAXROfbj96c6zJCi4zDq/32xnO5jNJ/s8uGp5NUpr+VB8wP5qfi/IGDSTHv5rypIguWiZDKDNI7GvkusSPD6JGx+u5QmmIWLWkQSelRB8+6t8uGZ5NfZV8LoEgCMrZBjCpOsSTHfVFgXQAGHa7aQovHxdbu2bcbtHYv66Wrz5EXcPCRWzjiSYNbfZVNR3nir8+X6v6ijK1TVzJIGMQQo5SXWGnjBdSRhdU3I8IONU5yACgP8UtVl2/n1Lu8SctTVcmxFiMSZ9I2/WERAzqmvWMXNVDXbute6i3S+KvVj1d25VTYaROjKvYqDqEN1luqu2pnPrUzKO13a04fqHatFusZ182j0Ss1ZXY4eFH0JUMesbebOd7WB2zW06ctfW4IMvrVfit37RgWtXVnPRMhmKHbrpphyZriRILlomg3nnk3bMKKy21PxXt1PgsjOiERtpukuI6Zn1jTx3Nwq9Cce5cEyGQ3WMkHp9ZzvmrqtFS7u1XtyQ8ZlxXYIZr9qm+yZT+Pv0Gy+uWFaFby10wNrk0RF49qYUZA825fbPpmXWXYLMmtuMXA6BhefF4d5rEhEXZcbbfM+sf6sFNz1SCw/PjCADkkKabiaMqa4eWXn70yEwQHUOooMpqfbj6uXV+MxCCwZTE2xYl5+MhefFwWHjQ2AomHW6kVlzm83w/g6svzkF006JUh0lZKQEHvxnE+59voGnT5NxSYzImfmVqdbUmqokaNA4ikCGVtuko6LOWvNghQCmnRKFRxYko38fnnEYbGadtmPW3GahacAVZ0bj4fnJOCrFWn+HUgJvf8wd1sjwNOmMGK86RHeY6qotBRctk7GdMcqNU09wq46hxLCjHHj2phRMP9U6bzBVMOu0HbPmNoO0RBvW5SUj71exlhzR0zRg8cXxsFvw353MRZpsyrypSgJM9s0la4lyC9xwrqlGEgPO5ej8HqyalYSkWLNdXszBrIeSmTW30U0eHYFnFqUgy+Jrg4ZkOHDJ6XxBQcYmYK6Tl01z1Z6woDgCUoxUnYPoUPJ/HYs+8TbVMQxhwjAX1t/UB5OGW3NUJZjMupWoWXMbVZRb4I7LEnDPVQncZew7M86KQT+LTbUi0xl3WgFM80tqmiuL14txAKz9qoQMa8QAJ86ZyLdY35cYo2HFzETcOi0ebicfEAPFrHP7zZrbiE4Y6MSzi/rg7DERqqMYissh8PvpcRC83JBxRTXWlpnmhbdprto6z0cgg3LYBG67KB4ab0w/IQRwzsRIPLkwBUMzrbVfe7CYdW6/WXMbiU0DZp4dg4f/j737jo+qSvsA/jv3Tk8mvYeWhE4gEEIICUUUC+qyiui67toLNixYVtd3C7uv7xZXEbC7rh3FVRbUtRdEQFBCDzWUCOnJpE+m3vv+MUQRQurMvffceb7/+KHNHHDm3POc8zzPuSsB6Ql0atmZicPMmDPZpvYwCDktJvOTOs9NkACqRyAadc05kchK5eb0UBWZKQa8tDAB15wdScFUP/G6I8/ruLUiPV7E83cl4KbZdgj0T9mlhXOjkBhNQRTRJpmjugQuphrGwGSwyWqPg5CTDU4y4LpzItUeBhdMRoYFc6Kw9JZ4JETRA7wvBAGwcpq6ZTUxiFw8cbTn4kIbVvw2CTkZlHHbE5FWAfdeEqX2MAjpnIypag+hp7iYsvPuqB7DgDi1x0HIye6bFw2Tgc9Fm1qmjDJjxYOJYdsqtj8iLQK3+daM0WlCb8VECnj0xjj8zy9juA0O1TJrghVTRpnVHgYhnUnLvb1ysNqD6AkuZmxJkuh+BKI507It9BDqo47Fz5+ujIXNTIufnuL91mLex6+kySPMeOM3FEz3xz1zo+nuBKJJAuMjhZ6LIIFRPQLRGIPIcPfFdJzdXxfkW/Hmg5RG0VORVi6m7NPiffxKMBkCaXlP3BZPLZX7KSPFgHlTqYiZaA8vdQlczNi83VBH9O8X0yMwOImKlYOhoyBz/vlUkNkd3nfieR9/qGWmGPDSPVTgH0zzz7cjJpImFqI5XKxrNf/NKbirJhmQs9QeByEdomwCbjiPipWDSRQCFyFRa8eu8X5rMe/jDxVqFRw6UTYB82fb1R4GIScbmzf/ULTag+iO5mdsr+TnItoi4eO2C+10w2mI0CVRXeP91mLexx8KdOlg6M2bGoFh6RR8EU0RmNGSr/YguqP5lY4sgYqWiWZkphhwMd2sHFIRFoY/XxWLv10XS8HYSXjP6ed9/ME2ZZQZbz6QhKljqDg5lAQBuGcu1ZARbZE4KF7W/IzNGB/FHSQ8LJwbTb3eFTJrghXLf5OI3KFU1NyB95x+unU5wGxkuG9eNJbdEo/4KJpQlDBpuBkzcygYI5qi+fWtpmenwoXHrABy1R4HIQBQMNJMLU8Vlhon4tkFCbjlAjsFZwBsnAcJdE8CMGqgEW88kIjLZ0Rwe+cFr+74eRTNI0RLCmYugqY7oGj66+L2iXkAaBuRaMItF1DxmxoEAbjhPDteXJiIQYmank9DjvfCX95PQvqDMeCXZ0TgxXsSqDOaSgYlGvCzydQSlWhGZGt9xVi1B9EVTT9xmKz9oxgSHs4YZ0H2EIpX1TRmsBFvPpiIX54RvjUhvKfr8B7k9FVyrIhnF8Tj3kuiYaTLvVR142w7TAb6f0C0QdJ4ypGmZ2xeLpsg+sZYoD0nUZ/ZyHDvJdF45IY4REdoevoKCd4X2eF4kjBrvBVvPpCIicMoVVELUmJFzC2i0wSiERrfDNfsE4cxMDAUqD0OQmZNsFLvco05M8eCtx9KQtHo8Fp48X6SYOd8/L1hMzM8dHkM/nY9denSmhvOs8NmDp/PItG0aWoPoCuanbkm3l45AjIS1B4HCW+CALqIR6Pi7AKW3ByP++ZFh036AO+Fv7yPv6eyh5iw/DeJtGOtUbGRAi6bHr5pi0RT0vNvqxio9iBOR7MztkSpRkQDzs+zISOFigy1ijHg8hkReO3+xLC4LIn3y8h4PwnpjigA15wdiRfuisfAMC+y17przo6kEx6iCT4N35eg2W8I03gxB9E/g8hw4+xItYdBeiAr1YBX7knAL8/Qd1tJ3nfieR9/V9LiRDx3RwIWzImCgYqTNc9uFXBFGDdBINrBKEjoPQoSiNouzLdiQALtBvLCdLyoecn8OMTZNTu19QudJGjTnAIbVvw2CeOzqAMaT351Jp0mEE3Q7HpXk9+OvPmVCTIwTO1xkPDFGPDrM+kUgUdFYyx467dJmDFWX7ermgwMJiPfi2yjyP/f4USRVgEPXx2LP/wqhgphOWQzM6pNIFowbupv6jRZ/KjJIMFvlIsA0IxLVDNjrIVqETgWGyngsZvi8KcrY2E16WMq0Uv7UN5PQzrkDTPjrd8m4rw8q9pDIf3wi+kRMOsocCVcEp1t7ny1B9EZTQYJAkOh2mMg4e2qWXSKoAcX5Fvx2v2JGDmQ/6LmSKsmp+te4/2uB4PIMP98O55eEI/kGFHt4ZB+irMLmFNAXaiIugQwTaYcaXK2ljWcn0X0LyfDhJwMfnOL9x3zQpbVHoV2DEk24KV7EnDVWZEQON4w1M1JAsd1CRkpBrxybwJumm3n+rMUbOX1frg8/E46vz4zAoImV0MkXMgaLV7W3Ndi2B2lZgZMVHscJHzxfIrQ7JRwyxP1+P2rDfD6+X1oB5tRZLjzoiiud39534HvwGuHowvzbXj1vkS6WPEkpRVe3PB4HV78tFXtofTZgAQDZo2ntDGiqoLLLoPmHk6am60jmW0iAH1VHBJuDE4yYDrHBa9LVzejqU3CB9+1Y8FTDrS5KFA4Ec955DzvwJ+ItxORjvqWRVfG6Ka+JVi+2+/GdYvrUNPoxyufteL7Wp/aQ+qza8+J1HX7ZKJ5UaUp5dlqD+JkmgsSBFmbRy4kPPCckrLvmBerNzp/+PGJD3Dyo46ONH+7LhZ2jvL89XKSwFNtxeSRZrzxQKLuOmUFw4ebf7oR4fHJWLKqWeVR9d3wdCPyh5vVHgYJY4KsvboE7c3WMhUtE3XE2QWcP4m/HWYAkGXgkbebIEk//fmOVICyGn53+EJl1gQrlj+QyE1ve9524E+Hh+5GJiPDgjlReOLWeCRGay4DQHVvftWG379yakrjmh0urN/tVmlU/cdzqinhn6TBelztBQlAgdoDIOHpkqkR3PZw/+C7dmw96On018rr/bh+cR1Kyjr/9XDWcUvujbPtELU4G55AP0GCtv+hRwww4vX7E3HN2fyeKoaKJAOPrmwKbEicJpPx0XeauK2HKhhpRlYqtb4m6tDiJcKamq0n3HlsGIAUtcdBwo8gABdP4bMNnssjY9m7XR/zN7RKmL+0HutLXAqNih+iANx8vh3P35WA9Hjt7hrzWvB7MrtNmytv4fgFii/dk4BMuiPlFB6fjIdeasDyL9u6/H1lNT6s+Krr36Nl86bS5WpENYNz7igfoPYgTqSpp44W87FIeJiebUFyrHYXiF15Y00bapu6rzto98i4+zkH3j2hboH8KCfDhDceSMKF+doLFhkD5hZpb1x9MSRZewvwpBgRT9wWj7svjoLJoM0gRk2t7RIWPOXAJ1vae/T7//VJK1rape5/owadP8lKt2cT1RgkbaXcaypIkDV6mQTRv0uK+Nw9anZKeOXznrce9EvAotcbuz15CFcRFoZFV8bg79fHIcqmnekxIUrU1Hj6I0VjwfjMHAvefCARk0dQ0Wpn6pr9uGlpPTYf6HmtQVObhFc+47MlaqRVwLkT+axNI/zT2jpYU08dRp2NiArS40UUjOJzgfDiJ61odvZ+x+6lT1vxl7dOLXQmAWeNDywcJw7TxudiUKK2Ftb9MSjJoImdWpuZ4fe/isE/bohDdISmHoWacbjKh2sercO+Y95e/9nlPTzh1CJKOSJqYRq7VE0zM+O4W7+PBTBC7XGQ8DO3KILLAsXaJj/e+rrvub9vf92G+15wwO3ls8gw1JJjRTy7IB73zYuGUVT3A5Kvo11uk4EhT+Xga8xgI167PxE/L9BHClco7DriwY1L6lDp6NtC3+WR8fyHLUEelTJGDjRizGA+up4R3cnJvq1WM222NBMkmAxiITQ0HhIejCLDHE4XCs9+0AKXp38L/DU7XLjlifo+nUaEA8aAy2dE4MV7ElTNpT9HZ+kPaqVzCAJww7l2vLgwEYOTtFcboRVrdrhw09J6NLT2b15Y9Y2T2/bLl07j87lAuGcwC558tQfRQTOLcolSjYgKZuZYEGfXzNegx47W+oJWgLz9kAfXL65DVQOfqQFKGDUw0BbzEhWKh3MyTRiUqK8F7dm5VqTFKZtClRYn4vk7EnDLhdpvd6umleudQTth9EvAM//l8zThnFyrbuqACF9kpp3iZc18A5jGijVIeJg3lc/dopc+bYU/iJv/h6p8uPaxOpRW9D73OFxYTAy/vTwGj90Uh9hIZaZOxoC7L45S5L2UJArALRcq9/c6f5IVb3B0cZ5anvmgBQ+/2RjUWqXPtrbjSDV/pwlmI8OFk/V1gkf4oKX1sCaChLz5xUYAeWqPg4SX1DgRuUP5y/WuavDjv9/2rBVhb9Q0+nHD4/Uo7kUXk3A0Y6wFKx5MQuHo0H92Lphkw9gh+lzYnj/JijPGWUL6HnargIevicWfr4pFpFUTjztN8kvAn99oDEkNgSQHGizwiGpWiCpkFF52GTTRrUIbs6YxORcAfRuJos6daAXjsGD5lc9aQ3ajaUu7hNufcuDTHvZDD1fxUQKW3hwoag7VLd0jBhjxm8uiQ/LaWvH7K2JCdsNt7lAT3nggEefprJ4j2FweGfc+78CqDaG7P+XDzU6U1/GXzjg0zYhh6Ua1h0HCT9Sh5GOj1R4EoJEgQdLQ0QoJH7Pz+Fs81DdLWPVNaC9D8/hk/PalBrzJ8a2pSugoan7tvsSgLySSY0U8Pj9OE61CQyk6QsAzC4JbFG4QGW7/WRSeXZCAVIXrHnjT2Crh5mX1WLsrtDex+yXgxU/5rE2gIJOoQSvrYk0ECUxDRRokPAxLN2JoGn87RK990apIy1JJBh55uwlLVzdDpg6pXcpKNeCVexPwq5mRQTmZyskw4ZV7E5AUEx4L3Di7gOfvTMD07P6lHjEGjMsw4V93J+DacyIhaOLppl0VDj+uW1yHnUc8irzf+5vaUc1hc4Tz8qxctsgmfGPQRjMfjUyjAgUJRFE87g41OyW8vU7Z3f2XP2vF719tCFl6k16YDAwL50bh7YeSUNTHWgWTkeGasyPx7J3xSIgKjwChQ5xdwOL5cfjdFTF96jY2YoARL9yVgBcXJmDMYP6Cf6XtO+bFtY/WKdqe1OuX8eoX/NUmpMSKmEAF70RhWileZrLK24T5t9Zk+kXfQVUHQcKKwID3FiUjJZavhdhrX7Ri8X+aVXnvySPN+McN+k9/CZb1u91486tWbNzjhtTNFBthYTgn14obz7MjmbPPZCh4fDI+Lm7HyvVOlJR5TtvFy2xkmD7WgvMmWjF9rIV2e3vo231u3PtPB9pcyj/7bWaGD/+czF0R+cr1Tjz8ZqPawyBhxu+TBmx7ekC5mmNQvfm2T/AX0dxOlDQ+y8RdgCBJwAoVawQ27XXjxiV1WHpzPOKj+HrAq6FotBlFo82oafSjuNSD7Yc8qGn0o7FVgtnEkBgtIClGxKThZuQONal+o7OWmAwMP5tsw88m29DukbG7zIOyGj+8fhkuj4zkWBGDkwwYkmyA1UT/br3xUXE7/vhqo2ong063jNUbnfjVTM1cKNsjsyZY8Pd/MzpRJYoSjGwKgLfVHIPqQQKDVATQRE+UMzuPv0Zaa3a6UOFQN59371Evrnm0Fk/cFk+31fZQUoyI2XlWLovktcBqYpg4zIyJw9QeCf/e/KoNj77T1O3JVsjHsaYNv5zBV81IlE1A0Rgz1uwIbYE3ISc6XpegapCg/teUaaM4g4QHg8gwa0Joe7OHglY6DVU4/Lh+cR1KypQpdiSE9I8kA4v/04xH3lY/QAACc0iouymFAgX6RAWqr49VDRIK7nBEAUwTvWBJeMgdakKUTf3YuDf2l3s1dcFZQ6uE+Uvrsa6Evwc9IeHE65fxu5cb8JrGCoaXr9HGpkdvTMu2wELpbURJsjA+b36lqqkPqq6WvH53odpjIOFlxlj+ThHUrEU4nXaPjIXPObB6Y2jvbCCE9E2bS8YdTzvwUbH2LkYsPuDGvmNetYfRK2YjQ8HI0N+yTsiPZCMz+fPVHIGqC3RGqUZEYdP62YtdaU63jE80evuxXwL+9Hojlr2rTsclQkjn6psl3LikDt/u084J5Mn+E8IbnkOFt+cH4Z/al6qpGiTIGsi3IuFjeLoR6fF8dTX6uLgdTrcGEom78NKnrfjT642nbVVJCFHOsTofrn+8TvM79R9ubofLo+257WTTs6nVLlGWrPI9YqoFCTMXwQAmT1Lr/Un4mc5hqtGqb/jYbVu90Yn7/ung7qFPiJ6UlHlwzaN1OFqr3CVpfdXaLuGL7XzVNcXZBWQPoYvViHIY5EK2SL21umpv3FRXOR4AX82SCdemc3ZUfKTah11H+Oki9NVOF+Yvq0djKx0pEKK0tbtcuGlpPRo4+v7xsglyIt6eI4R7MTm1VaPUenM1oxNKNSKKSYwWMXqQUe1h9MrK9fw9QHcd8eCGJXWoVPlOB0LCyXubnLj3ef5O8raUurk49TgRjyfShG8ik1VbL6sWJMhMVjXPioSXadlmMI5ySb1+GR98x1+QAACHq3y49rE6HCjXdk40IXrw3Ict+ONrfNYEyTK465CWlWrAgAS6TJIoh6m4qa5akMBkUJBAFMPbEfHGPW6u0gZOVtvkxw1L6jV1vwMheiJJwMNvNuLZD1rUHkq/fPBtuyYueeuN6WOpFSpRjppNflQJEnJvrxwsAwPUeG8Sfgwiw8RhfE3qWm172hut7RJuf8qBT3XwdyFES1weGff+08FlSuLJqhv92HaQn9orAJg2hq9NJ8I7OSvv7rJUNd5ZlSBBoPsRiILGDDLCZuYn18jjlfHVTr66fpyOxyfjwZca8PJn2rrxlRBeNTsl3PZUvW7mCAD4dCtfGwnjM00wG/l5phD+yX7TFDXeV5UgQYZ6RRgk/OQN5+sUYd1uN9pcnJ2/d0GWgaWrm/GPd5q4SysgREsqHX5c+1gddzvv3fl0SztXNRUmI6NWqERRatUlqBIkMFA9AlFO3jC+JnM9pBp15o01bXjwXw3weClSIKS3Dlb6cP3iOhyp5qsbUE80tErc1S9N4uy5Qvgmy2ESJEz9TZ1dBsYq/b4kPBlFhnEZ/EzmLo+Mdbv0k0Zwss+2teOOZxy6OikhJNQ2H3DjusV1qG7Ub2th3jZHeDuhJtzLzZtfaVP6TRUPEtxtngIAotLvS8LTuAwjLCZ+ckfX7XahnbNe57313X43blpah/pmjvILCFHJx8XtWPCUA63t+v6+fLHdBZ+fn7kvewhfzxbCO9koGZGn9LsqHiRIVLRMFMTbbs/Xu/g6cu+rvUe9uObRWpTV6C91gpBgefOrNvzPyw3w+PhZPPdVU5uErRzVWhhFhpxMfk6pCf/UuIRYjZoEChKIYvI4an0qycCG3fpNNTpZhcOPax6tw/ZD/CwMCFGCLAcuSXvk7fAq9l9XwtcmySSOni+Ef2pcQqxokHDZZRAB5Cv5niR8WUwM2UOMag+jx3aXeeBo0XdKwcmanRJue7Ie60rCJzgipCtev4z/eaWB+0vS+uJrzuqx8obTSQJRVBFbpOy6XdE3O5xSMQ5AlJLvScLX6EFGmAz85IyGS6rRydo9Mu5+zoF31repPRRCVOV0y1j4nAMfbeariDdYymp8+L6WnxTE0YNMiLDw84wh3IvNrakcoeQbKhokSBK1PiXKGT2Ir12edWGUanQySQL+sqIJ//wo/HZPCQGAumY/bni8Dht2h+dmQYd1HG2WiAKQPZiv5wzhG1O4rlfRIEHpvxwJb6MH8ZNqVNPox75jXrWHoSpZBp7+bwv+sqIJUnhlXZEwV1bjw3WP1YX9HACAu9TDURw9Zwj/lL6MWNEgQaaiZaKgMYP5mby/3e+GHEYFil15e10b7nvBATddukbCwK4jHly3uA7l9fq9A6E3tpR64HTz890fQycJREl6PUkYf8uxdACDlHo/Et6ibALS4w1qD6PHig9Qh58Trdnhwk1L69HQSkcKRL827nXjlifq0Uif8x94/TK2cdQKlacTa6ILw/Jvq01R6s0UCxJEgzBVqfciZOwQIxhH9WTFB/jJw1XKriMe3LikDpUO2mEl+vPeJifufMbB1a65UopL+ZkPU2JFxNnV6CZPwpUk+AqUei/FPtmyTEXLRDmjOToCrm7wU6rBaRyu8uGaRylXm+jLS5+2YtHrjVzdMKyk7/bzc5IAAKM4a5JB+KZkXYJiQQIVLRMljeHoCPi7/fzsmqmho+vLxr3070T41tHFa9m7zVSD1IW9Rz1oc/HzD8TT84bogr6ChJz7qiMA5CjxXoQAfBWTFZfytWumBqdbxl3POPBRcXj2jyf88/hkPPhiA95eR/eBdMcvAVsP8rMpQHUJRGG5M689YlHijRQJEgwu32QA/FSREq4lRvOVI7qFgoQe8fpl/O7lBiz/khZZhC/NTgk3L6vHZ9soyO2pzRw1c+DtTh7CPXOLzZynxBspspJi1PqUKCgjhZ94tLFVwrE6fm4YVZskA4+ubMLjqyhdg/Ch0uHHdYvrsP0QP4teLdjCUfFyfJSApBhR7WGQMCIxZeoSFAkSZDAKEohiMjkKEkrKaOHQF69+3ooH/tUAD92lQDTsYKUP1y+uw+Eq2gjorf3HfPD4+Pl+87Q5Rfin1OZ7yIMEtggCwBRr10RIRjI/k3XJ99S1p68+29aOO55xoLWdeswT7Sk+4MZ1i+tQ3Uidy/rC65dxoJyf+ZGn5w7RAYZCxhDyRu8hDxJyq49lA3J0qN+HkA487eiUlPHzENSi7/a7cf3j9aihhRjRkC+2u3D70xTA9hdP8yMFCURh8Xl3VgwP9ZuEPEiQRUb3IxBFZaTw02li9/eUbtRfpRVeXL+4DmU1lNJB1PfmV234zQsOSoULAp5OWodwtDlF9MEvhT7lKPTpRlS0TBRktwrcdDaqdPjhaKGdxmCocPhxzaNUHErUI8vAcx+24JG3myBRfBAUuzmq2cpI5mdziugD00eQQEXLRDk8FS3TLcLB1eyUcOuT9ZTiQVSxfE0rnv2gRe1h6MqRah+cbj4irvgoAVE2PjaoiG7wHSTk31abIgMZoXwPQk7EUz3CwUoKEoLN5ZFxz/PU9Ygoa+V6Jxb/p1ntYeiOJAN7j/IzTw6hugSiJIbhuXdUJYbyLUIaJPhEz9RQvj4hJ+Npkqa2iKGx+YAbv/lXA6V8EEXsPOLBX99qpHs7QuRQFQUJhJwGgyxNCeUbhDRIYLJARctEUalx/Fxoc4iChJBZu8uFlevoZmYSWm6vjP95uRF+ynALmUOV/MyTPJ1kE30Idd1vSD/RMlAU8iauhJwgOZaPIEGSA/m2JHSWvdeCGeMsSIzm4zMRbKUVXtQrUBifFC2G7eLo7XVtdGN6iPG0mTIwITy/B0Q9Mq9BQuHCY1YGYXyoXp+QzqRwEiRU1Pvgprz5kGptl/DaF224++IotYeiuJIyL25YUqdIbUaEheGVexPDLtXC65fx8metag9D93hKN0qK4eP5Q/SDAXkzrz1i+fLFIa5QvH7I0o1cPkM+AFOoXp+QkxlFhvgoPibpgxwdofPsvU1OeHzhFYw5WiTc90/l+vS3uWQsfM6BljDrKvXdPg/qm8Pr76yG+mYJja18/DvzsklFdMXcGGXKDdWLhyxIYJCp9SlRVGK0AIGT/DZKUVBGU5uEDbvdag9DMT6/jPtfcKBa4Ruoy2p8+P0rjWFVLL601Hy6AAAgAElEQVR2V0g27kgnDnOSmhlrF2AUOXkIEd0Q5NClHIUsSJBDOGhCOsNLPQIAVNQru4gLZ7s4upCpv/7xTjO2HlTn77t2lwvPfxg+9wTQPSfKKeMkSBBYYLOKECWFsng5JJ9mxsAAuSAUr03I6fB01FvpoCBBKfvDZDH3/rdO/PtrdTs6Pf9RCz7b1q7qGJRSXs/HwlUPKhv4mS952qwi+iADRYF1d/CFJEiYsKBqFAPiQvHahJwOT5NzFUcPPd6Fw7/1ziMePPxGk9rDgCwDf3q9Ufedu7x+GQ4FOkeRgAqOArJkKl4mSpORMP6OY0ND8dKhOUmgegSiglSOggRKN1IOY/rOEa5vlnD/Cw2aKdAOh0Jmo8gg8lIApQM8nbzytFlF9EOQWUjW3SEJEqgegaghjpPORq3tkq4XUFqj5xjB65dx3z8dqFG4ULk74VDIbLfq+IOlMRUcBQnUBpWoQQZHQQKdJBA1RNv4eGjztCumBwMS9PvQ/vu/m7D9sDYLs/VeyEw7xsqpbfLD6+cj4qR0I6IGFqLN+aAHCTm3VCcBCEluFCFdibLx0VWitolOEZQ0coBR7SGExNvr2rByvVPtYXRJz4XMecPMag8hbEgSUNPAx7wZHcHHc4jozsi8+ZUJwX7RoH+aDaJEpwhEFXZOgoQmJx8PO70Yl6G/Ox23H/LgH283qz2Mbum5kDl/BAUJSqpp4uMENoqTE22iO0w2SkHvKhr8VRWTC4P+moT0AC8nCQ3UFUUxKbGi7nZ865r9eODFBm7SL/RayDx5hAlpcZRaohReuknxsllF9Edmwa9LCMWnmU4SiOIMIoPVxMcOTlMbHw87PZhbZIOgo2e2xyfjnucbNFeo3B09FjIbRIarZkWqPYyw0dDKx2febtXRhEO4EopL1YL6aR52R6kZQG4wX5OQnrBbGTddbHh52PEuOVbE5TP0tYj764om7DqizULl7uixkPnnBTYMTjKoPYywwMsJrM3MYBQ5eRgRvZmUvWh3UPNrgxokRPsjJgHQ19k+4QIvqUYA0NDKx8OOd/fPi0aERT8P6xVr27B6o7YLlbujt0Jmk5Hh79fHwmzUz+dMq3iaN+1Ul0DUYTHXRwd1oz6oKyuJUetTog6e8kAp3Sj0fjE9AmeMs6g9jKDZetCDx1Zqv1C5O3osZB6aZsT9l0aD7lYLLa6CBEo5IioJdspRUD/JjIGKlokqeOoo0ebWUWK2Bp0/yYp750WrPYygqW7w4/4XHPBxUqjcnY5C5lYdFTJfNMWGRVfGQqS1YcjwUrgM8HWyTfRFDvLNy0H7JDMGBmBKsF6PkN7g6bjf5dHHYk9rBAbccK4di34dq5tdXY9Xxn0vOLhaIPVEWY0Pv9NZIfP5k6xYdks8dTwKkTYXP98BSjciKtJmkJB3Z8VwAInBej1CesPAUaEYBQnBl5liwBO3xuOWC+266mb08IomlJR51R5GSOixkHnySDPeeigJV50VyU23NV60czRv2sw6moQIb5Im3nYsaBcaB60tg19CEU2JRC1GjjbvXF5+HnZaxhiQk2nCRVNsuGCSvlqdAoFC5fc38V2o3J3nP2rByIFGzBirn/oRq4nhzouicONsOz4pbscrn7eirEY/NRhq4SlIMHD0PCL6I4usEEBpMF4raEECk1AEihKISugkIXxEWBgmjzDj6lmRyB6iv9uUO5RW6PME4USyDOw56tVVkNDBZma4qNCGGeMs+HqXC+t3u7Fxr1tXtRhKaueoloun5xHRHyajCMArwXitYDZ4ps5GRDW8nCTIMuCmk4ReS08QMXmEGdOzLZg80gyTQf8P4ZwME1au1/dJAgCMz9RvoAcAsZEC5hTYMKfABkkC9pV78fUuF9budGHvMS9kmg56hKcTWDpJIGpiCF7xclCChMm3l8eDseHBeC1C+oKXnRuPT6ZFQQ9YTAz5w80oGm1G0RgLUsOwGDRH54tnABAEIHuwUe1hKEYQgFEDjRg10IibZttR3ejHht1urN/twqa9bjg52i1Xmscrwy+Biw5SvDyPiD7JwOjChcfiNjw2wNHf1wpKkOATWCFkSjYi6uFlUtZTN5dgG5RoQNEYM4pGWzBxqAkmjjpWhcLARAPi7ILuOhudaGiqEZFh3FM+OUbExYU2XFxog9cvY2upB+uPBw2Hq6iO4WRurwybWfvzgiF8P9JEG5jXgwIAH/T3hYISJDCgiNY+RE3GYCbOhZD2H2/KMRkZJmSakD/CjOljLchM4eR/ooJyMk34crtL7WGETDiclvSUUWTIH2FG/ggz7r44ChUOPzbucWPTPje+2eNCm4uespIkg4dZlJdNK6JfUiDlSBtBgkz1CERlvEzKjI9hhkxanIiCUWZMHmHGlFEWRFjC/B+kG+N1HiTovR6hP9LiRMwtsmFukQ1+Cdh1xIO1uwJpSXuO6r+ovTO8hElUk0BUx4KzLu93kJC9aLfJLMdMDMZgCOkrHvJUAR72wILLKDKMzzL9UFtApwW9o/ed9nE6//sFiygEPgs5mSYsmAMcrfX9kJa0+YAHHo6KevuDl3ouXjatiJ6x/OxFu027/jDa059X6fcT21QbPREM1v6+DiH94fOrPYIeCoNnR1KMiMLRgdqCgpFmLnKItWrkQCPMRqbLjliJ0SLdTtxHAxMNuHyGAZfPiIDLI2PzATfWlbixYbcL5fW8TIb6RTUJRAOs1vqo8QC+7c+L9DtIEBijegSiOq+Pj0+hHtONBAEYkW7E9LEWTMu2YOQAoy7/nmowigyjBxmx9WC/NoM0aXwWnSIEg8XEMHWMBVPHWABEo7zOj0373Ph6lwsb97rh4WRu1BOffnsNEI5IMiuC2kGCDBT29zUI6S9eHoR6WTvH2QUUjrZg6mgzJo80I8pGW2ehkpNp0mWQkJNBQUIopCeImJsQqGVwumV8uy+QlrR+txvVDXyfMvCSbsTLphXRvSIAi/vzAsFIEJ4ShNcgpF94mZQNIoMoAH7OdpoEBowebMLU47UFIwcaIegl4tE4vdYljKMgIeRsZoYzxllwxrjAjdalFd7jtQxubD/kgc/Px7zZgZcTSi9n/65En2Swqf19jX4FCRNvOzYUgpDS30EQ0l9ejjbILCbGRTvDKJuA/BGBTkTTx5qREEX542rIyTCBMX52UXvCamIYOTB8LlHTiqFpRgxNM+LqWZFo98jYvN+NtbtcWF/iRnWj9idRCyd3p3joiguiAQxIzr+1JvPbp5IO9fU1+hUkMKpHIBrBS7oRANjMAtpc2nwgZ6UaMC3bgvwRZkwcaqIuHRoQHSFgcJIBR6r1s/LIHmLipiOZXllNDNOyA3VEAHCoyoe1O134dp8bxaXaO2UQGGA08DEf+Th6HhF98wn+IgDqBAkyY3Q/AtEEXtKNgMDDWSusJoZJw82Ylm1B0RgzkmPotECLxmeadBUk6DWFimeZKQZkpkTimrMj4XTLKD4QOGX4epcbtU3qb2qYjYzSjQjpJYGhEMCrff3z/a1JoCCBaIKXo/WTVeWWoOkJIqYf30HMHWqCkU4LNC8n04RV3zjVHkbQUNGyttnMpz9l2HzArUpNlUVDmyvdoXQjohX9vey4z0HChLuPxAgwjezPmxMSLHylGyn7sLOYGHIyTJg+NlDAmBJLpwW80dPOu8CAsRlUj8CTE08ZmtokfLffjU373Fi70426ZmVOGXgKEng62SZ6J48Zd+v3sTueGtTQlz/d5yDB4DUUSgyUVUo0od3Dz6SsRJAwOMmAqWMCKUQTskwwcZLLSzo3KNGA2EgBDa2ctcXqREaKAXYrPTp4FR0hYNYEK2ZNsOLBy4BdZR6sLwm0Wd17zBuyAnszJ0XLAF+NNIjuCUZmnAzgo7784T4HCRKoHoFoR7OTn8VTdETwF0hmI8P4TBPyR5gxY6wFGSnB6G5MtIKxwGnCmh0utYfSbxOyzGoPgQSJIARa2Y7LMOGWC+1oaJVQfMCNr3cF6hmCOS/zFFg6Xfw8j4j+MYYiKB0kgFE9AtGOpjZ+JuU4e3DSfdLjRUweGWhRWjjaongaE1HWuAx9BAl6Sp0iPxUb+eMpgyQB+8q9+HqXC2t39v+UIRSbK6HC06YV0b/+1CX0KUjIm19shCl1Ul/flJBga2qTIMt8XLYTZ+/bw04UgLEZJkwbY8HkkWaMoj7zYWW8ThbXFCSEB0EARg00YtRAI26abYejRcI3ewInDBv3utHa3ruFdEwkP0FCUxs/6a8kDDA5P29+sXHzsxO9vf2jfQoSmDl5gizD1pc/S0go+CWgzSUhkoMj6fheBAlxdgGFoyyYlm1GwUgzF38/EhqjBhlhMjJ4vPwuQOKjBKTHU+F8OIqzC7gg34oL8gOnDDuPeLB2lwub9rp7dMoQQycJhPRVhGRKywGwubd/sE9BgiRTPQLRnianjEir2qPoXlfpRoIAjEg3YvrYQPvBkQOMXJyOkNAzGRhGDTBi+2GP2kPpswmZVI9AAvNcTqYJOZkmLJgD1DdL2Lg3cMrwzR5XpzfS8xIktHtkrrrtkfAgBFKOlAkSmCwUyoy+BERbmtokLnYp46N++rCLjRQwcZgZ07MtmD7WzFWBHlFWTqaJ6yCBUo1IZ+Kjfjxl8EvArhNOGfYcDWRI8FKT0MxRfRwJH8frEpb09s/1KUiQmTylL3+OkFDipXg5zi5gXIYJU8eYUTTaghF0WkB6KCfTBHyu9ij6bhzdj0C6IZ50ynCszof1u90YMYCPjm2UakS0Se5TBlCvv3U5C6ozDEB6X96MkFBq4mRyTowW8eLCBLWHQTg0PtMExhCyXvShZDYyjKBie9JLAxIM+MV0PgIEgJ/nEAk7aRPurhqydXHKkd78oV6f3xkgUT0C0SReThII6auYSAGPXB/HXWer7CEmPHJ9LIwiHZkRfWt2chjBk7Ag+Ht/mtDr8JwBRfQVIFpU30xBAtG/mTkWzMyxYMNuN174pAXbDmq3RmHiMDOuPzcSk0dQwTIJDw2tdN0y0ShZLgTwem/+SK+DBJnJhaAogWhQpcOn9hAIUUzhaDMKR5ux/ZAHL33aiq9LXJpJQxqfZcLN59sxaTgFByS8VDfQZhXRrNCeJBTc4YiCjDG9fRNClFDpoB0cEn5yMk1YPD8O+8u9eP2LNnyw2QlJhXWKwICpYyy44Tw7xgzmKx2KkGCpaqDNKqJZY/PmH4re/GxmU0//QK+CBK/sngJA+z0mSViiIIGEs+HpRiy6MgZXzYrEK5+14sPNTvgVCBYEBpw53or559uRmcJPgSkhoVBFJwlEuwSYrZMBfNLTP9CrGV0GiqjsjGhVTZMffinQQo+QcJWVasCiK2Nw0/l2vLGmFe+sd4bklmajyHDuRCuuPy8SgxIpOCAEoJMEom1SoBVqaIIE1sc+q4QoQZKAmkY/UuPosIuQ9HgR914SjWvPtmP5mla8+VUbXJ7+BwtWE8NFhTZceVYkkmPou0ZIB1kGahvpJIFoF+tlXQKTe1jpNnMRDM11FQ0AIvsyMEKU8M+7EjAhi251JeRkDa0S/v11G5Z/2YaW9t4vZGxmhp9PseGasyOREEXBASEnq2+WcM5DVWoPg5CutEUlpMV8+Qf06MirxycJzY7KHFCAQDSu0uHHhCy1R0GI9sRGCrhpth2/mhmJf3/dhlc+b+3R3SIxkQJ+MT0Cl8+IQJSNcvkIOR1KNSIciGiprRwHpG7pyW/ucZAgS3Ih1SMQraM2qIR0LcLCcM3ZkbhsegTe3ejEy5+1oqbx1KL/OLuAS6dF4FczIxFhodmfkO5Q0TLhgcTkIgDBDRJ6m8dEiBocLTRJE9ITNjPD5TMiMLfQhlXfBIKFqgY/0uNFXDUrEnMKbDAZKDggpKdiIhiGpxuxv9yr9lAIOa3j6/llPfq9Pa1JmLig4nsAA/sxLkKCThCAsYNNmJptQdFoM4anG8FoXUNIr/n8MrYd8mBClpk6hBHSD9WNfqwvcWP9bhc27XWjPQgNAwgJovLiZWkDevIbexQk5N1VOUj2y2X9HhYhQWA2MpyZY8HUbAumjDQjOoJWNIQQQrTH45OxpdSDR95uwpFqSocl2sBENnjz46nfd/f7epRuJEky3Y9ANIEx4I+/jsE5uVa1h0IIIYR0yWRgKBhpxsNXx+LqR+vg89OpAlGfJMlFALoNEnq0BctkFPZ7RIQEwZVnRlKAQAghhCsjBxpxywV2tYdBCICe1xn3NE+DipaJ6vJHmHH7nCi1h0EIIYT02tWzIjEzx6L2MAgBerj5322QkH1bbSSAsf0eECH9kB4v4q/XxlJBJSGEEC4xBiz6dSzGDqELP4nqxhXc4eh217XbJZdJ9BagF61SCQm21DgRT9+eQAXKhBBCuBZhYXh6QTxyh1KgQFQleuDK7+43dbvqYjKlGhH1ZKQY8M+7EpCeIKo9FEIIIaTfrCaGpbfEY26RjVp2E9X0ZH3f7QmBDFBnI6K4CAvDvKkRuHG2HVYTfQIJIYToh9XE8NDlMbhsWgRWbnBi/W4XyutOvfmckFCRe1Bv3OU9CZddBvFgcmU9IEcHdWSEnEQQgOHpRhSMNKNwtAU5GUYYRAoOCCGEhIeyGh827nVj20EPth70oLaJggYSQjJasmrSYt96C6f9oHUZJEy4rXy8ILCtIRkcCWvp8SKGphkxLN2I8Zkm5GSaYDNTUEAIIYQAQIXDj/3HvCit8OJAuQ8HKrw4WueDJKk9MqIXkiRP2Ppk+rbT/XqX6UaiwArp2g/SV4wBidEiBiSIyEwxYli6AcPSjBiaZkSEhQICQggh5HTS4kSkxYk4Y9yPbVNdHhmHqnworfCivM6PCocP5fV+lNf5UddMJw+kdwTGigD0LUiQqB6BdEEQgHi7iORYESkxItLiRaTHi0iLNyA9QURqnAiTgT5BhBC+tbRLaG6TYbcxRNkESDIg0NRGVGAxMYweZMToQcZTfs3jlVFe70dFvQ+VDX7UNkmoavCjttGPmiY/qhv8cLpp65f8iDEUAXjydL/eZZDQ0xvZCP9EAYiwCLBbGSwmBptZgM3MYLcKsJgZYiIEpMSKSIwRkBgtIiVWREKUSPcWEE3yeGUcrvbhYKUPByu9aGwLnM83tEhoc8mIjmBIjBYxZrAJk0eYER9FH2Tyo6oGP/77rRPf7HGjrMYHR8uP+R2W440UkmNEDE0zIDPViKyUwH8HJ4lUS0VUYzIyZKQYkJFy+qVdm0tGdaMfjhY/2t0ynG4ZbS4ZbS4J7Z6OHweC4ianhKY2CY1tEmqb/OgiO51wqrvi5dPWJOQuOJrGIJaHZFREUYwBgxINGJxkwKAkAwYmikiPNyDOLiA6QkCUTaB6AMIln19GWY0fByu9OFjhw6EqL0orfDhW3/O8XcaAScPNuOqsSBSMNFNLwjBWWuHF46uasWmvG1IfFkQGkWFwkojMVCOGphqQkWLE0DQDBiQYaEOFcM3jlfF9rQ/f1/rxfY0POw57sO2QB01tVCDBO1HCoG+fTDva2a+dNkiYeHv5ZWBsRUhHRkLCKDKMGRIoCB6facK4DBNdREa45peAY3U+lFb4cKjSi4NVgf+W1fjh8wdve2viMDP+8KsYpMfTvRzhxO2V8dT7LXhjTSv8IVjzmAw/7vAOTTUG/ptmQFq8gdKWCLdkGThc7cO2gx4Ul7qxca8bja0UNHDo8uJlaZ2u908fJCwofxxgd4Z0WCRoTEaGM3MsOHuCFfkjzHQyQLgkyUBFfSBN6FClD6WVXhyu8uFwlQ8enzJn3TYzw6IrY3FmjqX730y419Iu4e5nHdh60KP4e1tMDBnJBmSlGpGZakBWaiBtKTVWpBMtwh1JAr7b78bKDU58sb2dujBxggHLNi9Lu6PTXzt9kFDxHYC8UA6M9J/NzHDFGZG4YmYEnRYQrlQ6/DhUFagZCAQFXhyq8sHlUT/xVRCAP/wqBhfm29QeCgmhZqeE+Uvrsb/cq/ZQfsJmZoFUpVQDMlMNGJoWOH1IjqETLsKHshofnnyvGZ9vc6k9FNK94uJlaZ2u9zsNEnLuq44wuKQGQD61fJ5oxqwJVtx7SRQSo+nBQbSrrtmPgxXHi4irfqwdaHOpHwx0RRCAJ2+NR/4Is9pDISEgy8C9/3RgzQ5+FjGRVuF4kfSPpw9DU41UeE80a32JC398vfEnxf9Ec3xuyRi768nE1pN/odMgIe/O8pmyxL5QZGik18xGhgd/EY2fTaZdTqIdja0SSiu9OFT5Y1ehg5U+NDv5fTjE2QW88UAiEqIoENebFWvb8Pd/N6k9jKCIsgmBTkvHC6U7ah9iIil4IOqra/bj3ucbsPOI8il9pKfks4qXpZ+y7u+0T5Yk0/0IWhVlE/D4zXHIyTCpPRQSplrapR/qBU4MCPS4U+RokfD0+y343RUxag+FBJHTLeOZ/7aoPYygaXZK2FLqwZbSny7C4uxC4MQhxYCsNAOyUgKnD1E2Ch6IchKiRDy9IB73PO/Apr1utYdDOnH8yoOeBQkMjO5H0CCbmeHJ2+I7vUSFkGBzumUcrvLiQEWgcLi0IlAzUNMYXrd6vrfJiatmRWJwUpfXyhCOvL2ujesTrp5ytEhwtLjx3f6fLswSo8UfUpU6AojMFCMiLLQ9SELDamJ49MY43LKsnk4UNEg+zbr/lHQjxsByb6+oBxCrxMBIzwgMWDw/DlPHUMcVElxur4zDVT9NETpU6UVlA12e0+HXZ0bi7ouj1B4GCZI5i6pRXhdewW5PpMSeEDwcr3vISDHAaqLggQRHXbMfV/ytFvXN+g/SOdOcVZ0W99Zb+MnEeEqQMOnO6mxJ8u9UdGikW1eeFYm7LqJFCuk7r1/GkSofDp1wKnCw0ofyOl+fLo4KJ+nxIt79Y7LawyBBcKzOh58vqlF7GNxgDEiLF39IVcpKNSIr1YCMZANMRgoeSO+t3eXC3c861B4GOZlfyil+asCOE3/qlPNzSfYVAfTF15L0BBG3XGBXexiEE34J+L7mhE5Cx7sKfV/jC8lFUeGgvN6PshofpRzpwKZ9lBPdG7IMlNf5UV7nx9pdP/68IADp8YYfCqazUg3ITDFgSIoBRpHWEOT0pmdbMD3bgrW7+OksFg6YwIoAdB0kIFC8QDTk5vOjYKYdG3ISSQbK645fPHbC6cCRKh+8QbyFmAQcqaYgQQ8q6inNKBgkCTha68PRWh++3P7jYk8UgEFJhhNOHgIXxA1KFGGg4IEcd/MFdnxd4qKUVg05Xpfw9Ik/d+oTT6YgQUuSY0WcN9Gq9jCIimQZqGzw49DxeoGOuoHDVT64vTTDKoVy2PWhsY2O00LJL+GHW9Kx7cefN4oMg5MNPymUHppmwIB4AwRqthR2RgwwYnymSZWbzslpnbL+/0mQUHBXTTLAMpUbD+nOhfk2mkDD1LJ3m/Hdfg8OV3nhdFMwoDaJtrx0wUXfJVV4/TJKK7worfACW378eZORYfFNcSgYSZcWhpvZk6wUJGgJw5CcO8oHbF+afqzjp36y/PT4/VOVHxXpyrRsmjjDlc8PlJR5KEDQCEqV0IcEuqFeUyxGhtwsuvcnHE0ZRd0atcYoY8qJP/5JkCAwFCo7HNIVk5Fh9CCaPMPVz6fQjdpakhJLi0s9SI6h/49acs5EK3VJClNpcSKiIyhVQkvkk1KOfvJ/R6Z6BE0ZkmSASN+fsJWZYsDYIRQkasWwNLrEUA9GDqT/j1oyZzJthoSzgYnUDEJbWOdBQuHCY1ZAnqD8gMjpxNkpQgh3cwroAaoFKbEi0uJpB1oPxmeZEB9Fc6sWZKUaMGYwBW3hzG6lUySNGZ99W21kxw9+COFcHnESYzJtW2qIyUBfHiDQaq+83ofSCh+O1fnAGDAgwYCcTBNiI/X9sD93ohWPrWxCu4fqEtR0Tq4VjL6OuiAwoHCUBe9tcqo9lLCn55RKj0/Gmh0ubNjtxqEqHxrb/DAIDEOSDYFbrdOMGDXQiEGJhrCeW8L5765RBqvgzgOwBjghSBCAIlqGaEu4FqzWN0vYetCNnUe82HnYg73HvJ22+hQFYPJIM86baMO5Ey26LCyNsDCcNcGK92lBoyraedaXicNMFCSozCgyzM7TX5AgycD7m5x48r0W1DWf2ja5rMaHr3b++OPoCAHZQ0zIzTJhyigzhqcbw2rh3OwMz3WOlkmBlKM1wAlBgsxkKlrWmOrG8OjL7vXL2H7Ig2/2uPHNHjf2l3t7dMGKXwI27HZjw243nv1AxPXn2fGz07SM9fplHK7yodkpIW8YXx2j5k21UZCgIoEBZ4yjLhx6ck6uFY+tbEazk+5MUMvZuRbuUmrXlbjw3X4Pso6fBGSmGGAx/biiL6vx4Q+vNmLnkZ639Wxqk7C+xIX1JS4sezewITFlpAVTRpkxeaRZ96flR2t9ag+BnOqHugQDADAGlnv7T9seEfWV1/ngdMuwmfW3rVDd4MfaXS58s8eN7/a7+31qUl7vx59eb8TyL9tw64V2+PzAoUovSo9fPvZ9jQ9+CbCYGD79vxSu/k3HDjEhe4gJu3rx4CHBM2WUGQMSqLhOT8xGhjkFNrz2RavaQwlbv5geofYQem35mjZs2uv+4ccCA9ITDBiebkBClIjVG51w9TM1tL5ZwvvfOvH+t04IDBg1yIjpYy04e4JVdze+Vzj8aKLLDTWITWGLIMh/gGQAgNxbK0cCiFd5VOQkkgxsPuDG9Gx97GJWNfjx2dZ2fL7NhZ1HPCG5jr20wouFzzlO++suj4yvdrowO4+vW6x/OSMCD1GQoIp50/hbzJDuzZtqw/IvWyFRtoPixgwObHzwxNEiYfN+909+TpIDO+Gh2g2XZKCkzIuSMi+efr8FQ9OMOHuCBWeNtyIjhf+AYX2JS+0hkM7F5DmqRwPJuzpOEqgeQaM+3+biOkiodPjx+bZ2fLrVhZKy0AQGvfXR5nbugoRZEyx4fJWI2qbwSEHTitQ4EbECit0AACAASURBVFNH8/v9I6c3MNGAySPN+GaPu/vfTILq8hn8Bd6fb2uHX+VN744bq5/+bwuyUg2YNcGKc3KtGJLMZ8Dw3qZ2tYdATkOSfUUAAkEC1SNo16db2rHw4iiuLhxpaJXwyZZ2fLS5PWQnBv2xca8bTW0SV/+mBpHh0mk2PPV+i9pDCSuXFEV0WuNC9GHe1AgKEhQWHyXg7Fz+Au+Pi7W1oD1Y6cPByhY8+0ELRg00YvYkK86daEVCFB+tmrcf8qCkjE7HNawIwLOB8JNhIjS2kCMBbq+Mf33SirsvjlJ7KF1q9wTavX24uR0b97hU33Hpis8v4/NtLswt4quzxtyiCLzwcWunnZ5I8JkMTNctGgkwPduClFgRVQ10QqeUuUURMHLWia660Y/th7S7oN1z1Is9R714fFUzJg0zY/YkK87MsSLCos1/Z1kGlqxqVnsYpCsymwQA4vuVPzNCtD8GgI/wMwztPerFjLEWxGtsh0CSgA173Hjugxb8eXkjPtnSjqO1Ps2dHHTG6ZbxM85u+rSaGCocfuw96lV7KGHh7FwrLszn6zNCeocxwO0FvttPpwlKMBsZHr46FlaOGkcAwKoNTi5OnGQ50MRjzQ4Xlq9pw/5yH6JsAtLjtXUXw4q1bVi5gTr2aVzcq1+5FwvMMmAEAL4qiMKMxyfjoZcbNHNvQkOrhJc+bcWcRdW44+l6fLi5nbvLvraWulHDYYvZa2ZFUvqLQi6jguWwcNEUG3c727y6uNDGXdtTAPhki7ZSjXrC7ZXx2dZ23PpEPeY9XIM3v2pDm0v95/T2Qx4sWU2nCBwQXK3eHDElf+HZAOaqPRrStYZWCfvLfZg1wQJRUOeBtuOwB0+814w/L2/CN3vcaG1Xf8LpKxlAUoyIcRl8xcfREQK+rwncPk1CZ1i6Ebf/TNspfiQ4rGaGw1U+lFbSdyqUDCLDX66NRaSVryDhWJ0PS1fzXQvW2CZhw243VqxtQ3WjhLQ4gyrB2t6jXtzxjANODQQrpHsywwZBluVstQdCemZ9iQsLn3MoeqLQ7pGx6hsnrvhbLa59rA4ffNcOj08fX3CtFaL11HXn2qFSnBg2Lp1GaUbhhNrcht75k6xIidVWymxPfLSZz+dEZ5xuGW9/3YbL/q8G85fW4+Ni5Z7n63e7MX9ZPd2LwBGBYZhBAAbrY8kXHjbsduPqf9Tir9fFISs1dG3PSsq8WP1NGz4qbtfEEWUo7P7ei4OVvpD+O4ZCZooBM3Ms+Hwb9ZgOhQgLw+w8ChLCyYQsE4amGVFaQfU+oSAw4JqzI9UeRq9JMrD6G33mzm8+4MbmA27ERAq4MN+GOQW2kDwL3V4Zz/y3Ba99QXeScEdiWWJK/j3zGZCl9lhIzzW0Sli1wQm3V8boQUaYjMHZVt53zIt31jnx93834V+ftGLPUS+8Oj+BFxhQNIa/dnyDkgxU+BUicwsjcMY4/j4TpH8YgHUl2i9O5dFZE6yYN5W/05qNewMpOnrm8sjYcdiDf3/dho+L21HT5EeEmSExWuxXsbPPL+P9b9vx4IsNWFfipgaaPGKoZ7m3lxcDyFV7LKRvomwC5hYFdgF6e2V7pcOP7Yc92HHIg3UlLpTX81fI2192q4CP/jcZFhN/+Tt3PuPAOrqxMuj+/VASMnVwmynpHadbxnn/U6Xbk1O1CAx444FEDE0zqj2UXrv/BUfYntjGRgrIHmJC9hAjxg42YcxgY7f1JJIE7CrzYM0OF97/1on6Zkot4txeA2TEgb/1ETmu2RnoNPTSp63ISDFg8ggzRg00YkCCAXFRAsTjWwGtLgnVjX4cqvRh7zEvtpZ6UNccfkHByVraAxe/zSngL73k1gvt2LDbRUe4QTRxmDmsAgS/FDhBPFDhRW2jH+0eGWYjQ1q8iGFpRgxLN4ZN/YvNzHBBvg1v6XznWGnn5Vm5DBAcLRK+2hm+J0sNrRK+3uXC17sCQZIoAAMSDBiaZkBitIiYCAFGA0OrS0Jdk4Tyeh/2HvVqpgsjCYo4AxgS1B4FCY7DVT4crtJ5flAIrFzv5DJIGDHAiHMmWnVVWKe2S6fy9znoi5IyD95Z58Tn211obT/9bl9spICzcwOpIrzV7vTFvKkRFCQEkUFkuPl8PruEvbvRCZ+fFrwd/BJQVuNDWQ2tMcKIRQDdkUDC3M4jHuwv57Ng8dYLo6jHe5AkRImYmaPvWoQKhx/3PO/AVf+ow+qNzi4DBCCwm/jW2jZc/pca/On1Rjha9J0+kJVqwMSh9EgMlosLbUhP4K+jkazjgmVCesEsANDuXeOEKGTlej4fCOnxIi4Jk93vULuo0AaDjgOuj4vbcflfarBmR+9zrCUZWL3RiUv+twbf7tN3Cga1Qw0Oi4nhhvP462gEAMWlbnxfSzvmJOwZBJmCBEK4vDW6ww3n2WEz63dxqwRRAOYW6TfYWv5lGx56uaHfRbnNTgm3P1WPdzfyGVT3xJk5FsRH8XXhlxZdPiMCCVH8nSIAwH843TQiJMhcAgPT97YQIT3Q2i5xe7labKSAq2fxuWOnFdPHWpAcw+eCpjvvf+vEoyubIAcpBvZLwJ/faMRXO/XZ9cUgMlw8hU4T+iM2UuDyXgQgULD8xXZ9frYJ6SWXAFmmIIEQACu+agvaQkppvz4zksvbTLXiUp2mmBwo9+LhN5qC/rqSBDz0UoNu2ybPLbJBpMOEPrv1wijYu2mXqVUr1rYpdgsxIRrXKoAh+E8QQji0v9yLTZzmW1tMDHfP5bOLiNoGJxmQP9ys9jCCTpKB/1vRFLIFT7tHxv+92QivDjvAJMeKmD5W30XsoTJigBEXTeEzdc/tlfH2OupuRQgAgMk1AmM4ovY4CNGKVz5rVXsIfTZrvBVTRulvsRtq86ZG9OtmUa16Y00rdhwObcnZxr1u/O9yfe4zXcrhDcFqYwy495JoCHweIuC9jU40tuq7gxchPSazakGGfFjtcRCiFZv2ubH3KJ/tUAFg4dxoXXfoCTazkeHCyVa1hxF0Le0SXvhYmYD3g++c2MPxd+Z08keYe32Lfbg7d6IVuZy2kJVl4I2v6BSBkA4yY0cFBoGCBEJO8OoX/J4mZKYYcPkM2gHtqdmTrIiycbrt2YUXPm5FU5syO6KSDCz+T7Mi76UkxkDthXvBYmJYMIfflMevdrpwpJranhLyA0kqpZMEQk7y6ZZ2VDr4Lci8abadWjj20DwdppRUOPxYofCtwcUH3FhXor+OMD+bbIPFRCdzPXHTbDvXzRNe/5LfzSFCQoEJ7IAAv7RH7YEQoiV+CVi+ht8HRoSF4f5Lo9UehuaNHWLCqIFGtYcRdE++2wyPV/li4sX/aYZfZ+ncUTYB503UXzpasA1LN+JXM/kNuHd/78WWUroyipATyRLbIRQ/OaAUQJXagyFES1ZtcKLZye+KZ9Z4K2bmUHeWrszTYSpJSZkXH29R576PI9U+rP5Gf5dQ0Q3MXRME4PdXxHBdC/U6xymmhIQEQ92WJ1LLOnISvlF1MIRojNMt4511fC94HrgsWpf59sEQHSHgnFz97RAvWRW8S9P64pkPmuF066sl6qiBRowZzGcxrhKuOCMSowfxeyL3fa0Pn27l8yJNQkJoMwAIAMCYvF7dsRCiPa992cr1gichSsTdF/NbSBhKF02xwWTkd+ezM2t2uFCscspEfbOEVz7X367sZdP0d+oUDKlxIuafb1d7GP3y/IctukuTI6S/ZAlrgONBggxQkEDISRpbJbzBcW0CECi8LBhJdyecSGCBG3X1xC8By97VRoeh1z5vRW0Tv4X/nTkn14roCDqVO9lDl8fAZuY32C6r8eGjYjpFIOQUjH0OdJwkuKuKATSoOiBCNOi1L9rQ0s7vNhNjwEO/5PtBHmwFo8wYkKCv/vcr17dppn1ju0fGM/9tUXsYQWUyMswp0Fdg2V9zi2zcX974/IctkPid3gkJDYa6odWpW4HjQcLmZyd6IeM/6o6KEO1pdkp47Qu+L9hJixNx3zzqdtThUp0VojrdMp77UFuL8nc3OrHvmL4uWLt0agQEirUBAOkJIu6+mO855ftaHz5RqcifEC1jMla/9Rb8wPEgAQCYwFaoNyRCtGv5l61wtPC93TSnwIZzqZUjUmJFTB2tr65PL37SornPpyQDT7ynjfSnYElPELnfOQ8GUQAevjqW+9PJZ/9LtQiEdIrJPxwa/BAk2ONTvwBQq8qACNEwp1vGqzooxnzwF9FcX3YUDPOmRkDQUWp5TaMfy9do86Rrw243Nu51qz2MoKJ2qMD159oxdgjf3Z4OV9EpAiGdYqhrQvtnHT/84XH55R/ggyyvVGdUhGjbirVtqGnkuxjTbhXwv1fH6mqR3BtGkeHnU/SVV/7k+y1webTbgevxVc26yvmeOsaC9PjwDbRHDTTi+nMj1R5Gvz33YQsk7X5tCFGR/NqBpUN/2N356XJBFJ5XfDyEcMDtlfHyZ/yfJkzIMuHKM/l/yPfFWRMsiLPrJ0Lad8yLD77V9l0eB8q9eF/jY+wNgQEXF4bnaYLNzPDwNbFcX5oGAKUVXnxG9yIQ0jmf/OKJP/zJE7N4SWoxZPalsiMihA8r1ztR4eD7NAEAbrnQjmzO0wX64tKp+lrcLVnVzMVu6NP/1fZpR2/9fIoNJgPfC+W++O3lMRicxH9XsMc5+d4QojiZfVn81IAdJ/7UKdtqAvz/UG5EhPDD45OxZBX/xZhGkeHv18ciNlI/u+rdGZZuxPgs/QRG60tc2LSPj3z/mkY/XvuS/1O4DnF2AWeO11fxe3fmTY3A7Dz+Gx+sL3Hhmz18fG8IURoTpEdP/rlTVgmbnxzwIQNKlBkSIXz5bGu76rfaBkNyjIi/XBs+9QmX6ujGXEkClqzmK1h9+dNW1DfrpzhBb6dSXRmWbsTCufzf3M7j94YQpTCgpDg+/cOTf/6UJYIsQ4YsP6LMsAjhz6PvNOmiGHPScDPmn29XexghZzMzzM7TT5CweqMTByu1cXFaT2nxLof+GJ9lwogBRrWHEXI2M8PfrouF2ch/etU769u4+94QohRZZr+T/4BTVjad7iNm1qS/BmBryEdFCIf2HfPi3U36KMa8/hw7ZuboO3ViToGN+57uHZxufm8zXrlBX4u0uUX6CTxP54+/jtVFHYLeglRCgorJ3215MnVVZ7/UaZDw1lvwSwJuB0DlPYR04sn3mtHm4v/rwRjw+ytiMCCB/4XA6cwt0k9qyGtftKKumc/ieUkCnnhXP+ke50+yIcKij+CzM9eeE4mzdFJ78cLH2rtwkBCNkGWI98ly5+v902Ykb12StoEBb4ZuXITwy9Ei4YWP9bEzFWUTsOTmONit+itQyBtmRlaqPgIgR4vE/aV+a3fxU3DdHZuZ4cJ8fZ4mFI0249YL+K9DAIDyeu1eOEiI6mQs37I05avT/XKXqwIvk+8HQN8uQjrxxpo2HKvTR/rEkGQD/npdLESdxQnzpupnEffU+81wuvk/vVq2Wj8tKOdNiwDT2WHCsHQj/npdnG6aGix7txker04+cIQEV6PM/Pd39Ru6nAa2L00/xsAeCu6YCNEHj0/G4v/oJ32iYKQZ914SrfYwgiYhStRNvcXBSh9Wb9RHHcyeo158tFkfl1llphiQO9Ss9jCCJs4u4LGb4nRTw7NprxufbtHHZ42QYGOyfNeWZQMruvo93e4VFD+RuhSQT2mLRAgB1uxwYc0Ol9rDCJrLpkfgsun6yOG/uMjG/e2wHZas0kdHrQ5PvNusmwvWLtXJaZVBZPjrdXFIixPVHkpQeHwy/vbvJrWHQYg2yXhv8xP/3959R0lVHmwAf947sxV2F5ZdYGZWQEGNKBpZEBVLiqb4KSrF3k0gSlFsMUaDGlM0RmB2FgQ7Ggv2LqJiAQR2ZhaUIlKUsg2W7W3afb8/kIQQypaZ+9575/mdk6PnAHOfyM7Mfe7bPM8c6rcdsiRICSmF42oAlXEJRmQzD71cb4tFzHvcNiYHpxxj7aejDg248FR73LytWB/CkrX2mMe/R1VdDC9+Zo+ZrD89IR152da+sd6zgUHhIPscOPjEB03YssMe00GJ4kkA26WmXd+e39uuWYdBb9+dgLgG3O2I6H9U1cVQ/LZ9ph05NODh3+Ti+MOte8Nw5pB09Olh7Rs3ANAl4LXpAVB22XHG6RC40OLboU4elY3/O8n6JyrvsWVHFPMsvsifKEGi0MWlu+/rD63dS5MCRa4FQuChzucisq+Xv2jGqs3WP4l5j/RUgenjczGgjzV3Bhp7uj2mTL23ogXrtkVUx0iIlpC0zQ5hYyw8tW3c6d1w9VndVceIGymBv71Uj3CUzzSJ/pe8w1/sWtze392h/QsCvdx3SYj3Oh6KyN50Cdz/fJ2tvph6dNcwa1Iv9O1prSfyh+U7cdJR1p4uBQChiMRsix6c1l6vLG6xxZSQ/BwHzjjOej9zvxiagTvG2WezAgB4e3kLSr611/Q8oriQ+FegyDO9I3+kQyVBToMejUWuALCxQ8GIksD3VVHM+8heQ9x9ejjgvaEXsjOtsx/iRTbZlvJfi5pRWWvNg9PaKxqTtjlgzWqjV4VHpuG+K3tAs8F7ZY/6Zt220/OIukIAK0VEjO/on+vwN/9Xs/rVCojzAPCdSLSPJxY04fsq6z8Z3dtAlxMzJuQiPdX8dxPpqQLnjrD+3OraJh1PL7T3KMIen6xqw8pN1p+qd9JRaejf2xrT8wb3S8H08blIdZr/Pd0R019vQG2T9de5EMXZrggco/1zXB3eR7tTjwf9Ra5vdImrwIXMRP8lHJV44IU62xwWtccJR6TikfG5SEsx903FL4dmWGrU40Dmvt9oqx2zDmX6Gw2QFv+/K8Tu+f1md3RBCoon9kK3dHO/lztqyZo2vLPCHmeJEMVRVIM+dlVRn+8684c7/W1a6nO/KSEe6OyfJ7Kr0k1hPL/IXtOOAGDE0WmYbvKiMM4GZzxs2RHFa0uS62Zn9fdhLCy1/qFX547IQIaJR9wG9HHCd6O1pg+2R0OLjr+8WG/5okkUdwJTS4oKPu3sH+/SJ0VpnuteAO905TWI7Kj47UZ8W2a/XWlG/CgNj4zPRaoJi8KQAak45rAU1TG6zPtmA6Kx5Lvb8b3VYPmF/1kZGn45zJzT3fr3dmLulDzkZtmrIADAX1+qR1WdvdfvEHWYkM8GvG5fV16iS58Wchr0jMzUywCs7crrENlNOCpx9zO1CEWsfdOzPyf/KA2P/NZ8RWHs6dbeqx4AghvDtjrBuyPKdsUw/3PrH7B2kQmnHPXLd2LOlF7olW2/gvCBvxULg9YfhSKKs2CaU07o6ot0+RNj8YN5jZoDowHB88+J9rKpIorit+25+PSUY9Lwj+t7mqYo5HTTcPaJ5nyC215SAjPeSO79IJ5Y0ISGFmsvPD26IAVDBpjnIMIBfXYXhPwca21l3B476mJ48GXeehDtTQJVUSHPX/pIQZfbc1weK5TMcK8HcDEAjvcR7eX5T5uwZK099+w+7dh0+G7INcUCyPNPzjT1Won2WBBsxZot1t/lpysaWnQ8scD663nMMqo10LW7IPS2wenj+5ISeOCFOsuXSqL4EhFIcdEqr2d7PF4tbmOPgSLXAiFxf7xej8gOpAT+/Hwd6pvt+UVWeGQaHp2chx7d1U1jEAK4cKQ5bso6KxKTmP2OPUedOuqlz5qxbae1txH+xdAM5XP/j+2fgsduykNetv0KAgC8srjZtg9giDpN6JODPtfn8Xq5uH6KBYrdfwbEy/F8TSKr21kfw19fsu+Q+OB+KZg7JU/ZdIZTjklDv3xr7E9/IC991ozt1da+MY6XSExilsULU6pT4LwR6orriKPTMGdKHnK62W8NAgBs3RnFzCSfmke0LwnxTMDrmRPP14zrJ4iUkCHdeR0gV8fzdYms7qPSVry93L7bWg50OfHE1DwU5Bl/sz72NPMtFO0Iu0yxiaeFpa1Y/b21p16NGdlNyWnGPzk+HTN+l2vqrVi7IhyRuPPJWrSG7bcpBFEXfNkomru8UHlfcX/MsLo4vykK5ygAu+L92kRW9vf59dhYbr9tUffw9HLgyal5GNzPuG1IXbkOnH5sumHXS4THP7D+Yt14k3L3AWtW5slz4JTBxv5sjh6ZiYeut99Jynv752sNWL/dvp+jRJ1QGYvq4zZ4B8V9/l1CxiJXFfX5TpO4FFzITPRvbWGJ2x6vRVOrfW8Ie2VrmHtTHn5yvDE3R2NGdoNm4RkVZbtiePkL62/7mQgrN4XxySprbwc77jRjphwJAUw4Jwt/vKQHHBZ+PxzKwmArXlnM9wvRf4iI0MW4lbMLyhLx6gn7OCnxuRcKKe5J1OsTWdG2nVH86dk6W58MmpEq8PBvcjHhnKyEXifFIXD+KdZesOx90/oHiCXSjDfqEbHwwXIjj02Hp1di1+qkOgUeuLonxv86se831bbujOLPL9SpjkFkKkLiRn+xa3GiXj+hzxwCxa6/A3gpkdcgsprPvm7Ds5/Yew66EMD4X2fhnksT92TzrBPTle8g0xWrvw/j45U8BOpgyqpjeHWxddfyaAIYPTJxa2ZyummYNakXflVo7TNCDmXPOoTmNusWRqK4Eyj2+1yPJ/ISCf2GlRIyLUW/FkAwkdchshrfWw0IbLT2wsz2uODUTEwfn5izFKy+YPmR1xtsPaIUL4990GjpKXrnn5KZkDUCh/d1Yt5teThxoHkObkuUB1+u5zoEor1JLA31qrsl0ZdJ+GO4pY8UtEopRkOgOtHXIrKKmA7c+WQNdtTZf9nOyGPT8dwd+Rjoit/OR0d6UvBjC98cfbyyDas2278kxkNdk46nFlp35K1ndw1nnRjfNTqnH5eOp29Rs5uY0T4ItOKNL607mkSUAOVSxMatnjY44V8ihozVB32uLVKXlwDgRuBEP6hp1HHX07WIWfchabv1y3fi6Vvz8dMT4nOzNNagBaGJEI1J+N6y9s49Rnv+02ZU1Fi3UI89PT6jXpoAbvi/LEwfn4vuGdadatde35ZF8MDzXIdAtJc2XdcuCBYdVm7ExQz7lAn6PB8LIe806npEVlC6KYyHX7XvQWt7y0wT+Mf1ubjx3Kwu7R/fLV3gnOHWLQmvLG7BVoufKGy0cERi1jvWLVYnHJ6Kowu6tjVwVoaG6RNy8ZtfZUHYd4fTf6tp1HHL3Bqeh0C0FykwsbS4b4lR1zP0UYTf6/kngKeMvCaR2c3/vBkvfpYc2/oJAVz/yyzM/F0vZGd27uPn/07KRGaaNe+Smlp1PPaBtU8TVuUDfyvWbbPuvPSurKEZ6HJi3u15OM3iZ4K0VzgqcdvjNZYePSKKOyFnBL3uJ428pOHjldlN4RsB+I2+LpGZ/fO1eny+2tp7wnfEqYPT8OKd+Rg6qOPrCqy8YPnJD5tQ15QE88sSQJfA9NesO+p2zvCMThXjc0/KxDO35aNfvv3XH+zx4Mv1XLNDtDeBxSJUeYfRlzW8JCx6akCbcIgxAHYYfW0is9J14I9P12JDmXWflHZUn54OzJmchwnnZLX7QLTCI9PiugDaSFV1saQZMUqUwMawZct0eqrAOcPbv1Vpt3SBv1zdE/dd2QMZqdYcOeuMeR834Y2lXKhMtJetEtpo/5xCw28QlKx88s9wbRW6GAOAjwqIftASkpjyaHLseLSHpu0+T+HRyXno0+PQh04ZdYJtIhS92YBQhPOru2rG6w2IWvSAtXGnd2vXeoJj+6fg+d/n41fD7H3+wb6Wrg2hiIv6ifbWJiHGBL19d6q4uLLtEfzFrsVCiNtVXZ/IjHbUxXD7E7VJdzNZOCgVL9yZjzOHHHjOda9sLW67Ixlt3bYIFgR4cFo8bNkRteyWmAP6OFE4KO2Av64J4Jqzu+PJqcmxveneNlVEcedTNdA5G4/oP4S8IVjkUjZFX+kean6vyyuAJ1RmIDKb1d+HMe25uqQ7aCunm4ZHxufi3it6IGs/2zteeGo3OB3WnHYx4/UG6En295lIc95rREvImv9Bx52x/9GwgjwnHp2Sh8mjsi37c95ZtU06ps7dxROVifYm8Y+A1/O0ygjKN1rOagpPkhArVOcgMpOFwdakHXY/b0QmXrorH6cO/s8TV4cGjB5pzalGn69ug39DSHUMW6lp1PGMRQ9Y+8mQdOTn/GdqnRDAxWd0w4t/yEdhJxbyW11LSGLK7F0oq06eaZZEhyTwcXa++y7VMZSXhEVPDWjTnOELABhyMASRVTzzUROe+ciaN0Jd1aeHA0U39MKD1/VEdqaGM4ekt2vNgtnoOnhwWoI8+0kTqmqtd2PpdIh/F153rgOzJ/XCHeNykmpx8h7RmMQdT9Rg7dbk2bCB6JAkvhchccmiaeoPIBbSJHMahk4qO0UIsQjAgSdsEiUZIYC7L+mBC0615lP0eKiqjaGhRceRnq4dRqXCK4ub8beXrLttp9mNOjkT0y7voTpGh+2oi+HphU2YNCrbsmd+dJUugbufqeVaHaL/1iqkOM3vcwVVBwFMVBIAYOjkst8JiNmqcxCZiaYBf726J84emlw7nVhdS0jigvursKuBKzETRRPAs7fn40eHWa9AJrt/vlaP5xdxS2CivUgAlwaK3C+pDrKH8ulGewsWeR4F5FzVOYjMRNeBe+bVYelazmu3kmcWNrEgJJgugemvczqX1TyxoJEFgWhfUv7NTAUBMFlJAAARrpwE4AvVOYjMJBKTuP2JGqzcxKNFrGBHXQz/WpSc60mM5t8QYoG2kHdXtGL2u42qYxCZigQWDtzh+ZPqHPsyXUnwzymMOPSUiwSwXXUWIjNpC0tMnVuDTRXK1zLRIcx+txGtYfNM5bS7mW82cH99C/j0qzbc96/apNvemegQNkhn+KL582G6nRhMVxIAYEVxfqUUchwAPh4i2ktDi46JxbuwZQeLglltKIvgnRXWPOzLqjaWR/DWcv43N7MvVrfhm0GNFgAAIABJREFUzidrEWOZI9pbk6Y5RpdOH1CnOsj+mLIkAEDA61kmhRyvOgeR2eysj+E3M6o5omBSM97gU20VHuXojWktXRvCHU/WIhLj3w/RXqSAvK5kZp/VqoMciGlLAgAEvZ55EChWnYPIbGoadfyuqBoby7m/uJksXRvCsm84AKrCzvoYnv2Y60DMZunaEG59vAbhCAsC0d6kwJ/9RZ6XVec4GFOXBAAQoYqpEuJT1TmIzGZ3UdiFDWUsCmagS8D3NnfaUenZj5tQ3WC6ab1J68t1LAhE+yXxdmkv932qYxyK6UuCf05hJEXqYwXwneosRGZT26RjvHcXTyw1gbeWtWD9dv49qNQSkpjzHnfOMYMv14Vwy2MsCET/Q2K9iLRdKafB9BNTTV8SAGC5z7NLCIwBwJVpRPtoaNFxo28X1mzh9qiqhCISc9/nzakZvPFlC9frKLbsGxYEov2SaJSaNto/54h61VHawxIlAQBKvO5SQExQnYPIjBpbdUyaVYM1W/gkW4VnP25CVS2nuZiBru/eEpXUWLymDVPnsiAQ7YcOyMuC3r5rVQdpL8uUBAAIFLmeg5AzVOcgMqOGlt2LmXmwlLFqGnXM44JZU1mypg3LuYDccO/7W3HrY7UsCET7ISDvDfg876jO0RGWKgkAMLDScxuABapzEJlRS0jilrk1+CDQqjpK0pj9bgOa23hTZDYz3miAzr8Ww7z0eTP+NK8WUW5zSvQ/hMCbAZ/nAdU5OspyJWH+fMTSUvTLALlZdRYiM4rEJO5+ppZPtw3wfVUUb37JpVJm9G1ZBO+V8O/GCE8vbMJDL9ezlBHt3zdOpF8lJSz3DrFcSQCApY8U1EiB0QCaVWchMiMpgZlvNODhV/nFnUjTX2/gCbImVvx2I9p4wFrC6Drw1xfrUPQW14AQHUAtdP28Zd5cS75JLFkSACDo9ayCEFcB1mtmREZ54dNm3PscpwAkQmBDCIvXtKmOQQexoy6G5z/ls6REiMQk7nqmFq8u4WgN0QHoQsgrA8UFG1UH6SzLlgQACHhdr0HiYdU5iMzs3RWtuGVuDVr5RDVudLl7FIHM7+mFjaht4nBPPLWEJKbMrsHCINc+ER2IgPij3+t5V3WOrrB0SQCAYL77TkC+rzoHkZktWRvC+JnV2FHHbTrjIRyROGd4Jk4cmApNqE5DB5KbpeGsH2egjiUhbipqYrhuejVWrOfuUUQHJl8L+FwPqk7RVUJK6z9dPP7GrT1THM4VAAapzkJkZvk5Djz8m544bkCq6ii2UdOoY9FXrfhkZRv8G8Kc2qXYgD5OnDkkHWcen44hA1ji4umr78K49bEa1DSydBEdkMBX0TTHqav+0cfycx1tURIAoHBixTHQ5DIA2aqzEJlZaorAPZf2wDnDM1RHsZ3mNonl60NYurYNS9eGUMWRm4RzOgSOPzwFZxyXjjOGpKN/b6fqSLb0Xkkr/vxCHc9AIDoICdRoInaS33vYJtVZ4sE2JQEAhk2uuEBCvgaAz46IDuGas7tj4nnZfNKaQBvKIvjymxD834ZQuimMlpB9Pm9VcWjA4H6pKDwyFcOPSsMJR6QiI5U/xImiS2DWOw14emETbHS7QJQIMQntvGBRX9tMgbdVSQCAwskVDwDyj6pzEFnB6cel4y9X90S3dN5kJVpMB9ZtDSOwcff/Vm0Oo6mV0zYOxaEBRxekoPDINAw/MhUnDkpDZhp/Xo3QGpa4Z14tFq3iLl5EhyKEvM3v9fxTdY54sl1JEPdBG1pd/iaAc1VnIbKC/r2dmD4hl9M0FKhuiGHlpjBWbg5j3bYI1m6NJP10jvwcB445LAXH9EvBCUek4oTDU5HOkQLD7aiL4Za5NVi3LaI6CpHpSeD5YJH7ctU54s12JQEATvt9dVZrS3gZgMGqsxBZQXamhvuv7IHTj0tXHSWphaMSmyui2FgewcaKKL4ti2BjeQS7Guw34pCVoWGg24lBrhQMcjtxhCsFR3mcyMqw/KZ7llfybQh3PV3LBcpE7bNKhMWp/jku2x0aYsuSAADDby4/Wo+J5YDMUZ2FyAqEAK78WXdMGpUNB+/TTKWhRce2nVFs3RnD1h1RbN0ZxbadMVTWRlHTqJt2rnh2pgZPLwcK8p3w9HLgsDwnCvJ3/7NPT4fqeLQPXQJPftiIOe81Qmc/IGqPXY6Y86QVs3pvVh0kEWxbEgBg6OTyUQJ4HTY4D4LIKCcckYq/XdOTN3EWEY1JVDfoqKqNYUddDDvrddQ366hr0VHXtPvf65t1NId0NLZIRGOyUwuoU50C6akC3dIFsjM1ZGVoyMoUyM7QkJWpoXcPDb2yHejTw4Fe2Rp65zg4TchC6pp03PNsLZau5fkHRO0UFZr8hX+mZ5HqIIli65IAAIWTy+8FME11DiIr6dFdw/1X9sTIwWmqo1CChCMSbXutfwhHJULh//x6ZrqAQwPSUwVSnbzZt7OvvgvjzqdqUVXLLXuJ2ksIcZPf6/KqzpFIti8JQkAUTqyYL4UcqzoLkZUIAVxyZjfcfEE2nA7eJBLZ0WtLWvDQy/WI8BBAog6QzwWKPFeqTpFotp+GIyVkm3ReK4A1qrMQWYmUwAufNuN3Rbt4KBiRzTS16rjt8Rr85cU6FgSijikVYW2C6hBGsP1Iwh4n3rT9SE3XVgDooToLkdV0z9Bw0/nZGD0yU3UUIuqiVd+F8ad5ddheHVUdhchSJFDl1DF8RbF7m+osRkiakgAAw6ZU/EJK+R4Arsgk6oSzfpyBP1ycgx7dbT8ISWQ74YjEnPcbMe+jJujJ89VPFCciIoU4O+jt+5nqJEZJqpIAAIVTKu6ClH9RnYPIqnKzNPzxkh74yfE8U4HIKjaWR3DPvDp8W8bD0Yg6Q0h5o9/nma06h5GSriQIATF0cvmLkLhIdRYiKzvrxAzcfWkOD78iMrGYDjz7cRMefbeRaw+IOklAzPMXua5WncNoSfftLiVkKJZyPSC+Vp2FyMo+Km3FpX/fCf8G7qtOZEZl1TGM91aj6K0GFgSizltWL5rHqw6hQtKNJOxx4tTKAVpML4FEnuosRFamCWDMad0w6bwsdOeoApFyug689HkzfG83oC2cnN/xRHFSGYvqw1bOLihTHUSFpC0JADB0SvlZQuJ9AE7VWYisrle2hpvOz8H/nZShOgpR0lq/PYK/vFiPNVvCh/7NRHQQIgKBnwe8ri9UJ1ElqUsCABROKb8dEg+pzkFkF8OOTMNdl+Sgf292byKjtIUlHvugEfM+boKuq05DZANCjA94XY+pjqFS0pcEACicVP4UBK5RnYPILtJSBK45uzuu/UV3pPC0ZqKE+mJ1G/4+vx6VtTz0kCgepBCzg17XjapzqMYJxADSUvUbAfhV5yCyi1BEYs57jbj4rztR8i0XNhMlws76GH7/RC1unlPDgkAULxJLw71qb1Ydwww4kvCDYTdX9JMx6QeQrzoLkZ0UDkrF3Ju4PwBRPC37JoTbH69BS4jf4UTxIyokosOCRYeVq05iBhxJ+IF/hmur0MVoQPCkGaI4uuiMbqojENlOfo6DBYEovto0EbuABeE/WBL24i92LYbEHapzENlFXraDJzMTJcBAlxPH9k9RHYPINiQwqcRbsEJ1DjNhSdhHwOeaAYknVecgsoMxp2XCyYXLRAkxakSm6ghEtiAlvMEi9xOqc5gNS8J+ZDeHJ0oItkmiLnBowAWn8CaGKFF+OSwD6aks4URdIrA4nF93u+oYZsSSsB+LnhrQpjnDFwDgvDSiTvrpCRno3cOhOgaRbWVlaDjrRB5eSNQFW6MRx5jV0wbz9MH9YEk4AP/0/hW6hnEA+IND1AkXnc5RBKJEu+rn3aHxm5yoM9p0XRu7anafHaqDmBU/Wg6idKZ7qQCmqs5BZEV5ORxFIEo0dy8H0lM45YioE24sLe5bojqEmbEkHIK/yD0LQFIfy03UGQsCraojENneAn8rt0Il6iApxT8DRe6nVOcwO5aEdhDhiokAvlCdg8hKPiplSSBKtHdLWlRHILIWgY9z8l13qo5hBSwJ7eCfUxhx6CkXAShTnYXIKjZVRLGjLqY6BpFt1TTqWLmZy+aIOmCLhHbpommIqg5iBSwJ7bSiOL8SQo4FEFKdhcgqAht5A0OUKCvWh6DrqlMQWUYrNDEm6O27U3UQq2BJ6ICA17NMSDlBdQ4iq/i+ig9riBJlcyXfX0TtJKXEdYGZroDqIFbCktBBfp/nGSnEbNU5iKygspbTjYgSpbmNwwhE7SGBB4M+94uqc1gNS0InaKHymwD5meocRGbXGuJNDFGiZGXyK5zoUCSwcFCV+27VOayInzCd4J9TGElxpFwMYJvqLERm1itb/VkJur57bYTOXSLJZgb0dqqOQGRuEt9rYXHZ/PngsHYnsCR00rIZvas0gfMBcJ9HogMYdmSa6gh4c1kLxs+sxrnTqlD0VgM2VXAeN3VOc5vEO8tbcKNvF/72Ur3qOCg8MhUaz1EjOpAmzeE4zz/HVa06iFUJKfl4rSuGTqq4Ugg5T3UOIrPJy3bg3ft7w+lQdxfTEpK48P4dqG7474dIA11OnDM8E+eOyECeCUY7yLx0HSjZEMJ7K1rxyar/HFymacCLd/bGQJfap/lTZu/CkrXcdI9oHxJSXhLweearDmJlLAlxMHRS+UwhMEV1DiIzmXBOFsb/OktphrnvN2LOe40H/HVNA4YflYaf/zgdPz0+A7lZHFwlIKYDgQ0hfLyqDR+VtqKuaf9ra0YOToP3hl4Gp/tvn69uw9Q5NUozEJmNkOIBv891j+ocVscJjXGQk+++tWFnxRAI+VPVWYjMIDVFYMzIbkozVDfE8OzHTQf9PboOLP8mhOXfhPD3l+rx44Gp+NkJGfjZCeno05MjDMkkHJFYvj6ET1a14bOv21DffOhF90vWhrB8fQgjjlY3re60welw5zpQXsMp10Q/WHDEDte9qkPYAUcS4mTEpLJeUYEVgDhCdRYi1caMzMRdl/RQmuGBF+rw+tKWTv1ZIYDB/VLxsxPSccoxaTjKkwLBud+209CiY9k3IXz6VRu+WN3276lEHXGUJwX/+n2+0rUBL37WjH+8on6NBJFqAvg25gyPKJ0+oE51FjtgSYijoVPKThBSLAWQqToLkSqaBrx6d2/0y1c3UPldZRQX/20HYnHagTU3S8PQQWk447h0nH5cGrK59aQl6RJYvz2C5d+EsGJ9CIGNYURjXf8OnHZ5D4w6Wd3HfltY4txpVag9wLQooqQg0RiDdspKX981qqPYBUtCnA2bXHGZhPyX6hxEqvxqWAb+cnVPw68rJbB6SxhL1oawwN+KrTsTs4uRQwOGHJ6KU49Jw7Aj03Bs/xSli7Pp4CprY/BvCGHZuhCWfRNKyI10dqaGXw/LwJlD0jHsqDQ4FHTIJxY0YtY7B15/Q2RzUkKMCxa5XlUdxE5YEhKgcHL5PwDcpjoHkdFSHAKv3J2PgjzjRhFaQhLPf9qEt75sQdku4+dlp6cKHH94KgoHpaLwh9KQ6mRpUGV7dRTBjWEENoYR3BAyfK5+fo4D547IwCVndjN056yWkMT591WhppGjCZSU7g0Uue9THcJuWBISQNwHbWh12TuA+LXqLERGuviMbrhjXI5h1/vs6zY88EKdqW6MUlMEhgxIxQmHp+DY/qk4pl8K+vTgIuhEaA1LrN8WwdqtEazZGkbpxjCq6syxgDcjVWDK+dm46AzjFvDP/7wZD77MtQmUXITAm4Fe7tFyGszzRWATLAkJcuot23NDEccKQA5UnYXICJlpAm9O62PYNqJvL2/B/c/XQbfA10JetgPH9k/B4P4pGHxYKgb3S0GP7lzX0BGRmMSGsijWbgn/UAoi2FwZMf3f/8VndMPtY3MMWfgejUmM/ctObEvQVDsi05FYLyJtI/xzjmA7TgCWhAQqnFhxDDS5DEC26ixEiWbkuQgbyyO48uFqhCPW/fzKztRwhMuJI/o6MdCVgsP7OnGUJwU9k7w8xHSgsiaGzZURbKqI4rvKKDZVRLCpMmrZv++J52Xjul90N+RaHwZb8Yenag25FpFSEo2QYkSg2LVOdRS7YklIsMJJFRdCyFcBcJIy2VZuloY3p/VBZlrif8xbQhJXPLQTW3bY82mpK9eBfvlOePIc8PRyoiDPAU+eE55eDtvsqhSOSJTXxFC2K4aKXVGU7YqhfFcM3++IYktVFJE47DhkJpoGPHd7Po4uSEn4taQErnp4J9ZujST8WkQK6ZDy/IDP847qIHbGkmCAoZPL/iog/qA6B1Gi3D42B5ecaczc666cf2B12ZkaXLkO9O7hQK8sDXk5u//Zu4cDPbM05Oc40LO7hoxUNc8kIjGJ2kYd1Q06ahpjqPnh33c1xFDbpKOydncZqG6IIdm+ekYcnYZZk4w5nbnk2xB+V7TLkGsRKSHEHwNe119Vx7A7lgQD7F7IXPEWIP9PdRaieBvocuL53+cbsg3o+u0RXPHQTuj82DooTQO6p2vIyhTonq6he7pA9wwN3dIF0n8oEN3StX9v1ZmZJuDY5zSwmC7/63AxXQea2nSEIhLNbRKtIYmGFh0tod2/r7lN79RhZMnEe0MvjBxszOnMtz1eg0Wr2gy5FpHBXg/63GOkBD9wEkzdaUdJRE6DfvKUtMsism0ZgGNU5yGKFyGA34/LMeycgEdea2BBaAdd332acEMLAJhjtx8Cit9uwKnH5BuyiPnW0Tn4cl0IbWG+YchW1qWI9GtYEIxhjwmuFrDMm9ugOXAhILgCn2zjl0MzUHikMU9GP1/dBv+GkCHXIkqE9dsj+GKNMU/3XbkO/OaXxmwkQGSQWuj6qGXe3AbVQZIFS4KBSma41+tSXg1wL1+yvsw0gZsuMG7jrqc+bDLsWkSJMue9RsPWY1zx824Y0IcTBsgWdAnt8kBxwUbVQZIJS4LBSn3uN6XAA6pzEHXVhHOy0NugQ8JWbgrjq+/ChlyLKJG+2RYxbEQsxSFwx1jjDjckShiBO4NFfd9XHSPZsCQoUFrkvheQr6rOQdRZR/R1GrabEQA88xFHEcg+Xvq82bBrjfhRGs46McOw6xHFn3w1WOR+WHWKZMSSoICUkBmZadcKYI3qLEQdJQRw50XGLVYu2xXDYoPmcRMZ4bOv21BZa9yC8ltGZxtyhglRAqyKpjuv5kJlNVgSFFn8YF5jVMrRAOpUZyHqiPNGZBq2WBkA3vqyhTsaka3oOvDyF8aNJvTp4cDE84xbP0QUDxKoccSco1f9o49xbxb6LywJCq30eb4FxCXgHoVkET26a5hyvnE3G7oOvL0iOQ9OI3t748sWhCPGtd+LzuiGEw5PNex6RF0UExCXrZjVe7PqIMmMJUGxQJFrgRTyXtU5iNrj1tE56NnduI+NL9e1ocrAaRlERqlr0rEg2GrY9TQB/PHSHoZNEyTqEiluCxS5FqiOkexYEkygtMjzFwjMV52D6GBO/lEazhlu7ALI90qMu4kiMtp8AxcwA7tPR7/6rO6GXpOowyT+FfC5ZqiOQSwJpiAlZCiWcj0gV6vOQrQ/aSkCf7jY2K0U28ISn6/mgmWyr7VbI9hQFjH0mr/5VXeenUCmJYCVIiLGq85Bu7EkmMTq4vwm3ek4DwLVqrMQ7WvCOVkoyDP2xuLTr9vQEuKKZbI3o0fLUp0Cd13SA4Kzjsh8dkXgGO2f4+JCNJNgSTCR0ul9v9d0XAYuZCYTObogBVf8zPgpCh8GONWI7O+9klbourHXLByUitGnZhp7UaKDEhEN+thVRX2+U52E/oMlwWRKfO6FUuKPqnMQAUBqisD9V/aAw+BPioYWHV+uM+ZUWiKVqhtiWPaN8T/rt4zO4bQjMg8pp5YUFXyqOgb9N5YEEyotdj8E4EXVOYhuHZ2NQe4Uw6/7yco2hKOcakTJ4d0S42dXpKcKPHhdT6SmcN4RKSbkswGfu1h1DPpfLAkmJCVkWop+HYCA6iyUvEYOTsOYkd2UXPsDTjWiJLJoVRsaWw2ecwRgkDsFE8/NMvy6RHsJpjnlBNUhaP9YEkxq6SMFrVKKMQB2qs5CySc/x4H7r+ypZHFjdUMMgY2cakTJIxSR+Hilmp28Lvtpd4z4kXEnqBPtIYGqqJDnL32kgE+FTIolwcSCPtcWQF4CIKo6CyUPIYB7Ls1BDwMPTdvbB37jF3ISqbZA0eiZJoAHruqJ3CzeDpCRRARSXLTK69muOgkdGD8VTC5Q5PkEkHeozkHJ4/KfdsfIY9OVXZ8HqFEy8m8IYVeDmnacm6Xh7kt7KLk2Ja1JQZ/rc9Uh6OBYEiwgUOSZDuAp1TnI/g7v61Q6R3lzZRTrtxt7uBSRGeg6sLBUXUE+c0g6zj+Z26KSASSeDhS55qqOQYfGkmAR2U3hGyFkieocZF8ODbjvCrW7nby7gmfoUPL6MKh2FO22sTmGH5pISefLBq3ld6pDUPuwJFjEoqcGtDliYgyAHaqzkD399ldZOLa/8dud7qFL4H0/pxpR8vrquzAqatSdpZmZJnDPZTk8jZkSRFTEovq4Dd5B3JnCIlgSLGRFsXubBowGEFadhezlsHwnrj7b+FOV9xbcGEJVLQ8bp+QlpfrRhGFHpuFXhRlKM5AthYSMXbhydkGZ6iDUfiwJFlNS5F4CgVtV5yB7uX1sDlKdah8fvruCowhEqksCAEy9MAfd0jmcQPEjpJjk9xUsV52DOoYlwYICXrdPCjyuOgfZw+nHpWPkYLX7pIcjEh+vVH9zRKTaN9si2F6tdtfrXtkarj2bh6xR3Pj8PhfvWSyIJcGitFDFjRBYrDoHWZtDA6ZemK06BgIbw2huk6pjEJnC4jXqp2xf/rNu6NPDoToGWZwEloTy6jj7waJYEizKP6cw4oiljAPA+X3Uab8YmoH+vdXvZrJ0nZrTZonMaOk69SUh1Slwxc/UrlMiy9sWizpGr542mOsoLYolwcJWFOdXSinHAVD/jUKWIwRwjeLFynssXcsfYaI9/N+GEIqoH1kbe1om8rI5mkCd0qbr2phVs/twR0YLY0mwuKDP8yWE5J7D1GFnDknHILe6LU/3KK+J4fsqtXOwicwkFJEIblT/8DU1ReDSn3RTHYMsSApMLC3uy7OdLI4lwQYCXs/TkHKO6hxkLeYZReBUI6J9LTHJ++KiM7ohK4O3CtQRYnrQ635SdQrqOr7zbUJEKicD+Fx1DrKG4w9PxZABqapjAOBUI6L9Mcv7IjNN4NwRPDeB2u2T7DzXHapDUHywJNiEf05hJMXhvEgA21VnIfMbMzJTdQQAQCQmUfKtOW6GiMxky44oyqrNcbjg+Seb4/OCTG+LFNoli6aB80dtgiXBRpbN6F0FKc4HwA3n6YCcDoEzhqSrjgEACG4MoyWkfoEmkRl9vtocU46O9KTAk8cFzHRQrdDEmKC3707VQSh+WBJsxu9zBaUUE1TnIPM6tn8KsjPN8db/7Ctz3AQRmdGnJnp/DD9S7YGLZG5S4PrATFdAdQ6KL3PcKVBcBX2uZwH4VOcgczLLWgTAPE9KicyodFMIDS266hgAgMH91e+ERqb1UNDrfkF1CIo/lgSbys5zT5UQn6rOQeZzeB/1h6cBwPrtEVTUmGPONZEZxXTgs6/NUaQPyzPH5waZzkcDq9x3qQ5BicGSYFOLpiGaIvWxAvhOdRYylz49zTG3+N0VXDpDdChvLWtRHQEAkJ9jjs8NMhGJ70VYXDp/Pvi0x6ZYEmxsuc+zK6bL0QDM8S1DptAtXaiOgEhM4r0S/lgSHUpwY9gUhw2mpar/3CBTaRJCH+Wf46pWHYQShyXB5kqLPSshxHjVOcg8NBN813/+dQi1TeaYa01kdm8vV1+odZ27kNG/SUh5vb+o4GvVQSixWBKSQMDr+pcQ4hHVOcgcmtvUf9m/vrRZdQQiy3hrWQtCEbXv28ZW9Z8bZBJS/i3g88xXHYMSjyUhSRxR6boDAh+ozkHq7ahXO310/fYIln3DA9SI2qumUcfrS9WOJpRVq5/yRKbw4cAdnj+pDkHGYElIEvPnI5bm1C8HxCbVWUit7yrVftk/9kEjJB9KEnXIvI+aEImpe+NsrGBJIGzQneGLuVA5ebAkJJGljxTUIBYbDYBzPZLYys1hZdfeWB4x1QFRRFZRVRfDO8vV7QhWulHd5waZQlNMaheWTh9QpzoIGYclIckEZhV8BSGuAsBnuUlqzZaIsgOanljQxFEEok56amGjktGE+mYdqxQ+XCDlpBTy2pW+vmtUByFjsSQkoYDX9ZoQeEh1DlIjGpNYWGr8E8l12yJKrktkF2XVMby2xPi1CR8EWpVOdSLl7g96Pa+oDkHGY0lIUoFe7rskxHuqc5AaL37abOgTfV0C/3y1nqMIRF306LuN2NVg3EigrgPPL+IM1ST2VjDPfb/qEKQGS0KSktOgR2ORKwBsVJ2FjLe5MooPg8Y91X/ps2aUbuJ0BaKuamjR8ecX6gwr3K8uacZ27myUnCTWi3DbVXIaeKhNkmJJSGJfzepXKyDOA9CgOgsZb+YbDWhqTfxn/1ffheF9kz9iRPHyxeo2PPZBY8KvU1UXw6x3En8dMiGJRqlpo/1zjqhXHYXUYUlIcv4i1ze6BBcyJ6GquhgeeDGxU4C27Iji1sdqEI7yx4sonua+34hXlyRuGlAkJnHX07XKNjkgpXRAXhb09l2rOgipxZJAKPW535QQD6jOQcZbGGzF7HcT86Rwc2UUNxTtQk0jbzKI4k1K4O8v1eO5T5ri/toxHbj7mTqs5BTBpCSFnBbwed5RnYPUE5IrCQmAuA/a0OryNwGcqzoLGe+as7tj0nnZECI+r/fF6jbcPa/OkOlMRMlu1MmZuH1sDjLTuv4GbglJ3PlULZas4XkmSeqNoM89WkrOLiCWBNrLab+vzmptCS8DMFh1FjLeGcel457LeiA3q/MDjI2tOorfbsQri41aE9tYAAANL0lEQVTdPYko2R2W78RtY7Jx2rHpnX6NlZvCmPZcHRcqJ69vUkT6iGXeXC4iIwAsCbSP4TeXH63HxHJA5qjOQsbLztTwm191x9jTuiEtpf1PJVtCEq8tacbTC5tQ28TRAyJVhg5KxZU/747TBqdDa2ffX7ctgmc+asJHpa0s98mrFrp+UqC4gDse0r+xJND/KJxc8UtAvgvAoToLqZGdqeGc4Rk447h0DDk8db/TGOqadAQ3hfHZ121YtKoVzW38LCEyi9wsDWccl44TB6VioCsFfXs6kJEqEI1J1DTp2FIVxVffhbF4TQjflkVUxyW1dE3q55X4Cnh2Ev0XlgTar2GTyv8kBe5TnYPUEwLo29OB3CwNaSkCLSGJqtoYRwyIiGxAStwZ9LkfVJ2DzIclgfZLCIihkypeAuQ41VmIiIgoEeRrQZ9nLBcq0/5wC1TaLykhQ7rzOkCuVp2FiIiI4kzgq2i68yoWBDoQlgQ6oNXF+U1ROEcB2KU6CxEREcWHBGoEYqNX/aNP4k7kI8tjSaCDWlXU5ztN4lIAMdVZiIiIqMtiQheX+72HbVIdhMyNJYEOqcTnXiikuEd1DiIiIuoaKeUdgWLXB6pzkPlx4TK1y+6FzOUvALhYdRYiIiLqOAk8HyxyX646B1kDRxKoXaSETEvRrwUQVJ2FiIiIOkYAK7Ww+K3qHGQdHEmgDhk6qaK/0KQfEnmqsxAREVG77IrCMXxVUZ/vVAch6+BIAnVI0OfaInV5CYCo6ixERER0SFGhyXEsCNRRLAnUYUGf52Mh5J2qcxAREdHBSeAW/0zPItU5yHo43Yg6rXBS+VMQuEZ1DiIiItoPIZ8NeD1XqY5B1sSRBOq07ObwDQD8qnMQERHR/yhNc8oJqkOQdXEkgbpk2M0V/WRMlgDorToLERERARKoigk5bJXXs111FrIujiRQl/hnuLYKXYwBEFadhYiIiEQEQruYBYG6iiWBusxf7FoshLhddQ4iIqJkJ6FPCXr7fqY6B1kfpxtR3AybXP64BK5XnYOIiCgZSYhngkWua1TnIHvgSALFTVZTeJKEWKE6BxERURJa1iiauVCZ4oYjCRRXw6Zuccloih+AW3UWIiKiJFEZi+rDVs4uKFMdhOyDIwkUV/7p/SuklGPBhcxEREQGEBEIcRELAsUbSwLFXdDn+VJIebPqHERERLYnMDHgdX2hOgbZD0sCJYTf55kNyLmqcxAREdnYrIDX9ZjqEGRPLAmUMCJcOQkAn24QERHFm8TSUF7dVNUxyL64cJkS6qSJO/vqWqREAgWqsxAREdmDqJCIDgsWHVauOgnZF0cSKKFWFOdXSiHHAQipzkJERGQDbZqIXcCCQInGkkAJF/B6lkkhx6vOQUREZHUSmFTiLeCZRJRwLAlkiKDXMw8CxapzEBERWZecGSxyP6E6BSUHlgQyjAhVTAXkZ6pzEBERWY7A4lBe/R2qY1Dy4MJlMtSISWW9YkKUSOBw1VmIiIgsYqsU2rCgt+9O1UEoeXAkgQy13OfZJQTGAGhRnYWIiMgC2iTEGBYEMhpLAhmuxOsuBcQE1TmIiIhMT8gbgkUuv+oYlHxYEkiJQJHrOQg5Q3UOIiIiE3s44PU8rToEJSeWBFJmYKXnNgALVOcgIiIyHYGPs/Pcf1Adg5IXFy6TUqfesj03FBElgDhCdRYiIiKT2CLCYph/jqtadRBKXhxJIKWWPlJQIwVGA2hWnYWIiMgEWoUUo1kQSDWWBFIu6PWsghBXAeCwFhERJTMJ4Fq/zxVUHYSIJYFMIeB1vQaJh1XnICIiUkUCDwaK3C+pzkEEsCSQiQTz3XcC8n3VOYiIiIwmgYWDqtx3q85BtAdLApmGnAY9EotdDmCj6ixERERGEcB3KVJeOn8+YqqzEO3BkkCm8tWsfrXQxSgADaqzEBERGaBJaI5Ry32eXaqDEO2NJYFMJ1DsWicgrgYXMhMRkb1JAXldycw+q1UHIdoXSwKZkr/I9QYg/qo6BxERUaJIiAf8RZ6XVecg2h+WBDKtYJ7rTwDeUZ2DiIgoARYMqnLdpzoE0YGwJJBpyWnQMzJTLwOwVnUWIiKieBHAt7ozfAkXKpOZCSk57ZvMbfjN5UfrMbEckDmqsxAREXWJRGMM2ikrfX3XqI5CdDAcSSDTK5nhXi8hrwKgq85CRETUBVIKcS0LAlkBSwJZQrDI/RaAP6vOQURE1FlC4t5gketV1TmI2oMlgSwj6HPfJ6R4RXUOIiKijhICbwby3Q+ozkHUXiwJZBlSQrZJ57UC4DAtERFZyTcItV0tp3HaLFkHSwJZyuri/KaYpl8IoE51FiIionZogC5G++ccUa86CFFHsCSQ5ZTOLNgghLgY4NZxRERkaroQ8rJAsWud6iBEHcWSQJbk97o+hBB/Up2DiIjoQIQUd/u9nndV5yDqDJ6TQJYlBMTQyeUvQuIi1VmIiIj28XrQ5x4jJXijRZbEkQSyLCkhQ7GU6wHxteosREREe1mXItKvYUEgK2NJIEtbXZzfpDvFKAhUq85CREQEoBa6PmqZN7dBdRCirmBJIMsrnd73ewlcCiCqOgsRESU1XUK7PFBcsFF1EKKuYkkgWwh63R9B4C7VOYiIKHkJ4PfBor7vq85BFA9cuEy2Ujip/CkIXKM6BxERJRv5atDnGcd1CGQXHEkgW0lL1W8E4Fedg4iIksqqaLrzahYEshOOJJDtDLu5op+MST+AfNVZiIjI3iRQ44w5h6+Y1Xuz6ixE8cSRBLId/wzXVqGL0YCIqM5CRES2FtU0OZYFgeyIJYFsyV/sWgyJO1TnICIi+xIQt/lnehapzkGUCJxuRLZWOKn8CQhcpzoHERHZjXwuUOS5UnUKokThSALZWnZzeKKEWKE6BxER2UqpCGsTVIcgSiSOJJDtDZu6xSWjKX4AbtVZiIjI2iRQ5dQxfEWxe5vqLESJxJEEsj3/9P4VuoZxAMKqsxARkZWJCIR2MQsCJQOWBEoKpTPdSwUwVXUOIiKyLgF5c9Db9zPVOYiMwOlGlFQKJ5fPBfBb1TmIiMhaBMQ8f5HratU5iIzCkQRKKiJcMRHAF6pzEBGRpSyrF83jVYcgMhJHEijpnDRxZ9+YFvED8KjOQkREplcZFXL4Kq9nu+ogREbiSAIlnRXF+ZUQciyAkOosRERkZiICIS5iQaBkxJJASSng9SwTUnKPayIiOphJAa+LU1QpKbEkUNLy+zzPSCFmq85BRETmIyAeDRS55qrOQaQKSwIlNS1UfhMguZ0dERHt7ct60Xyz6hBEKnHhMiW9k2/e0ScSi5YAOEx1FiIiUk1USESHBYsOK1edhEgljiRQ0ls2o3eVJnA+gFbVWYiISKmQkLELWRCIWBKIAAAlXneplIILmYmIkpiQYpLfV7BcdQ4iM2BJIPpB0Od6Vkp4VecgIiLjCaDI73M9rjoHkVmwJBDtJSfffSukWKQ6BxERGUcCS9ry6m5TnYPITLhwmWgfQ6dU5guplwDorzoLEREl3NZo1DF81ew+O1QHITITjiQQ7SPo7btTCu0cAHWqsxARUQJJNEohR7EgEP0vlgSi/Qh6+66FLi4FEFWdhYiIEiIKIcYFvZ5VqoMQmRFLAtEBBIpdHwDiWgC66ixERBRXOoS4JlDkWqA6CJFZsSQQHUSgyPWcFPgtAC7eISKyBwkhbwx4Xf9SHYTIzFgSiA4h6HU/CSFvAEcUiIisLiYFfhPweuaoDkJkdtzdiKidhk4qv0QIMQ+QKaqzEBFRh4UF5BX+Is/LqoMQWQFLAlEHDJtYcZrU5GsA8lVnISKi9pFAjQP6mJKigk9VZyGyCpYEog768aSyoxwQb0HgaNVZiIjo4ASwRos5R62Y1Xuz6ixEVsI1CUQdtNLn+TajW+pwCTyvOgsRER2EkM+26SknsyAQdRxHEoi6oHBKxW8h5SMAuqvOQkRE/1YnpZgS9LmeVR2EyKpYEoi66MSplQO0qP4YgLNUZyEiIvm+QxcTVhS7t6lOQmRlLAlEcSAExNDJZVdDir8B6Ks6DxFREtoKKW8P+DzzVQchsgOWBKI4OnlKTXZEtv0RwGQAGarzEBElgQYh8c/UVP0fSx8paFUdhsguWBKIEmDo5G1uAccfAPwWQJrqPERENtQMoNgp5UPLfZ5dqsMQ2Q1LAlECnXBDVW+HI3atEJgCwK06DxGRDVQCmOOUsojlgChxWBKIDPDTa79Pb+yeNlpCXgvgZ+D2w0REHREG5DsQ4unsXu73F01DVHUgIrtjSSAy2EkTyw+LarhASHEhhDwDgEN1JiIiE2oB8KGQ8o3UVPn20kcKalQHIkomLAlECg2bsDlHpqWfAcifARgJKYYASFedi4hIgV0SCApgqZTik3B+7bLV0waHVYciSlYsCUQmMmxCIEVP6zsYujhGE/JIQBukQ7qEQB9IkQ/IdOzeNYlFgjojCqBRdQhKSq2AbBMQrRKyGkJUQcoKCLERMbFRCqwL+lxbVIckov/4fyvRJzoJjsyPAAAAAElFTkSuQmCC;" parent="-9ZG5ofNiQgSZj17KKBb-35" vertex="1">
          <mxGeometry width="85.19" height="82.67" as="geometry" />
        </mxCell>
        <mxCell id="-9ZG5ofNiQgSZj17KKBb-33" value="Kubernetes" style="text;html=1;align=center;verticalAlign=middle;whiteSpace=wrap;rounded=0;" parent="-9ZG5ofNiQgSZj17KKBb-35" vertex="1">
          <mxGeometry x="12.600000000000023" y="90" width="60" height="30" as="geometry" />
        </mxCell>
        <mxCell id="-9ZG5ofNiQgSZj17KKBb-36" value="&lt;div&gt;&lt;span&gt;sub-charts&lt;/span&gt;&lt;/div&gt;" style="shape=note;whiteSpace=wrap;html=1;backgroundOutline=1;darkOpacity=0.05;fillColor=none;strokeColor=#9673a6;sketch=1;curveFitting=1;jiggle=2;size=17;fontColor=default;fontStyle=2;spacingLeft=7.874;align=left;" parent="1" vertex="1">
          <mxGeometry x="230" y="62.83" width="93" height="27.165300000000002" as="geometry" />
        </mxCell>
        <mxCell id="-9ZG5ofNiQgSZj17KKBb-37" value="&lt;div&gt;&lt;span&gt;rendered values&lt;/span&gt;&lt;/div&gt;&lt;div&gt;&lt;span&gt;for sub-charts&lt;/span&gt;&lt;/div&gt;" style="shape=note;whiteSpace=wrap;html=1;backgroundOutline=1;darkOpacity=0.05;fillColor=none;strokeColor=#82b366;sketch=1;curveFitting=1;jiggle=2;size=17;fontStyle=2;align=left;spacingLeft=7.874;" parent="1" vertex="1">
          <mxGeometry x="200" y="380" width="124" height="41" as="geometry" />
        </mxCell>
        <mxCell id="-9ZG5ofNiQgSZj17KKBb-38" value="&lt;div&gt;root values&lt;/div&gt;" style="shape=note;whiteSpace=wrap;html=1;backgroundOutline=1;darkOpacity=0.05;fillColor=none;strokeColor=#6c8ebf;sketch=1;curveFitting=1;jiggle=2;size=17;fontStyle=2;align=left;spacingLeft=5.9055;" parent="1" vertex="1">
          <mxGeometry x="151" y="650" width="94" height="27" as="geometry" />
        </mxCell>
        <mxCell id="-9ZG5ofNiQgSZj17KKBb-39" value="&lt;div&gt;&lt;span&gt;naavre chart&lt;/span&gt;&lt;/div&gt;" style="shape=note;whiteSpace=wrap;html=1;backgroundOutline=1;darkOpacity=0.05;fillColor=none;strokeColor=#b85450;sketch=1;curveFitting=1;jiggle=2;size=17;fontStyle=2;spacingLeft=7.874;align=left;" parent="1" vertex="1">
          <mxGeometry x="230" y="22.83" width="99.56" height="27.17" as="geometry" />
        </mxCell>
        <mxCell id="-9ZG5ofNiQgSZj17KKBb-40" value="&lt;div&gt;&lt;span&gt;values chart&lt;/span&gt;&lt;/div&gt;" style="shape=note;whiteSpace=wrap;html=1;backgroundOutline=1;darkOpacity=0.05;fillColor=none;strokeColor=#d79b00;sketch=1;curveFitting=1;jiggle=2;size=17;fontStyle=2;spacingLeft=7.874;align=left;" parent="1" vertex="1">
          <mxGeometry x="230" y="319.83" width="99.56" height="27.17" as="geometry" />
        </mxCell>
        <mxCell id="-9ZG5ofNiQgSZj17KKBb-41" value="&lt;b&gt;Step 1&amp;nbsp;&lt;/b&gt;&amp;nbsp;render sub-charts values" style="rounded=1;whiteSpace=wrap;html=1;fillColor=#f0a30a;fontColor=#000000;strokeColor=#BD7000;" parent="1" vertex="1">
          <mxGeometry x="876" y="493.44" width="284" height="40.5" as="geometry" />
        </mxCell>
        <mxCell id="-9ZG5ofNiQgSZj17KKBb-42" value="&lt;b&gt;Step 2&amp;nbsp;&lt;/b&gt;&amp;nbsp;deploy sub-charts" style="rounded=1;whiteSpace=wrap;html=1;fillColor=#fa6800;fontColor=#000000;strokeColor=#C73500;" parent="1" vertex="1">
          <mxGeometry x="876" y="200" width="284" height="40.5" as="geometry" />
        </mxCell>
        <mxCell id="-9ZG5ofNiQgSZj17KKBb-45" style="edgeStyle=orthogonalEdgeStyle;rounded=0;orthogonalLoop=1;jettySize=auto;html=1;exitX=0.5;exitY=0;exitDx=0;exitDy=0;entryX=0;entryY=0.5;entryDx=0;entryDy=0;elbow=vertical;curved=1;fillColor=#dae8fc;strokeColor=#326CE5;strokeWidth=1.9685;" parent="1" source="-9ZG5ofNiQgSZj17KKBb-44" target="-9ZG5ofNiQgSZj17KKBb-32" edge="1">
          <mxGeometry relative="1" as="geometry" />
        </mxCell>
        <mxCell id="-9ZG5ofNiQgSZj17KKBb-44" value="" style="rounded=0;whiteSpace=wrap;html=1;strokeWidth=3.937;imageHeight=24;fillColor=none;strokeColor=none;fontColor=#333333;" parent="1" vertex="1">
          <mxGeometry x="413" y="246" width="40" height="3.94" as="geometry" />
        </mxCell>
        <mxCell id="-9ZG5ofNiQgSZj17KKBb-46" value="" style="shape=flexArrow;endArrow=classic;html=1;rounded=0;fillColor=#6C8EBF;strokeColor=#6c8ebf;exitX=0.031;exitY=0.837;exitDx=0;exitDy=0;exitPerimeter=0;" parent="1" source="-9ZG5ofNiQgSZj17KKBb-1" edge="1">
          <mxGeometry width="50" height="50" relative="1" as="geometry">
            <mxPoint x="30" y="687.26" as="sourcePoint" />
            <mxPoint x="60" y="687.26" as="targetPoint" />
          </mxGeometry>
        </mxCell>
      </root>
    </mxGraphModel>
  </diagram>
</mxfile>
